<ttFont>
    <TTGlyph name=".notdef" xMin="50" yMin="0" xMax="450" yMax="750">
      <contour>
        <pt x="50" y="0" on="1"/>
        <pt x="50" y="750" on="1"/>
        <pt x="450" y="750" on="1"/>
        <pt x="450" y="0" on="1"/>
      </contour>
      <contour>
        <pt x="400" y="50" on="1"/>
        <pt x="400" y="700" on="1"/>
        <pt x="100" y="700" on="1"/>
        <pt x="100" y="50" on="1"/>
      </contour>
    </TTGlyph>
    <TTGlyph name="A" xMin="7" yMin="0" xMax="655" yMax="693">
      <contour>
        <pt x="528" y="0" on="1"/>
        <pt x="525" y="42" on="0"/>
        <pt x="518" y="125" on="0"/>
        <pt x="514" y="164" on="1"/>
        <pt x="233" y="164" on="1"/>
        <pt x="210" y="125" on="0"/>
        <pt x="165" y="44" on="0"/>
        <pt x="142" y="0" on="1"/>
        <pt x="7" y="0" on="1"/>
        <pt x="68" y="106" on="0"/>
        <pt x="179" y="294" on="0"/>
        <pt x="284" y="464" on="0"/>
        <pt x="387" y="619" on="0"/>
        <pt x="439" y="693" on="1"/>
        <pt x="556" y="693" on="1"/>
        <pt x="588" y="544" on="0"/>
        <pt x="634" y="191" on="0"/>
        <pt x="655" y="0" on="1"/>
      </contour>
      <contour>
        <pt x="470" y="561" on="1"/>
        <pt x="432" y="502" on="0"/>
        <pt x="339" y="355" on="0"/>
        <pt x="287" y="264" on="1"/>
        <pt x="504" y="264" on="1"/>
        <pt x="498" y="335" on="0"/>
        <pt x="481" y="484" on="0"/>
      </contour>
    </TTGlyph>
    <TTGlyph name="AE" xMin="2" yMin="0" xMax="1053" yMax="693">
      <contour>
        <pt x="510" y="171" on="1"/>
        <pt x="265" y="171" on="1"/>
        <pt x="233" y="129" on="0"/>
        <pt x="167" y="41" on="0"/>
        <pt x="138" y="0" on="1"/>
        <pt x="2" y="0" on="1"/>
        <pt x="84" y="108" on="0"/>
        <pt x="231" y="295" on="0"/>
        <pt x="371" y="463" on="0"/>
        <pt x="509" y="618" on="0"/>
        <pt x="583" y="693" on="1"/>
        <pt x="1053" y="693" on="1"/>
        <pt x="1027" y="587" on="1"/>
        <pt x="730" y="587" on="1"/>
        <pt x="689" y="414" on="1"/>
        <pt x="951" y="414" on="1"/>
        <pt x="926" y="311" on="1"/>
        <pt x="665" y="311" on="1"/>
        <pt x="615" y="106" on="1"/>
        <pt x="935" y="106" on="1"/>
        <pt x="910" y="0" on="1"/>
        <pt x="469" y="0" on="1"/>
      </contour>
      <contour>
        <pt x="608" y="579" on="1"/>
        <pt x="578" y="547" on="0"/>
        <pt x="510" y="472" on="0"/>
        <pt x="441" y="391" on="0"/>
        <pt x="373" y="310" on="0"/>
        <pt x="342" y="272" on="1"/>
        <pt x="534" y="272" on="1"/>
      </contour>
    </TTGlyph>
    <TTGlyph name="AEacute" xMin="2" yMin="0" xMax="1053" yMax="954">
      <component glyphName="AE" x="0" y="0" flags="0x204"/>
      <component glyphName="acute" x="548" y="162" flags="0x4"/>
    </TTGlyph>
    <TTGlyph name="Aacute" xMin="7" yMin="0" xMax="655" yMax="954">
      <component glyphName="A" x="0" y="0" flags="0x204"/>
      <component glyphName="acute" x="269" y="162" flags="0x4"/>
    </TTGlyph>
    <TTGlyph name="Abreve" xMin="7" yMin="0" xMax="687" yMax="910">
      <component glyphName="A" x="0" y="0" flags="0x204"/>
      <component glyphName="breve" x="241" y="154" flags="0x4"/>
    </TTGlyph>
    <TTGlyph name="Acircumflex" xMin="7" yMin="0" xMax="658" yMax="945">
      <component glyphName="A" x="0" y="0" flags="0x204"/>
      <component glyphName="circumflex" x="246" y="161" flags="0x4"/>
    </TTGlyph>
    <TTGlyph name="Adieresis" xMin="7" yMin="0" xMax="698" yMax="902">
      <component glyphName="A" x="0" y="0" flags="0x204"/>
      <component glyphName="dieresis" x="174" y="158" flags="0x4"/>
    </TTGlyph>
    <TTGlyph name="Agrave" xMin="7" yMin="0" xMax="655" yMax="951">
      <component glyphName="A" x="0" y="0" flags="0x204"/>
      <component glyphName="grave" x="221" y="162" flags="0x4"/>
    </TTGlyph>
    <TTGlyph name="Alpha" xMin="7" yMin="0" xMax="655" yMax="693">
      <component glyphName="A" x="0" y="0" flags="0x204"/>
    </TTGlyph>
    <TTGlyph name="Alphatonos" xMin="7" yMin="0" xMax="655" yMax="723">
      <component glyphName="A" x="0" y="0" flags="0x204"/>
      <component glyphName="tonos.cap" x="-39" y="0" flags="0x4"/>
    </TTGlyph>
    <TTGlyph name="Amacron" xMin="7" yMin="0" xMax="690" yMax="872">
      <component glyphName="A" x="0" y="0" flags="0x204"/>
      <component glyphName="macron" x="200" y="154" flags="0x4"/>
    </TTGlyph>
    <TTGlyph name="Aogonek" xMin="7" yMin="-204" xMax="655" yMax="693">
      <contour>
        <pt x="624" y="-189" on="1"/>
        <pt x="608" y="-196" on="0"/>
        <pt x="569" y="-204" on="0"/>
        <pt x="547" y="-204" on="1"/>
        <pt x="498" y="-204" on="0"/>
        <pt x="443" y="-168" on="0"/>
        <pt x="443" y="-130" on="1"/>
        <pt x="443" y="-113" on="0"/>
        <pt x="457" y="-79" on="0"/>
        <pt x="481" y="-47" on="0"/>
        <pt x="512" y="-17" on="0"/>
        <pt x="528" y="-4" on="1"/>
        <pt x="525" y="36" on="0"/>
        <pt x="518" y="126" on="0"/>
        <pt x="514" y="164" on="1"/>
        <pt x="233" y="164" on="1"/>
        <pt x="210" y="125" on="0"/>
        <pt x="165" y="44" on="0"/>
        <pt x="142" y="0" on="1"/>
        <pt x="7" y="0" on="1"/>
        <pt x="68" y="106" on="0"/>
        <pt x="179" y="294" on="0"/>
        <pt x="284" y="464" on="0"/>
        <pt x="387" y="619" on="0"/>
        <pt x="439" y="693" on="1"/>
        <pt x="556" y="693" on="1"/>
        <pt x="588" y="544" on="0"/>
        <pt x="634" y="195" on="0"/>
        <pt x="655" y="4" on="1"/>
        <pt x="647" y="-1" on="0"/>
        <pt x="615" y="-20" on="0"/>
        <pt x="594" y="-36" on="1"/>
        <pt x="570" y="-54" on="0"/>
        <pt x="550" y="-84" on="0"/>
        <pt x="550" y="-95" on="1"/>
        <pt x="550" y="-106" on="0"/>
        <pt x="572" y="-118" on="0"/>
        <pt x="586" y="-118" on="1"/>
        <pt x="598" y="-118" on="0"/>
        <pt x="625" y="-112" on="0"/>
        <pt x="633" y="-109" on="1"/>
      </contour>
      <contour>
        <pt x="470" y="561" on="1"/>
        <pt x="432" y="502" on="0"/>
        <pt x="339" y="355" on="0"/>
        <pt x="287" y="264" on="1"/>
        <pt x="504" y="264" on="1"/>
        <pt x="498" y="335" on="0"/>
        <pt x="481" y="484" on="0"/>
      </contour>
    </TTGlyph>
    <TTGlyph name="Aring" xMin="7" yMin="0" xMax="655" yMax="860">
      <contour>
        <pt x="615" y="752" on="1"/>
        <pt x="615" y="719" on="0"/>
        <pt x="586" y="671" on="0"/>
        <pt x="563" y="658" on="1"/>
        <pt x="592" y="514" on="0"/>
        <pt x="635" y="180" on="0"/>
        <pt x="655" y="0" on="1"/>
        <pt x="528" y="0" on="1"/>
        <pt x="525" y="42" on="0"/>
        <pt x="518" y="125" on="0"/>
        <pt x="514" y="164" on="1"/>
        <pt x="233" y="164" on="1"/>
        <pt x="210" y="125" on="0"/>
        <pt x="165" y="44" on="0"/>
        <pt x="142" y="0" on="1"/>
        <pt x="7" y="0" on="1"/>
        <pt x="65" y="102" on="0"/>
        <pt x="173" y="285" on="0"/>
        <pt x="275" y="450" on="0"/>
        <pt x="375" y="601" on="0"/>
        <pt x="425" y="673" on="1"/>
        <pt x="411" y="687" on="0"/>
        <pt x="394" y="726" on="0"/>
        <pt x="394" y="752" on="1"/>
        <pt x="394" y="777" on="0"/>
        <pt x="412" y="818" on="0"/>
        <pt x="442" y="845" on="0"/>
        <pt x="482" y="860" on="0"/>
        <pt x="504" y="860" on="1"/>
        <pt x="526" y="860" on="0"/>
        <pt x="566" y="845" on="0"/>
        <pt x="597" y="818" on="0"/>
        <pt x="615" y="777" on="0"/>
      </contour>
      <contour>
        <pt x="470" y="561" on="1"/>
        <pt x="432" y="502" on="0"/>
        <pt x="339" y="355" on="0"/>
        <pt x="287" y="264" on="1"/>
        <pt x="504" y="264" on="1"/>
        <pt x="498" y="335" on="0"/>
        <pt x="481" y="484" on="0"/>
      </contour>
      <contour>
        <pt x="553" y="752" on="1"/>
        <pt x="553" y="776" on="0"/>
        <pt x="524" y="803" on="0"/>
        <pt x="504" y="803" on="1"/>
        <pt x="484" y="803" on="0"/>
        <pt x="455" y="776" on="0"/>
        <pt x="455" y="752" on="1"/>
        <pt x="455" y="728" on="0"/>
        <pt x="484" y="701" on="0"/>
        <pt x="504" y="701" on="1"/>
        <pt x="524" y="701" on="0"/>
        <pt x="553" y="728" on="0"/>
      </contour>
    </TTGlyph>
    <TTGlyph name="Aringacute" xMin="7" yMin="0" xMax="655" yMax="967">
      <contour>
        <pt x="470" y="561" on="1"/>
        <pt x="389" y="439" on="0"/>
        <pt x="287" y="264" on="1"/>
        <pt x="504" y="264" on="1"/>
        <pt x="498" y="334" on="0"/>
        <pt x="482" y="479" on="0"/>
      </contour>
      <contour>
        <pt x="543" y="721" on="1"/>
        <pt x="543" y="743" on="0"/>
        <pt x="517" y="766" on="0"/>
        <pt x="500" y="766" on="1"/>
        <pt x="483" y="766" on="0"/>
        <pt x="456" y="743" on="0"/>
        <pt x="456" y="721" on="1"/>
        <pt x="456" y="700" on="0"/>
        <pt x="483" y="676" on="0"/>
        <pt x="500" y="676" on="1"/>
        <pt x="517" y="676" on="0"/>
        <pt x="543" y="700" on="0"/>
      </contour>
      <contour>
        <pt x="615" y="890" on="1"/>
        <pt x="444" y="826" on="1"/>
        <pt x="426" y="880" on="1"/>
        <pt x="592" y="967" on="1"/>
      </contour>
      <contour>
        <pt x="597" y="721" on="1"/>
        <pt x="597" y="697" on="0"/>
        <pt x="579" y="660" on="0"/>
        <pt x="563" y="648" on="1"/>
        <pt x="577" y="579" on="0"/>
        <pt x="601" y="436" on="0"/>
        <pt x="623" y="279" on="0"/>
        <pt x="644" y="102" on="0"/>
        <pt x="655" y="0" on="1"/>
        <pt x="528" y="0" on="1"/>
        <pt x="525" y="42" on="0"/>
        <pt x="518" y="124" on="0"/>
        <pt x="514" y="164" on="1"/>
        <pt x="233" y="164" on="1"/>
        <pt x="210" y="125" on="0"/>
        <pt x="165" y="44" on="0"/>
        <pt x="142" y="0" on="1"/>
        <pt x="7" y="0" on="1"/>
        <pt x="65" y="102" on="0"/>
        <pt x="172" y="282" on="0"/>
        <pt x="273" y="446" on="0"/>
        <pt x="371" y="596" on="0"/>
        <pt x="421" y="667" on="1"/>
        <pt x="403" y="690" on="0"/>
        <pt x="403" y="721" on="1"/>
        <pt x="403" y="744" on="0"/>
        <pt x="419" y="780" on="0"/>
        <pt x="446" y="804" on="0"/>
        <pt x="481" y="817" on="0"/>
        <pt x="500" y="817" on="1"/>
        <pt x="519" y="817" on="0"/>
        <pt x="554" y="804" on="0"/>
        <pt x="581" y="780" on="0"/>
        <pt x="597" y="744" on="0"/>
      </contour>
    </TTGlyph>
    <TTGlyph name="At" xMin="124" yMin="-90" xMax="987" yMax="782">
      <component glyphName="at" x="16" y="69" flags="0x214"/>
    </TTGlyph>
    <TTGlyph name="Atilde" xMin="7" yMin="0" xMax="703" yMax="905">
      <component glyphName="A" x="0" y="0" flags="0x204"/>
      <component glyphName="tilde" x="255" y="159" flags="0x4"/>
    </TTGlyph>
    <TTGlyph name="B" xMin="81" yMin="-8" xMax="682" yMax="700">
      <contour>
        <pt x="289" y="-8" on="1"/>
        <pt x="238" y="-8" on="0"/>
        <pt x="125" y="1" on="0"/>
        <pt x="81" y="11" on="1"/>
        <pt x="242" y="682" on="1"/>
        <pt x="287" y="692" on="0"/>
        <pt x="387" y="700" on="0"/>
        <pt x="438" y="700" on="1"/>
        <pt x="480" y="700" on="0"/>
        <pt x="567" y="688" on="0"/>
        <pt x="637" y="653" on="0"/>
        <pt x="682" y="592" on="0"/>
        <pt x="682" y="544" on="1"/>
        <pt x="682" y="491" on="0"/>
        <pt x="623" y="397" on="0"/>
        <pt x="553" y="368" on="1"/>
        <pt x="597" y="350" on="0"/>
        <pt x="645" y="282" on="0"/>
        <pt x="645" y="237" on="1"/>
        <pt x="645" y="120" on="0"/>
        <pt x="462" y="-8" on="0"/>
      </contour>
      <contour>
        <pt x="278" y="313" on="1"/>
        <pt x="227" y="100" on="1"/>
        <pt x="241" y="98" on="0"/>
        <pt x="287" y="95" on="0"/>
        <pt x="315" y="95" on="1"/>
        <pt x="348" y="95" on="0"/>
        <pt x="420" y="105" on="0"/>
        <pt x="478" y="133" on="0"/>
        <pt x="517" y="185" on="0"/>
        <pt x="517" y="226" on="1"/>
        <pt x="517" y="264" on="0"/>
        <pt x="459" y="313" on="0"/>
        <pt x="392" y="313" on="1"/>
      </contour>
      <contour>
        <pt x="302" y="410" on="1"/>
        <pt x="398" y="410" on="1"/>
        <pt x="429" y="410" on="0"/>
        <pt x="487" y="422" on="0"/>
        <pt x="530" y="449" on="0"/>
        <pt x="556" y="489" on="0"/>
        <pt x="556" y="518" on="1"/>
        <pt x="556" y="564" on="0"/>
        <pt x="487" y="598" on="0"/>
        <pt x="429" y="598" on="1"/>
        <pt x="406" y="598" on="0"/>
        <pt x="360" y="595" on="0"/>
        <pt x="346" y="593" on="1"/>
      </contour>
    </TTGlyph>
    <TTGlyph name="Backslash" xMin="169" yMin="-138" xMax="388" yMax="830">
      <component glyphName="backslash" x="11" y="47" flags="0x214"/>
    </TTGlyph>
    <TTGlyph name="Beta" xMin="81" yMin="-8" xMax="682" yMax="700">
      <component glyphName="B" x="0" y="0" flags="0x204"/>
    </TTGlyph>
    <TTGlyph name="Braceleft" xMin="110" yMin="-138" xMax="551" yMax="830">
      <component glyphName="braceleft" x="11" y="47" flags="0x214"/>
    </TTGlyph>
    <TTGlyph name="Braceright" xMin="-34" yMin="-138" xMax="407" yMax="830">
      <component glyphName="braceright" x="11" y="47" flags="0x214"/>
    </TTGlyph>
    <TTGlyph name="Bracketleft" xMin="56" yMin="-138" xMax="534" yMax="830">
      <component glyphName="bracketleft" x="11" y="47" flags="0x214"/>
    </TTGlyph>
    <TTGlyph name="Bracketright" xMin="-33" yMin="-138" xMax="445" yMax="830">
      <component glyphName="bracketright" x="11" y="47" flags="0x214"/>
    </TTGlyph>
    <TTGlyph name="Bullet" xMin="126" yMin="213" xMax="398" yMax="482">
      <component glyphName="bullet" x="0" y="-5" flags="0x214"/>
    </TTGlyph>
    <TTGlyph name="C" xMin="121" yMin="-15" xMax="722" yMax="709">
      <contour>
        <pt x="600" y="30" on="1"/>
        <pt x="567" y="13" on="0"/>
        <pt x="465" y="-15" on="0"/>
        <pt x="392" y="-15" on="1"/>
        <pt x="328" y="-15" on="0"/>
        <pt x="228" y="24" on="0"/>
        <pt x="158" y="98" on="0"/>
        <pt x="121" y="202" on="0"/>
        <pt x="121" y="267" on="1"/>
        <pt x="121" y="351" on="0"/>
        <pt x="177" y="510" on="0"/>
        <pt x="283" y="634" on="0"/>
        <pt x="435" y="709" on="0"/>
        <pt x="531" y="709" on="1"/>
        <pt x="594" y="709" on="0"/>
        <pt x="687" y="681" on="0"/>
        <pt x="722" y="661" on="1"/>
        <pt x="674" y="560" on="1"/>
        <pt x="642" y="579" on="0"/>
        <pt x="569" y="600" on="0"/>
        <pt x="523" y="600" on="1"/>
        <pt x="460" y="600" on="0"/>
        <pt x="360" y="544" on="0"/>
        <pt x="289" y="453" on="0"/>
        <pt x="252" y="337" on="0"/>
        <pt x="252" y="277" on="1"/>
        <pt x="252" y="184" on="0"/>
        <pt x="333" y="95" on="0"/>
        <pt x="411" y="95" on="1"/>
        <pt x="471" y="95" on="0"/>
        <pt x="555" y="122" on="0"/>
        <pt x="585" y="136" on="1"/>
      </contour>
    </TTGlyph>
    <TTGlyph name="Cacute" xMin="121" yMin="-15" xMax="722" yMax="954">
      <component glyphName="C" x="0" y="0" flags="0x204"/>
      <component glyphName="acute" x="285" y="162" flags="0x4"/>
    </TTGlyph>
    <TTGlyph name="Ccaron" xMin="121" yMin="-15" xMax="722" yMax="948">
      <component glyphName="C" x="0" y="0" flags="0x204"/>
      <component glyphName="caron" x="270" y="158" flags="0x4"/>
    </TTGlyph>
    <TTGlyph name="Ccedilla" xMin="121" yMin="-205" xMax="722" yMax="709">
      <contour>
        <pt x="381" y="-41" on="1"/>
        <pt x="423" y="-62" on="0"/>
        <pt x="423" y="-105" on="1"/>
        <pt x="423" y="-131" on="0"/>
        <pt x="403" y="-168" on="0"/>
        <pt x="368" y="-193" on="0"/>
        <pt x="322" y="-205" on="0"/>
        <pt x="296" y="-205" on="1"/>
        <pt x="241" y="-205" on="0"/>
        <pt x="205" y="-186" on="1"/>
        <pt x="235" y="-118" on="1"/>
        <pt x="246" y="-123" on="0"/>
        <pt x="275" y="-130" on="0"/>
        <pt x="292" y="-130" on="1"/>
        <pt x="310" y="-130" on="0"/>
        <pt x="331" y="-118" on="0"/>
        <pt x="331" y="-106" on="1"/>
        <pt x="331" y="-94" on="0"/>
        <pt x="316" y="-81" on="0"/>
        <pt x="299" y="-73" on="1"/>
        <pt x="286" y="-67" on="1"/>
        <pt x="293" y="-55" on="0"/>
        <pt x="314" y="-23" on="0"/>
        <pt x="324" y="-9" on="1"/>
        <pt x="227" y="10" on="0"/>
        <pt x="121" y="155" on="0"/>
        <pt x="121" y="267" on="1"/>
        <pt x="121" y="351" on="0"/>
        <pt x="177" y="510" on="0"/>
        <pt x="283" y="634" on="0"/>
        <pt x="435" y="709" on="0"/>
        <pt x="531" y="709" on="1"/>
        <pt x="594" y="709" on="0"/>
        <pt x="687" y="681" on="0"/>
        <pt x="722" y="661" on="1"/>
        <pt x="674" y="560" on="1"/>
        <pt x="642" y="579" on="0"/>
        <pt x="569" y="600" on="0"/>
        <pt x="523" y="600" on="1"/>
        <pt x="460" y="600" on="0"/>
        <pt x="360" y="544" on="0"/>
        <pt x="289" y="453" on="0"/>
        <pt x="252" y="337" on="0"/>
        <pt x="252" y="277" on="1"/>
        <pt x="252" y="184" on="0"/>
        <pt x="333" y="95" on="0"/>
        <pt x="411" y="95" on="1"/>
        <pt x="471" y="95" on="0"/>
        <pt x="555" y="122" on="0"/>
        <pt x="585" y="136" on="1"/>
        <pt x="600" y="30" on="1"/>
        <pt x="568" y="13" on="0"/>
        <pt x="469" y="-14" on="0"/>
        <pt x="399" y="-15" on="1"/>
        <pt x="387" y="-30" on="0"/>
      </contour>
    </TTGlyph>
    <TTGlyph name="Ccircumflex" xMin="121" yMin="-15" xMax="722" yMax="945">
      <component glyphName="C" x="0" y="0" flags="0x204"/>
      <component glyphName="circumflex" x="278" y="161" flags="0x4"/>
    </TTGlyph>
    <TTGlyph name="Cdotaccent" xMin="121" yMin="-15" xMax="722" yMax="904">
      <component glyphName="C" x="0" y="0" flags="0x204"/>
      <component glyphName="dotaccent" x="335" y="158" flags="0x4"/>
    </TTGlyph>
    <TTGlyph name="Chi" xMin="10" yMin="0" xMax="744" yMax="693">
      <component glyphName="X" x="0" y="0" flags="0x204"/>
    </TTGlyph>
    <TTGlyph name="D" xMin="81" yMin="-8" xMax="743" yMax="700">
      <contour>
        <pt x="229" y="103" on="1"/>
        <pt x="240" y="101" on="0"/>
        <pt x="269" y="100" on="0"/>
        <pt x="300" y="100" on="1"/>
        <pt x="372" y="100" on="0"/>
        <pt x="488" y="146" on="0"/>
        <pt x="569" y="231" on="0"/>
        <pt x="613" y="350" on="0"/>
        <pt x="613" y="423" on="1"/>
        <pt x="613" y="502" on="0"/>
        <pt x="523" y="594" on="0"/>
        <pt x="421" y="594" on="1"/>
        <pt x="395" y="594" on="0"/>
        <pt x="364" y="592" on="0"/>
        <pt x="346" y="590" on="1"/>
      </contour>
      <contour>
        <pt x="743" y="427" on="1"/>
        <pt x="743" y="334" on="0"/>
        <pt x="683" y="174" on="0"/>
        <pt x="565" y="58" on="0"/>
        <pt x="388" y="-8" on="0"/>
        <pt x="271" y="-8" on="1"/>
        <pt x="229" y="-8" on="0"/>
        <pt x="125" y="1" on="0"/>
        <pt x="81" y="11" on="1"/>
        <pt x="242" y="682" on="1"/>
        <pt x="291" y="693" on="0"/>
        <pt x="391" y="700" on="0"/>
        <pt x="433" y="700" on="1"/>
        <pt x="509" y="700" on="0"/>
        <pt x="625" y="661" on="0"/>
        <pt x="703" y="590" on="0"/>
        <pt x="743" y="489" on="0"/>
      </contour>
    </TTGlyph>
    <TTGlyph name="Dcaron" xMin="81" yMin="-8" xMax="743" yMax="948">
      <component glyphName="D" x="0" y="0" flags="0x204"/>
      <component glyphName="caron" x="239" y="158" flags="0x4"/>
    </TTGlyph>
    <TTGlyph name="Dcroat" xMin="94" yMin="-8" xMax="764" yMax="700">
      <component glyphName="Eth" x="0" y="0" flags="0x204"/>
    </TTGlyph>
    <TTGlyph name="Delta" xMin="7" yMin="0" xMax="651" yMax="693">
      <component glyphName="uni0394" x="0" y="0" flags="0x204"/>
    </TTGlyph>
    <TTGlyph name="E" xMin="78" yMin="0" xMax="674" yMax="693">
      <contour>
        <pt x="78" y="0" on="1"/>
        <pt x="244" y="693" on="1"/>
        <pt x="674" y="693" on="1"/>
        <pt x="649" y="588" on="1"/>
        <pt x="344" y="588" on="1"/>
        <pt x="303" y="414" on="1"/>
        <pt x="573" y="414" on="1"/>
        <pt x="548" y="311" on="1"/>
        <pt x="279" y="311" on="1"/>
        <pt x="229" y="105" on="1"/>
        <pt x="557" y="105" on="1"/>
        <pt x="532" y="0" on="1"/>
      </contour>
    </TTGlyph>
    <TTGlyph name="Eacute" xMin="78" yMin="0" xMax="674" yMax="954">
      <component glyphName="E" x="0" y="0" flags="0x204"/>
      <component glyphName="acute" x="254" y="162" flags="0x4"/>
    </TTGlyph>
    <TTGlyph name="Ebreve" xMin="78" yMin="0" xMax="674" yMax="910">
      <component glyphName="E" x="0" y="0" flags="0x204"/>
      <component glyphName="breve" x="204" y="154" flags="0x4"/>
    </TTGlyph>
    <TTGlyph name="Ecaron" xMin="78" yMin="0" xMax="674" yMax="948">
      <component glyphName="E" x="0" y="0" flags="0x204"/>
      <component glyphName="caron" x="205" y="158" flags="0x4"/>
    </TTGlyph>
    <TTGlyph name="Ecircumflex" xMin="78" yMin="0" xMax="674" yMax="945">
      <component glyphName="E" x="0" y="0" flags="0x204"/>
      <component glyphName="circumflex" x="218" y="161" flags="0x4"/>
    </TTGlyph>
    <TTGlyph name="Edieresis" xMin="78" yMin="0" xMax="674" yMax="902">
      <component glyphName="E" x="0" y="0" flags="0x204"/>
      <component glyphName="dieresis" x="133" y="158" flags="0x4"/>
    </TTGlyph>
    <TTGlyph name="Edotaccent" xMin="78" yMin="0" xMax="674" yMax="904">
      <component glyphName="E" x="0" y="0" flags="0x204"/>
      <component glyphName="dotaccent" x="264" y="158" flags="0x4"/>
    </TTGlyph>
    <TTGlyph name="Egrave" xMin="78" yMin="0" xMax="674" yMax="951">
      <component glyphName="E" x="0" y="0" flags="0x204"/>
      <component glyphName="grave" x="196" y="162" flags="0x4"/>
    </TTGlyph>
    <TTGlyph name="Emacron" xMin="78" yMin="0" xMax="674" yMax="872">
      <component glyphName="E" x="0" y="0" flags="0x204"/>
      <component glyphName="macron" x="164" y="154" flags="0x4"/>
    </TTGlyph>
    <TTGlyph name="Emdash" xMin="63" yMin="280" xMax="1087" yMax="382">
      <component glyphName="emdash" x="10" y="45" flags="0x214"/>
    </TTGlyph>
    <TTGlyph name="Endash" xMin="63" yMin="280" xMax="587" yMax="382">
      <component glyphName="endash" x="10" y="45" flags="0x214"/>
    </TTGlyph>
    <TTGlyph name="Eng" xMin="78" yMin="-187" xMax="802" yMax="693">
      <contour>
        <pt x="522" y="39" on="1"/>
        <pt x="503" y="94" on="0"/>
        <pt x="457" y="218" on="0"/>
        <pt x="405" y="341" on="0"/>
        <pt x="350" y="458" on="0"/>
        <pt x="323" y="506" on="1"/>
        <pt x="202" y="0" on="1"/>
        <pt x="78" y="0" on="1"/>
        <pt x="244" y="693" on="1"/>
        <pt x="345" y="693" on="1"/>
        <pt x="374" y="646" on="0"/>
        <pt x="437" y="526" on="0"/>
        <pt x="495" y="398" on="0"/>
        <pt x="547" y="272" on="0"/>
        <pt x="566" y="220" on="1"/>
        <pt x="677" y="693" on="1"/>
        <pt x="802" y="693" on="1"/>
        <pt x="638" y="8" on="1"/>
        <pt x="627" y="-39" on="0"/>
        <pt x="596" y="-111" on="0"/>
        <pt x="550" y="-161" on="0"/>
        <pt x="485" y="-187" on="0"/>
        <pt x="439" y="-187" on="1"/>
        <pt x="420" y="-187" on="0"/>
        <pt x="375" y="-179" on="0"/>
        <pt x="356" y="-172" on="1"/>
        <pt x="392" y="-78" on="1"/>
        <pt x="401" y="-82" on="0"/>
        <pt x="422" y="-87" on="0"/>
        <pt x="434" y="-87" on="1"/>
        <pt x="455" y="-87" on="0"/>
        <pt x="483" y="-69" on="0"/>
        <pt x="502" y="-36" on="0"/>
        <pt x="515" y="10" on="0"/>
      </contour>
    </TTGlyph>
    <TTGlyph name="Eogonek" xMin="78" yMin="-204" xMax="674" yMax="693">
      <contour>
        <pt x="500" y="-189" on="1"/>
        <pt x="484" y="-196" on="0"/>
        <pt x="445" y="-204" on="0"/>
        <pt x="423" y="-204" on="1"/>
        <pt x="374" y="-204" on="0"/>
        <pt x="319" y="-168" on="0"/>
        <pt x="319" y="-130" on="1"/>
        <pt x="319" y="-102" on="0"/>
        <pt x="364" y="-38" on="0"/>
        <pt x="423" y="0" on="1"/>
        <pt x="78" y="0" on="1"/>
        <pt x="244" y="693" on="1"/>
        <pt x="674" y="693" on="1"/>
        <pt x="649" y="588" on="1"/>
        <pt x="344" y="588" on="1"/>
        <pt x="303" y="414" on="1"/>
        <pt x="573" y="414" on="1"/>
        <pt x="548" y="311" on="1"/>
        <pt x="279" y="311" on="1"/>
        <pt x="229" y="105" on="1"/>
        <pt x="557" y="105" on="1"/>
        <pt x="533" y="3" on="1"/>
        <pt x="521" y="-6" on="0"/>
        <pt x="487" y="-30" on="0"/>
        <pt x="454" y="-58" on="0"/>
        <pt x="431" y="-87" on="0"/>
        <pt x="431" y="-99" on="1"/>
        <pt x="431" y="-118" on="0"/>
        <pt x="462" y="-118" on="1"/>
        <pt x="474" y="-118" on="0"/>
        <pt x="501" y="-112" on="0"/>
        <pt x="509" y="-109" on="1"/>
      </contour>
    </TTGlyph>
    <TTGlyph name="Epsilon" xMin="78" yMin="0" xMax="674" yMax="693">
      <component glyphName="E" x="0" y="0" flags="0x204"/>
    </TTGlyph>
    <TTGlyph name="Epsilontonos" xMin="89" yMin="0" xMax="766" yMax="723">
      <component glyphName="E" x="92" y="0" flags="0x4"/>
      <component glyphName="tonos.cap" x="-84" y="0" flags="0x4"/>
    </TTGlyph>
    <TTGlyph name="Eta" xMin="78" yMin="0" xMax="780" yMax="693">
      <component glyphName="H" x="0" y="0" flags="0x204"/>
    </TTGlyph>
    <TTGlyph name="Etatonos" xMin="89" yMin="0" xMax="874" yMax="723">
      <component glyphName="H" x="94" y="0" flags="0x4"/>
      <component glyphName="tonos.cap" x="-84" y="0" flags="0x4"/>
    </TTGlyph>
    <TTGlyph name="Eth" xMin="94" yMin="-8" xMax="764" yMax="700">
      <contour>
        <pt x="116" y="408" on="1"/>
        <pt x="197" y="408" on="1"/>
        <pt x="263" y="682" on="1"/>
        <pt x="312" y="693" on="0"/>
        <pt x="412" y="700" on="0"/>
        <pt x="454" y="700" on="1"/>
        <pt x="530" y="700" on="0"/>
        <pt x="646" y="661" on="0"/>
        <pt x="724" y="590" on="0"/>
        <pt x="764" y="489" on="0"/>
        <pt x="764" y="427" on="1"/>
        <pt x="764" y="334" on="0"/>
        <pt x="704" y="174" on="0"/>
        <pt x="586" y="58" on="0"/>
        <pt x="409" y="-8" on="0"/>
        <pt x="292" y="-8" on="1"/>
        <pt x="250" y="-8" on="0"/>
        <pt x="146" y="1" on="0"/>
        <pt x="102" y="11" on="1"/>
        <pt x="174" y="313" on="1"/>
        <pt x="94" y="313" on="1"/>
      </contour>
      <contour>
        <pt x="323" y="408" on="1"/>
        <pt x="451" y="408" on="1"/>
        <pt x="428" y="313" on="1"/>
        <pt x="300" y="313" on="1"/>
        <pt x="250" y="103" on="1"/>
        <pt x="261" y="101" on="0"/>
        <pt x="290" y="100" on="0"/>
        <pt x="321" y="100" on="1"/>
        <pt x="393" y="100" on="0"/>
        <pt x="509" y="146" on="0"/>
        <pt x="590" y="231" on="0"/>
        <pt x="634" y="350" on="0"/>
        <pt x="634" y="423" on="1"/>
        <pt x="634" y="502" on="0"/>
        <pt x="544" y="594" on="0"/>
        <pt x="442" y="594" on="1"/>
        <pt x="416" y="594" on="0"/>
        <pt x="385" y="592" on="0"/>
        <pt x="367" y="590" on="1"/>
      </contour>
    </TTGlyph>
    <TTGlyph name="Euro" xMin="99" yMin="-14" xMax="697" yMax="706">
      <contour>
        <pt x="306" y="222" on="1"/>
        <pt x="307" y="183" on="0"/>
        <pt x="325" y="131" on="0"/>
        <pt x="358" y="101" on="0"/>
        <pt x="403" y="88" on="0"/>
        <pt x="430" y="88" on="1"/>
        <pt x="472" y="88" on="0"/>
        <pt x="536" y="105" on="0"/>
        <pt x="563" y="115" on="1"/>
        <pt x="568" y="17" on="1"/>
        <pt x="541" y="5" on="0"/>
        <pt x="455" y="-14" on="0"/>
        <pt x="411" y="-14" on="1"/>
        <pt x="307" y="-14" on="0"/>
        <pt x="189" y="99" on="0"/>
        <pt x="186" y="222" on="1"/>
        <pt x="99" y="222" on="1"/>
        <pt x="119" y="308" on="1"/>
        <pt x="191" y="308" on="1"/>
        <pt x="197" y="349" on="0"/>
        <pt x="208" y="391" on="1"/>
        <pt x="138" y="391" on="1"/>
        <pt x="158" y="476" on="1"/>
        <pt x="234" y="476" on="1"/>
        <pt x="255" y="526" on="0"/>
        <pt x="315" y="610" on="0"/>
        <pt x="397" y="672" on="0"/>
        <pt x="502" y="706" on="0"/>
        <pt x="570" y="706" on="1"/>
        <pt x="606" y="706" on="0"/>
        <pt x="666" y="694" on="0"/>
        <pt x="697" y="683" on="1"/>
        <pt x="649" y="587" on="1"/>
        <pt x="628" y="595" on="0"/>
        <pt x="583" y="605" on="0"/>
        <pt x="553" y="605" on="1"/>
        <pt x="479" y="605" on="0"/>
        <pt x="386" y="533" on="0"/>
        <pt x="358" y="476" on="1"/>
        <pt x="594" y="476" on="1"/>
        <pt x="557" y="391" on="1"/>
        <pt x="327" y="391" on="1"/>
        <pt x="322" y="371" on="0"/>
        <pt x="313" y="329" on="0"/>
        <pt x="311" y="308" on="1"/>
        <pt x="521" y="308" on="1"/>
        <pt x="485" y="222" on="1"/>
      </contour>
    </TTGlyph>
    <TTGlyph name="Exclamdown" xMin="67" yMin="0" xMax="354" yMax="705">
      <component glyphName="exclamdown" x="41" y="180" flags="0x214"/>
    </TTGlyph>
    <TTGlyph name="F" xMin="78" yMin="0" xMax="671" yMax="693">
      <contour>
        <pt x="78" y="0" on="1"/>
        <pt x="244" y="693" on="1"/>
        <pt x="671" y="693" on="1"/>
        <pt x="646" y="588" on="1"/>
        <pt x="344" y="588" on="1"/>
        <pt x="301" y="408" on="1"/>
        <pt x="568" y="408" on="1"/>
        <pt x="543" y="304" on="1"/>
        <pt x="277" y="304" on="1"/>
        <pt x="204" y="0" on="1"/>
      </contour>
    </TTGlyph>
    <TTGlyph name="G" xMin="121" yMin="-14" xMax="736" yMax="709">
      <contour>
        <pt x="412" y="94" on="1"/>
        <pt x="441" y="94" on="0"/>
        <pt x="487" y="100" on="0"/>
        <pt x="500" y="104" on="1"/>
        <pt x="559" y="352" on="1"/>
        <pt x="684" y="352" on="1"/>
        <pt x="604" y="20" on="1"/>
        <pt x="578" y="8" on="0"/>
        <pt x="467" y="-14" on="0"/>
        <pt x="392" y="-14" on="1"/>
        <pt x="326" y="-14" on="0"/>
        <pt x="224" y="25" on="0"/>
        <pt x="156" y="98" on="0"/>
        <pt x="121" y="202" on="0"/>
        <pt x="121" y="267" on="1"/>
        <pt x="121" y="351" on="0"/>
        <pt x="177" y="510" on="0"/>
        <pt x="284" y="634" on="0"/>
        <pt x="439" y="709" on="0"/>
        <pt x="537" y="709" on="1"/>
        <pt x="607" y="709" on="0"/>
        <pt x="706" y="675" on="0"/>
        <pt x="736" y="655" on="1"/>
        <pt x="687" y="555" on="1"/>
        <pt x="661" y="572" on="0"/>
        <pt x="581" y="600" on="0"/>
        <pt x="530" y="600" on="1"/>
        <pt x="464" y="600" on="0"/>
        <pt x="361" y="544" on="0"/>
        <pt x="289" y="453" on="0"/>
        <pt x="252" y="337" on="0"/>
        <pt x="252" y="277" on="1"/>
        <pt x="252" y="94" on="0"/>
      </contour>
    </TTGlyph>
    <TTGlyph name="Gamma" xMin="78" yMin="0" xMax="656" yMax="693">
      <component glyphName="afii10020" x="0" y="0" flags="0x204"/>
    </TTGlyph>
    <TTGlyph name="Gbreve" xMin="121" yMin="-14" xMax="736" yMax="910">
      <component glyphName="G" x="0" y="0" flags="0x204"/>
      <component glyphName="breve" x="266" y="154" flags="0x4"/>
    </TTGlyph>
    <TTGlyph name="Gcaron" xMin="121" yMin="-14" xMax="736" yMax="948">
      <component glyphName="G" x="0" y="0" flags="0x204"/>
      <component glyphName="caron" x="276" y="158" flags="0x4"/>
    </TTGlyph>
    <TTGlyph name="Gcircumflex" xMin="121" yMin="-14" xMax="736" yMax="945">
      <component glyphName="G" x="0" y="0" flags="0x204"/>
      <component glyphName="circumflex" x="272" y="161" flags="0x4"/>
    </TTGlyph>
    <TTGlyph name="Gcommaaccent" xMin="121" yMin="-201" xMax="736" yMax="709">
      <component glyphName="G" x="0" y="0" flags="0x204"/>
      <component glyphName="commaaccent" x="247" y="0" flags="0x4"/>
    </TTGlyph>
    <TTGlyph name="Gdotaccent" xMin="121" yMin="-14" xMax="736" yMax="904">
      <component glyphName="G" x="0" y="0" flags="0x204"/>
      <component glyphName="dotaccent" x="327" y="158" flags="0x4"/>
    </TTGlyph>
    <TTGlyph name="Guillemotleft" xMin="108" yMin="115" xMax="634" yMax="576">
      <component glyphName="guilsinglleft" x="15" y="62" flags="0x4"/>
      <component glyphName="guilsinglleft" x="254" y="62" flags="0x4"/>
    </TTGlyph>
    <TTGlyph name="Guillemotright" xMin="82" yMin="115" xMax="608" yMax="576">
      <component glyphName="guilsinglright" x="15" y="62" flags="0x4"/>
      <component glyphName="guilsinglright" x="254" y="62" flags="0x4"/>
    </TTGlyph>
    <TTGlyph name="Guilsinglleft" xMin="108" yMin="115" xMax="395" yMax="576">
      <component glyphName="guilsinglleft" x="15" y="62" flags="0x214"/>
    </TTGlyph>
    <TTGlyph name="Guilsinglright" xMin="82" yMin="115" xMax="369" yMax="576">
      <component glyphName="guilsinglright" x="15" y="62" flags="0x214"/>
    </TTGlyph>
    <TTGlyph name="H" xMin="78" yMin="0" xMax="780" yMax="693">
      <contour>
        <pt x="654" y="693" on="1"/>
        <pt x="780" y="693" on="1"/>
        <pt x="614" y="0" on="1"/>
        <pt x="488" y="0" on="1"/>
        <pt x="562" y="308" on="1"/>
        <pt x="278" y="308" on="1"/>
        <pt x="204" y="0" on="1"/>
        <pt x="78" y="0" on="1"/>
        <pt x="244" y="693" on="1"/>
        <pt x="370" y="693" on="1"/>
        <pt x="303" y="415" on="1"/>
        <pt x="587" y="415" on="1"/>
      </contour>
    </TTGlyph>
    <TTGlyph name="Hbar" xMin="76" yMin="0" xMax="832" yMax="693">
      <contour>
        <pt x="142" y="603" on="1"/>
        <pt x="220" y="603" on="1"/>
        <pt x="242" y="693" on="1"/>
        <pt x="368" y="693" on="1"/>
        <pt x="346" y="603" on="1"/>
        <pt x="630" y="603" on="1"/>
        <pt x="652" y="693" on="1"/>
        <pt x="778" y="693" on="1"/>
        <pt x="756" y="603" on="1"/>
        <pt x="832" y="603" on="1"/>
        <pt x="811" y="512" on="1"/>
        <pt x="734" y="512" on="1"/>
        <pt x="612" y="0" on="1"/>
        <pt x="486" y="0" on="1"/>
        <pt x="560" y="308" on="1"/>
        <pt x="276" y="308" on="1"/>
        <pt x="202" y="0" on="1"/>
        <pt x="76" y="0" on="1"/>
        <pt x="198" y="512" on="1"/>
        <pt x="120" y="512" on="1"/>
      </contour>
      <contour>
        <pt x="608" y="512" on="1"/>
        <pt x="324" y="512" on="1"/>
        <pt x="301" y="415" on="1"/>
        <pt x="585" y="415" on="1"/>
      </contour>
    </TTGlyph>
    <TTGlyph name="Hcircumflex" xMin="78" yMin="0" xMax="780" yMax="945">
      <component glyphName="H" x="0" y="0" flags="0x204"/>
      <component glyphName="circumflex" x="256" y="161" flags="0x4"/>
    </TTGlyph>
    <TTGlyph name="Hyphen" xMin="97" yMin="290" xMax="389" yMax="401">
      <component glyphName="hyphen" x="14" y="60" flags="0x214"/>
    </TTGlyph>
    <TTGlyph name="I" xMin="78" yMin="0" xMax="370" yMax="693">
      <contour>
        <pt x="244" y="693" on="1"/>
        <pt x="370" y="693" on="1"/>
        <pt x="204" y="0" on="1"/>
        <pt x="78" y="0" on="1"/>
      </contour>
    </TTGlyph>
    <TTGlyph name="IJ" xMin="78" yMin="-15" xMax="882" yMax="693">
      <component glyphName="I" x="0" y="0" flags="0x4"/>
      <component glyphName="J" x="299" y="0" flags="0x4"/>
    </TTGlyph>
    <TTGlyph name="Iacute" xMin="78" yMin="0" xMax="477" yMax="954">
      <component glyphName="I" x="0" y="0" flags="0x204"/>
      <component glyphName="acute" x="98" y="162" flags="0x4"/>
    </TTGlyph>
    <TTGlyph name="Ibreve" xMin="78" yMin="0" xMax="504" yMax="910">
      <component glyphName="I" x="0" y="0" flags="0x204"/>
      <component glyphName="breve" x="58" y="154" flags="0x4"/>
    </TTGlyph>
    <TTGlyph name="Icircumflex" xMin="78" yMin="0" xMax="475" yMax="945">
      <component glyphName="I" x="0" y="0" flags="0x204"/>
      <component glyphName="circumflex" x="63" y="161" flags="0x4"/>
    </TTGlyph>
    <TTGlyph name="Idieresis" xMin="78" yMin="0" xMax="510" yMax="902">
      <component glyphName="I" x="0" y="0" flags="0x204"/>
      <component glyphName="dieresis" x="-14" y="158" flags="0x4"/>
    </TTGlyph>
    <TTGlyph name="Idotaccent" xMin="78" yMin="0" xMax="407" yMax="904">
      <component glyphName="I" x="0" y="0" flags="0x204"/>
      <component glyphName="dotaccent" x="112" y="158" flags="0x4"/>
    </TTGlyph>
    <TTGlyph name="Igrave" xMin="78" yMin="0" xMax="404" yMax="951">
      <component glyphName="I" x="0" y="0" flags="0x204"/>
      <component glyphName="grave" x="32" y="162" flags="0x4"/>
    </TTGlyph>
    <TTGlyph name="Imacron" xMin="78" yMin="0" xMax="502" yMax="872">
      <component glyphName="I" x="0" y="0" flags="0x204"/>
      <component glyphName="macron" x="12" y="154" flags="0x4"/>
    </TTGlyph>
    <TTGlyph name="Iogonek" xMin="-8" yMin="-204" xMax="370" yMax="693">
      <contour>
        <pt x="244" y="693" on="1"/>
        <pt x="370" y="693" on="1"/>
        <pt x="204" y="0" on="1"/>
        <pt x="194" y="-6" on="0"/>
        <pt x="160" y="-28" on="0"/>
        <pt x="128" y="-55" on="0"/>
        <pt x="105" y="-85" on="0"/>
        <pt x="105" y="-99" on="1"/>
        <pt x="105" y="-107" on="0"/>
        <pt x="119" y="-118" on="0"/>
        <pt x="136" y="-118" on="1"/>
        <pt x="145" y="-118" on="0"/>
        <pt x="168" y="-115" on="0"/>
        <pt x="182" y="-111" on="1"/>
        <pt x="172" y="-191" on="1"/>
        <pt x="156" y="-197" on="0"/>
        <pt x="112" y="-204" on="0"/>
        <pt x="92" y="-204" on="1"/>
        <pt x="41" y="-204" on="0"/>
        <pt x="-8" y="-165" on="0"/>
        <pt x="-8" y="-134" on="1"/>
        <pt x="-8" y="-100" on="0"/>
        <pt x="51" y="-30" on="0"/>
        <pt x="102" y="0" on="1"/>
        <pt x="78" y="0" on="1"/>
      </contour>
    </TTGlyph>
    <TTGlyph name="Iota" xMin="78" yMin="0" xMax="370" yMax="693">
      <component glyphName="I" x="0" y="0" flags="0x204"/>
    </TTGlyph>
    <TTGlyph name="Iotadieresis" xMin="78" yMin="0" xMax="510" yMax="902">
      <component glyphName="I" x="0" y="0" flags="0x204"/>
      <component glyphName="dieresis" x="-14" y="158" flags="0x4"/>
    </TTGlyph>
    <TTGlyph name="Iotatonos" xMin="89" yMin="0" xMax="462" yMax="723">
      <component glyphName="I" x="92" y="0" flags="0x4"/>
      <component glyphName="tonos.cap" x="-84" y="0" flags="0x4"/>
    </TTGlyph>
    <TTGlyph name="Itilde" xMin="78" yMin="0" xMax="518" yMax="905">
      <component glyphName="I" x="0" y="0" flags="0x204"/>
      <component glyphName="tilde" x="70" y="159" flags="0x4"/>
    </TTGlyph>
    <TTGlyph name="J" xMin="21" yMin="-15" xMax="583" yMax="693">
      <contour>
        <pt x="469" y="216" on="1"/>
        <pt x="457" y="166" on="0"/>
        <pt x="422" y="81" on="0"/>
        <pt x="362" y="20" on="0"/>
        <pt x="271" y="-15" on="0"/>
        <pt x="202" y="-15" on="1"/>
        <pt x="141" y="-15" on="0"/>
        <pt x="47" y="24" on="0"/>
        <pt x="21" y="47" on="1"/>
        <pt x="79" y="142" on="1"/>
        <pt x="99" y="125" on="0"/>
        <pt x="159" y="94" on="0"/>
        <pt x="204" y="94" on="1"/>
        <pt x="235" y="94" on="0"/>
        <pt x="281" y="109" on="0"/>
        <pt x="314" y="143" on="0"/>
        <pt x="338" y="197" on="0"/>
        <pt x="347" y="236" on="1"/>
        <pt x="456" y="693" on="1"/>
        <pt x="583" y="693" on="1"/>
      </contour>
    </TTGlyph>
    <TTGlyph name="Jcircumflex" xMin="21" yMin="-15" xMax="678" yMax="945">
      <component glyphName="J" x="0" y="0" flags="0x204"/>
      <component glyphName="circumflex" x="266" y="161" flags="0x4"/>
    </TTGlyph>
    <TTGlyph name="K" xMin="78" yMin="0" xMax="773" yMax="693">
      <contour>
        <pt x="494" y="0" on="1"/>
        <pt x="474" y="40" on="0"/>
        <pt x="425" y="127" on="0"/>
        <pt x="370" y="210" on="0"/>
        <pt x="309" y="284" on="0"/>
        <pt x="279" y="312" on="1"/>
        <pt x="204" y="0" on="1"/>
        <pt x="78" y="0" on="1"/>
        <pt x="244" y="693" on="1"/>
        <pt x="370" y="693" on="1"/>
        <pt x="303" y="416" on="1"/>
        <pt x="344" y="449" on="0"/>
        <pt x="432" y="523" on="0"/>
        <pt x="516" y="597" on="0"/>
        <pt x="591" y="665" on="0"/>
        <pt x="620" y="693" on="1"/>
        <pt x="773" y="693" on="1"/>
        <pt x="732" y="655" on="0"/>
        <pt x="639" y="571" on="0"/>
        <pt x="542" y="484" on="0"/>
        <pt x="443" y="399" on="0"/>
        <pt x="395" y="361" on="1"/>
        <pt x="426" y="329" on="0"/>
        <pt x="492" y="247" on="0"/>
        <pt x="554" y="153" on="0"/>
        <pt x="610" y="51" on="0"/>
        <pt x="633" y="0" on="1"/>
      </contour>
    </TTGlyph>
    <TTGlyph name="Kappa" xMin="78" yMin="0" xMax="773" yMax="693">
      <component glyphName="K" x="0" y="0" flags="0x204"/>
    </TTGlyph>
    <TTGlyph name="Kcommaaccent" xMin="78" yMin="-201" xMax="773" yMax="693">
      <component glyphName="K" x="0" y="0" flags="0x204"/>
      <component glyphName="commaaccent" x="198" y="0" flags="0x4"/>
    </TTGlyph>
    <TTGlyph name="L" xMin="78" yMin="0" xMax="536" yMax="693">
      <contour>
        <pt x="536" y="106" on="1"/>
        <pt x="511" y="0" on="1"/>
        <pt x="78" y="0" on="1"/>
        <pt x="244" y="693" on="1"/>
        <pt x="370" y="693" on="1"/>
        <pt x="229" y="106" on="1"/>
      </contour>
    </TTGlyph>
    <TTGlyph name="Lacute" xMin="78" yMin="0" xMax="536" yMax="954">
      <component glyphName="L" x="0" y="0" flags="0x204"/>
      <component glyphName="acute" x="113" y="162" flags="0x4"/>
    </TTGlyph>
    <TTGlyph name="Lambda" xMin="7" yMin="0" xMax="644" yMax="693">
      <contour>
        <pt x="140" y="0" on="1"/>
        <pt x="7" y="0" on="1"/>
        <pt x="64" y="106" on="0"/>
        <pt x="168" y="291" on="0"/>
        <pt x="270" y="458" on="0"/>
        <pt x="373" y="615" on="0"/>
        <pt x="428" y="693" on="1"/>
        <pt x="547" y="693" on="1"/>
        <pt x="564" y="612" on="0"/>
        <pt x="591" y="453" on="0"/>
        <pt x="614" y="286" on="0"/>
        <pt x="634" y="104" on="0"/>
        <pt x="644" y="0" on="1"/>
        <pt x="515" y="0" on="1"/>
        <pt x="508" y="89" on="0"/>
        <pt x="494" y="238" on="0"/>
        <pt x="481" y="369" on="0"/>
        <pt x="466" y="486" on="0"/>
        <pt x="457" y="542" on="1"/>
        <pt x="418" y="486" on="0"/>
        <pt x="336" y="355" on="0"/>
        <pt x="255" y="215" on="0"/>
        <pt x="176" y="70" on="0"/>
      </contour>
    </TTGlyph>
    <TTGlyph name="Lcaron" xMin="78" yMin="0" xMax="568" yMax="694">
      <component glyphName="L" x="0" y="0" flags="0x204"/>
      <component glyphName="caron.alt" x="253" y="-82" flags="0x4"/>
    </TTGlyph>
    <TTGlyph name="Lcommaaccent" xMin="78" yMin="-201" xMax="536" yMax="693">
      <component glyphName="L" x="0" y="0" flags="0x204"/>
      <component glyphName="commaaccent" x="161" y="0" flags="0x4"/>
    </TTGlyph>
    <TTGlyph name="Ldot" xMin="78" yMin="0" xMax="567" yMax="693">
      <component glyphName="L" x="0" y="0" flags="0x204"/>
      <component glyphName="dotaccent" x="272" y="-305" flags="0x4"/>
    </TTGlyph>
    <TTGlyph name="Lslash" xMin="70" yMin="0" xMax="559" yMax="693">
      <contour>
        <pt x="70" y="320" on="1"/>
        <pt x="191" y="376" on="1"/>
        <pt x="267" y="693" on="1"/>
        <pt x="393" y="693" on="1"/>
        <pt x="331" y="436" on="1"/>
        <pt x="460" y="496" on="1"/>
        <pt x="481" y="411" on="1"/>
        <pt x="306" y="330" on="1"/>
        <pt x="252" y="106" on="1"/>
        <pt x="559" y="106" on="1"/>
        <pt x="534" y="0" on="1"/>
        <pt x="101" y="0" on="1"/>
        <pt x="165" y="268" on="1"/>
        <pt x="90" y="235" on="1"/>
      </contour>
    </TTGlyph>
    <TTGlyph name="M" xMin="61" yMin="0" xMax="907" yMax="693">
      <contour>
        <pt x="396" y="693" on="1"/>
        <pt x="405" y="658" on="0"/>
        <pt x="428" y="547" on="0"/>
        <pt x="451" y="421" on="0"/>
        <pt x="474" y="293" on="0"/>
        <pt x="483" y="241" on="1"/>
        <pt x="517" y="294" on="0"/>
        <pt x="600" y="420" on="0"/>
        <pt x="683" y="544" on="0"/>
        <pt x="760" y="655" on="0"/>
        <pt x="788" y="693" on="1"/>
        <pt x="907" y="693" on="1"/>
        <pt x="899" y="617" on="0"/>
        <pt x="877" y="445" on="0"/>
        <pt x="848" y="265" on="0"/>
        <pt x="816" y="84" on="0"/>
        <pt x="800" y="0" on="1"/>
        <pt x="675" y="0" on="1"/>
        <pt x="701" y="121" on="0"/>
        <pt x="749" y="376" on="0"/>
        <pt x="769" y="501" on="1"/>
        <pt x="752" y="477" on="0"/>
        <pt x="708" y="409" on="0"/>
        <pt x="658" y="334" on="0"/>
        <pt x="606" y="254" on="0"/>
        <pt x="557" y="179" on="0"/>
        <pt x="515" y="115" on="0"/>
        <pt x="500" y="92" on="1"/>
        <pt x="403" y="92" on="1"/>
        <pt x="398" y="125" on="0"/>
        <pt x="380" y="233" on="0"/>
        <pt x="358" y="352" on="0"/>
        <pt x="337" y="465" on="0"/>
        <pt x="329" y="502" on="1"/>
        <pt x="288" y="377" on="0"/>
        <pt x="217" y="120" on="0"/>
        <pt x="185" y="0" on="1"/>
        <pt x="61" y="0" on="1"/>
        <pt x="85" y="86" on="0"/>
        <pt x="139" y="270" on="0"/>
        <pt x="196" y="451" on="0"/>
        <pt x="252" y="621" on="0"/>
        <pt x="278" y="693" on="1"/>
      </contour>
    </TTGlyph>
    <TTGlyph name="Mu" xMin="61" yMin="0" xMax="907" yMax="693">
      <component glyphName="M" x="0" y="0" flags="0x204"/>
    </TTGlyph>
    <TTGlyph name="N" xMin="78" yMin="0" xMax="802" yMax="693">
      <contour>
        <pt x="535" y="0" on="1"/>
        <pt x="516" y="58" on="0"/>
        <pt x="467" y="192" on="0"/>
        <pt x="412" y="326" on="0"/>
        <pt x="353" y="453" on="0"/>
        <pt x="323" y="506" on="1"/>
        <pt x="202" y="0" on="1"/>
        <pt x="78" y="0" on="1"/>
        <pt x="244" y="693" on="1"/>
        <pt x="345" y="693" on="1"/>
        <pt x="373" y="648" on="0"/>
        <pt x="434" y="532" on="0"/>
        <pt x="492" y="405" on="0"/>
        <pt x="546" y="277" on="0"/>
        <pt x="566" y="220" on="1"/>
        <pt x="677" y="693" on="1"/>
        <pt x="802" y="693" on="1"/>
        <pt x="636" y="0" on="1"/>
      </contour>
    </TTGlyph>
    <TTGlyph name="Nacute" xMin="78" yMin="0" xMax="802" yMax="954">
      <component glyphName="N" x="0" y="0" flags="0x204"/>
      <component glyphName="acute" x="309" y="162" flags="0x4"/>
    </TTGlyph>
    <TTGlyph name="Ncaron" xMin="78" yMin="0" xMax="802" yMax="948">
      <component glyphName="N" x="0" y="0" flags="0x204"/>
      <component glyphName="caron" x="261" y="158" flags="0x4"/>
    </TTGlyph>
    <TTGlyph name="Ncommaaccent" xMin="78" yMin="-201" xMax="802" yMax="693">
      <component glyphName="N" x="0" y="0" flags="0x204"/>
      <component glyphName="commaaccent" x="215" y="0" flags="0x4"/>
    </TTGlyph>
    <TTGlyph name="Ntilde" xMin="78" yMin="0" xMax="802" yMax="905">
      <component glyphName="N" x="0" y="0" flags="0x204"/>
      <component glyphName="tilde" x="283" y="159" flags="0x4"/>
    </TTGlyph>
    <TTGlyph name="Nu" xMin="78" yMin="0" xMax="802" yMax="693">
      <component glyphName="N" x="0" y="0" flags="0x204"/>
    </TTGlyph>
    <TTGlyph name="O" xMin="121" yMin="-15" xMax="783" yMax="709">
      <contour>
        <pt x="505" y="600" on="1"/>
        <pt x="448" y="600" on="0"/>
        <pt x="355" y="543" on="0"/>
        <pt x="289" y="451" on="0"/>
        <pt x="252" y="334" on="0"/>
        <pt x="252" y="274" on="1"/>
        <pt x="252" y="192" on="0"/>
        <pt x="322" y="94" on="0"/>
        <pt x="399" y="94" on="1"/>
        <pt x="456" y="94" on="0"/>
        <pt x="550" y="151" on="0"/>
        <pt x="616" y="243" on="0"/>
        <pt x="653" y="360" on="0"/>
        <pt x="653" y="420" on="1"/>
        <pt x="653" y="502" on="0"/>
        <pt x="582" y="600" on="0"/>
      </contour>
      <contour>
        <pt x="386" y="-15" on="1"/>
        <pt x="328" y="-15" on="0"/>
        <pt x="231" y="22" on="0"/>
        <pt x="160" y="92" on="0"/>
        <pt x="121" y="196" on="0"/>
        <pt x="121" y="263" on="1"/>
        <pt x="121" y="343" on="0"/>
        <pt x="173" y="503" on="0"/>
        <pt x="274" y="630" on="0"/>
        <pt x="422" y="709" on="0"/>
        <pt x="518" y="709" on="1"/>
        <pt x="576" y="709" on="0"/>
        <pt x="674" y="672" on="0"/>
        <pt x="744" y="602" on="0"/>
        <pt x="783" y="498" on="0"/>
        <pt x="783" y="431" on="1"/>
        <pt x="783" y="351" on="0"/>
        <pt x="731" y="191" on="0"/>
        <pt x="631" y="64" on="0"/>
        <pt x="482" y="-15" on="0"/>
      </contour>
    </TTGlyph>
    <TTGlyph name="OE" xMin="121" yMin="-8" xMax="1070" yMax="700">
      <contour>
        <pt x="538" y="0" on="1"/>
        <pt x="515" y="-4" on="0"/>
        <pt x="460" y="-8" on="0"/>
        <pt x="431" y="-8" on="1"/>
        <pt x="363" y="-8" on="0"/>
        <pt x="249" y="23" on="0"/>
        <pt x="167" y="90" on="0"/>
        <pt x="121" y="195" on="0"/>
        <pt x="121" y="268" on="1"/>
        <pt x="121" y="362" on="0"/>
        <pt x="183" y="521" on="0"/>
        <pt x="301" y="636" on="0"/>
        <pt x="475" y="700" on="0"/>
        <pt x="587" y="700" on="1"/>
        <pt x="613" y="700" on="0"/>
        <pt x="660" y="697" on="0"/>
        <pt x="692" y="693" on="1"/>
        <pt x="1070" y="693" on="1"/>
        <pt x="1044" y="587" on="1"/>
        <pt x="753" y="587" on="1"/>
        <pt x="712" y="414" on="1"/>
        <pt x="968" y="414" on="1"/>
        <pt x="943" y="311" on="1"/>
        <pt x="687" y="311" on="1"/>
        <pt x="638" y="106" on="1"/>
        <pt x="952" y="106" on="1"/>
        <pt x="927" y="0" on="1"/>
      </contour>
      <contour>
        <pt x="560" y="594" on="1"/>
        <pt x="485" y="594" on="0"/>
        <pt x="370" y="541" on="0"/>
        <pt x="291" y="453" on="0"/>
        <pt x="251" y="336" on="0"/>
        <pt x="251" y="273" on="1"/>
        <pt x="251" y="234" on="0"/>
        <pt x="273" y="170" on="0"/>
        <pt x="319" y="124" on="0"/>
        <pt x="390" y="98" on="0"/>
        <pt x="439" y="98" on="1"/>
        <pt x="459" y="98" on="0"/>
        <pt x="498" y="101" on="0"/>
        <pt x="514" y="103" on="1"/>
        <pt x="630" y="589" on="1"/>
        <pt x="622" y="591" on="0"/>
        <pt x="583" y="594" on="0"/>
      </contour>
    </TTGlyph>
    <TTGlyph name="Oacute" xMin="121" yMin="-15" xMax="783" yMax="954">
      <component glyphName="O" x="0" y="0" flags="0x204"/>
      <component glyphName="acute" x="297" y="162" flags="0x4"/>
    </TTGlyph>
    <TTGlyph name="Obreve" xMin="121" yMin="-15" xMax="783" yMax="910">
      <component glyphName="O" x="0" y="0" flags="0x204"/>
      <component glyphName="breve" x="267" y="154" flags="0x4"/>
    </TTGlyph>
    <TTGlyph name="Ocircumflex" xMin="121" yMin="-15" xMax="783" yMax="945">
      <component glyphName="O" x="0" y="0" flags="0x204"/>
      <component glyphName="circumflex" x="274" y="161" flags="0x4"/>
    </TTGlyph>
    <TTGlyph name="Odieresis" xMin="121" yMin="-15" xMax="783" yMax="902">
      <component glyphName="O" x="0" y="0" flags="0x204"/>
      <component glyphName="dieresis" x="199" y="158" flags="0x4"/>
    </TTGlyph>
    <TTGlyph name="Ograve" xMin="121" yMin="-15" xMax="783" yMax="951">
      <component glyphName="O" x="0" y="0" flags="0x204"/>
      <component glyphName="grave" x="283" y="162" flags="0x4"/>
    </TTGlyph>
    <TTGlyph name="Ohorn" xMin="121" yMin="-15" xMax="873" yMax="801">
      <contour>
        <pt x="386" y="-15" on="1"/>
        <pt x="328" y="-15" on="0"/>
        <pt x="231" y="22" on="0"/>
        <pt x="160" y="92" on="0"/>
        <pt x="121" y="196" on="0"/>
        <pt x="121" y="263" on="1"/>
        <pt x="121" y="343" on="0"/>
        <pt x="173" y="503" on="0"/>
        <pt x="274" y="630" on="0"/>
        <pt x="422" y="709" on="0"/>
        <pt x="518" y="709" on="1"/>
        <pt x="622" y="709" on="0"/>
        <pt x="690" y="653" on="1"/>
        <pt x="711" y="669" on="0"/>
        <pt x="736" y="707" on="0"/>
        <pt x="750" y="745" on="0"/>
        <pt x="756" y="783" on="0"/>
        <pt x="758" y="801" on="1"/>
        <pt x="873" y="801" on="1"/>
        <pt x="868" y="735" on="0"/>
        <pt x="805" y="624" on="0"/>
        <pt x="747" y="586" on="1"/>
        <pt x="764" y="554" on="0"/>
        <pt x="783" y="477" on="0"/>
        <pt x="783" y="431" on="1"/>
        <pt x="783" y="351" on="0"/>
        <pt x="731" y="191" on="0"/>
        <pt x="631" y="64" on="0"/>
        <pt x="482" y="-15" on="0"/>
      </contour>
      <contour>
        <pt x="505" y="600" on="1"/>
        <pt x="448" y="600" on="0"/>
        <pt x="355" y="543" on="0"/>
        <pt x="289" y="451" on="0"/>
        <pt x="252" y="334" on="0"/>
        <pt x="252" y="274" on="1"/>
        <pt x="252" y="192" on="0"/>
        <pt x="322" y="94" on="0"/>
        <pt x="399" y="94" on="1"/>
        <pt x="456" y="94" on="0"/>
        <pt x="550" y="151" on="0"/>
        <pt x="616" y="243" on="0"/>
        <pt x="653" y="360" on="0"/>
        <pt x="653" y="420" on="1"/>
        <pt x="653" y="502" on="0"/>
        <pt x="582" y="600" on="0"/>
      </contour>
    </TTGlyph>
    <TTGlyph name="Ohungarumlaut" xMin="121" yMin="-15" xMax="815" yMax="945">
      <component glyphName="O" x="0" y="0" flags="0x204"/>
      <component glyphName="hungarumlaut" x="315" y="159" flags="0x4"/>
    </TTGlyph>
    <TTGlyph name="Omacron" xMin="121" yMin="-15" xMax="783" yMax="872">
      <component glyphName="O" x="0" y="0" flags="0x204"/>
      <component glyphName="macron" x="223" y="154" flags="0x4"/>
    </TTGlyph>
    <TTGlyph name="Omega" xMin="52" yMin="0" xMax="802" yMax="709">
      <contour>
        <pt x="615" y="102" on="1"/>
        <pt x="743" y="102" on="1"/>
        <pt x="719" y="0" on="1"/>
        <pt x="440" y="0" on="1"/>
        <pt x="462" y="92" on="1"/>
        <pt x="506" y="122" on="0"/>
        <pt x="582" y="201" on="0"/>
        <pt x="639" y="292" on="0"/>
        <pt x="672" y="391" on="0"/>
        <pt x="672" y="440" on="1"/>
        <pt x="672" y="520" on="0"/>
        <pt x="590" y="600" on="0"/>
        <pt x="512" y="600" on="1"/>
        <pt x="455" y="600" on="0"/>
        <pt x="363" y="554" on="0"/>
        <pt x="299" y="474" on="0"/>
        <pt x="264" y="366" on="0"/>
        <pt x="264" y="305" on="1"/>
        <pt x="264" y="232" on="0"/>
        <pt x="309" y="128" on="0"/>
        <pt x="344" y="92" on="1"/>
        <pt x="322" y="0" on="1"/>
        <pt x="52" y="0" on="1"/>
        <pt x="77" y="102" on="1"/>
        <pt x="208" y="102" on="1"/>
        <pt x="140" y="198" on="0"/>
        <pt x="140" y="317" on="1"/>
        <pt x="140" y="405" on="0"/>
        <pt x="198" y="550" on="0"/>
        <pt x="302" y="653" on="0"/>
        <pt x="444" y="709" on="0"/>
        <pt x="528" y="709" on="1"/>
        <pt x="585" y="709" on="0"/>
        <pt x="685" y="677" on="0"/>
        <pt x="759" y="612" on="0"/>
        <pt x="802" y="515" on="0"/>
        <pt x="802" y="451" on="1"/>
        <pt x="802" y="347" on="0"/>
        <pt x="700" y="168" on="0"/>
      </contour>
    </TTGlyph>
    <TTGlyph name="Omegatonos" xMin="89" yMin="0" xMax="867" yMax="723">
      <component glyphName="Omega" x="65" y="0" flags="0x4"/>
      <component glyphName="tonos.cap" x="-84" y="0" flags="0x4"/>
    </TTGlyph>
    <TTGlyph name="Omicron" xMin="121" yMin="-15" xMax="783" yMax="709">
      <component glyphName="O" x="0" y="0" flags="0x204"/>
    </TTGlyph>
    <TTGlyph name="Omicrontonos" xMin="89" yMin="-15" xMax="857" yMax="723">
      <component glyphName="O" x="74" y="0" flags="0x4"/>
      <component glyphName="tonos.cap" x="-84" y="0" flags="0x4"/>
    </TTGlyph>
    <TTGlyph name="Oslash" xMin="104" yMin="-41" xMax="806" yMax="734">
      <contour>
        <pt x="390" y="-15" on="1"/>
        <pt x="298" y="-15" on="0"/>
        <pt x="233" y="29" on="1"/>
        <pt x="172" y="-41" on="1"/>
        <pt x="104" y="12" on="1"/>
        <pt x="172" y="89" on="1"/>
        <pt x="149" y="123" on="0"/>
        <pt x="125" y="209" on="0"/>
        <pt x="125" y="263" on="1"/>
        <pt x="125" y="343" on="0"/>
        <pt x="177" y="503" on="0"/>
        <pt x="278" y="630" on="0"/>
        <pt x="426" y="709" on="0"/>
        <pt x="522" y="709" on="1"/>
        <pt x="567" y="709" on="0"/>
        <pt x="646" y="686" on="0"/>
        <pt x="678" y="665" on="1"/>
        <pt x="739" y="734" on="1"/>
        <pt x="806" y="681" on="1"/>
        <pt x="739" y="605" on="1"/>
        <pt x="762" y="571" on="0"/>
        <pt x="787" y="485" on="0"/>
        <pt x="787" y="431" on="1"/>
        <pt x="787" y="351" on="0"/>
        <pt x="735" y="191" on="0"/>
        <pt x="635" y="64" on="0"/>
        <pt x="486" y="-15" on="0"/>
      </contour>
      <contour>
        <pt x="657" y="420" on="1"/>
        <pt x="657" y="466" on="0"/>
        <pt x="647" y="499" on="1"/>
        <pt x="313" y="120" on="1"/>
        <pt x="348" y="94" on="0"/>
        <pt x="403" y="94" on="1"/>
        <pt x="460" y="94" on="0"/>
        <pt x="554" y="151" on="0"/>
        <pt x="620" y="243" on="0"/>
        <pt x="657" y="360" on="0"/>
      </contour>
      <contour>
        <pt x="509" y="600" on="1"/>
        <pt x="452" y="600" on="0"/>
        <pt x="359" y="543" on="0"/>
        <pt x="293" y="451" on="0"/>
        <pt x="256" y="334" on="0"/>
        <pt x="256" y="274" on="1"/>
        <pt x="256" y="228" on="0"/>
        <pt x="266" y="195" on="1"/>
        <pt x="598" y="574" on="1"/>
        <pt x="564" y="600" on="0"/>
      </contour>
    </TTGlyph>
    <TTGlyph name="Oslashacute" xMin="104" yMin="-41" xMax="806" yMax="954">
      <component glyphName="Oslash" x="0" y="0" flags="0x204"/>
      <component glyphName="acute" x="337" y="162" flags="0x4"/>
    </TTGlyph>
    <TTGlyph name="Otilde" xMin="121" yMin="-15" xMax="783" yMax="905">
      <component glyphName="O" x="0" y="0" flags="0x204"/>
      <component glyphName="tilde" x="280" y="159" flags="0x4"/>
    </TTGlyph>
    <TTGlyph name="P" xMin="78" yMin="0" xMax="685" yMax="700">
      <contour>
        <pt x="427" y="700" on="1"/>
        <pt x="552" y="700" on="0"/>
        <pt x="685" y="602" on="0"/>
        <pt x="685" y="511" on="1"/>
        <pt x="685" y="439" on="0"/>
        <pt x="630" y="338" on="0"/>
        <pt x="533" y="274" on="0"/>
        <pt x="398" y="245" on="0"/>
        <pt x="317" y="245" on="1"/>
        <pt x="263" y="245" on="1"/>
        <pt x="204" y="0" on="1"/>
        <pt x="78" y="0" on="1"/>
        <pt x="241" y="683" on="1"/>
        <pt x="289" y="693" on="0"/>
        <pt x="385" y="700" on="0"/>
      </contour>
      <contour>
        <pt x="415" y="594" on="1"/>
        <pt x="396" y="594" on="0"/>
        <pt x="362" y="592" on="0"/>
        <pt x="345" y="590" on="1"/>
        <pt x="288" y="351" on="1"/>
        <pt x="339" y="351" on="1"/>
        <pt x="381" y="351" on="0"/>
        <pt x="459" y="365" on="0"/>
        <pt x="519" y="398" on="0"/>
        <pt x="555" y="455" on="0"/>
        <pt x="555" y="499" on="1"/>
        <pt x="555" y="550" on="0"/>
        <pt x="480" y="594" on="0"/>
      </contour>
    </TTGlyph>
    <TTGlyph name="Parenleft" xMin="134" yMin="-137" xMax="518" yMax="829">
      <component glyphName="parenleft" x="11" y="46" flags="0x214"/>
    </TTGlyph>
    <TTGlyph name="Parenright" xMin="-42" yMin="-137" xMax="342" yMax="829">
      <component glyphName="parenright" x="11" y="48" flags="0x214"/>
    </TTGlyph>
    <TTGlyph name="Phi" xMin="121" yMin="0" xMax="874" yMax="738">
      <component glyphName="afii10038" x="0" y="0" flags="0x204"/>
    </TTGlyph>
    <TTGlyph name="Pi" xMin="78" yMin="0" xMax="773" yMax="693">
      <component glyphName="afii10033" x="0" y="0" flags="0x204"/>
    </TTGlyph>
    <TTGlyph name="Psi" xMin="161" yMin="0" xMax="904" yMax="693">
      <contour>
        <pt x="459" y="0" on="1"/>
        <pt x="338" y="0" on="1"/>
        <pt x="379" y="171" on="1"/>
        <pt x="271" y="181" on="0"/>
        <pt x="161" y="284" on="0"/>
        <pt x="161" y="378" on="1"/>
        <pt x="161" y="398" on="0"/>
        <pt x="167" y="439" on="0"/>
        <pt x="172" y="462" on="1"/>
        <pt x="227" y="693" on="1"/>
        <pt x="350" y="693" on="1"/>
        <pt x="298" y="477" on="1"/>
        <pt x="284" y="421" on="0"/>
        <pt x="284" y="384" on="1"/>
        <pt x="284" y="334" on="0"/>
        <pt x="334" y="281" on="0"/>
        <pt x="403" y="276" on="1"/>
        <pt x="503" y="693" on="1"/>
        <pt x="626" y="693" on="1"/>
        <pt x="526" y="276" on="1"/>
        <pt x="611" y="280" on="0"/>
        <pt x="705" y="372" on="0"/>
        <pt x="728" y="471" on="1"/>
        <pt x="782" y="693" on="1"/>
        <pt x="904" y="693" on="1"/>
        <pt x="847" y="456" on="1"/>
        <pt x="832" y="393" on="0"/>
        <pt x="785" y="290" on="0"/>
        <pt x="706" y="215" on="0"/>
        <pt x="587" y="173" on="0"/>
        <pt x="500" y="171" on="1"/>
      </contour>
    </TTGlyph>
    <TTGlyph name="Q" xMin="121" yMin="-187" xMax="783" yMax="709">
      <contour>
        <pt x="594" y="-187" on="1"/>
        <pt x="536" y="-183" on="0"/>
        <pt x="440" y="-161" on="0"/>
        <pt x="371" y="-122" on="0"/>
        <pt x="333" y="-62" on="0"/>
        <pt x="333" y="-20" on="1"/>
        <pt x="333" y="-19" on="0"/>
        <pt x="333" y="-15" on="0"/>
        <pt x="334" y="-10" on="1"/>
        <pt x="286" y="-3" on="0"/>
        <pt x="207" y="40" on="0"/>
        <pt x="152" y="109" on="0"/>
        <pt x="121" y="204" on="0"/>
        <pt x="121" y="263" on="1"/>
        <pt x="121" y="343" on="0"/>
        <pt x="173" y="503" on="0"/>
        <pt x="274" y="630" on="0"/>
        <pt x="422" y="709" on="0"/>
        <pt x="518" y="709" on="1"/>
        <pt x="576" y="709" on="0"/>
        <pt x="674" y="672" on="0"/>
        <pt x="744" y="602" on="0"/>
        <pt x="783" y="498" on="0"/>
        <pt x="783" y="431" on="1"/>
        <pt x="783" y="358" on="0"/>
        <pt x="740" y="213" on="0"/>
        <pt x="657" y="91" on="0"/>
        <pt x="533" y="4" on="0"/>
        <pt x="452" y="-9" on="1"/>
        <pt x="451" y="-12" on="0"/>
        <pt x="451" y="-17" on="1"/>
        <pt x="451" y="-38" on="0"/>
        <pt x="481" y="-65" on="0"/>
        <pt x="532" y="-82" on="0"/>
        <pt x="598" y="-91" on="0"/>
        <pt x="634" y="-94" on="1"/>
      </contour>
      <contour>
        <pt x="505" y="600" on="1"/>
        <pt x="448" y="600" on="0"/>
        <pt x="355" y="543" on="0"/>
        <pt x="289" y="451" on="0"/>
        <pt x="252" y="334" on="0"/>
        <pt x="252" y="274" on="1"/>
        <pt x="252" y="192" on="0"/>
        <pt x="322" y="94" on="0"/>
        <pt x="399" y="94" on="1"/>
        <pt x="456" y="94" on="0"/>
        <pt x="550" y="151" on="0"/>
        <pt x="616" y="243" on="0"/>
        <pt x="653" y="360" on="0"/>
        <pt x="653" y="420" on="1"/>
        <pt x="653" y="502" on="0"/>
        <pt x="582" y="600" on="0"/>
      </contour>
    </TTGlyph>
    <TTGlyph name="Questiondown" xMin="79" yMin="-12" xMax="471" yMax="703">
      <component glyphName="questiondown" x="43" y="180" flags="0x214"/>
    </TTGlyph>
    <TTGlyph name="R" xMin="78" yMin="0" xMax="682" yMax="700">
      <contour>
        <pt x="429" y="700" on="1"/>
        <pt x="553" y="700" on="0"/>
        <pt x="682" y="597" on="0"/>
        <pt x="682" y="512" on="1"/>
        <pt x="682" y="474" on="0"/>
        <pt x="661" y="405" on="0"/>
        <pt x="616" y="346" on="0"/>
        <pt x="545" y="300" on="0"/>
        <pt x="495" y="285" on="1"/>
        <pt x="508" y="262" on="0"/>
        <pt x="538" y="197" on="0"/>
        <pt x="570" y="122" on="0"/>
        <pt x="600" y="40" on="0"/>
        <pt x="612" y="0" on="1"/>
        <pt x="479" y="0" on="1"/>
        <pt x="467" y="36" on="0"/>
        <pt x="441" y="110" on="0"/>
        <pt x="413" y="179" on="0"/>
        <pt x="384" y="240" on="0"/>
        <pt x="370" y="264" on="1"/>
        <pt x="361" y="263" on="0"/>
        <pt x="335" y="263" on="0"/>
        <pt x="325" y="263" on="1"/>
        <pt x="267" y="263" on="1"/>
        <pt x="204" y="0" on="1"/>
        <pt x="78" y="0" on="1"/>
        <pt x="241" y="683" on="1"/>
        <pt x="289" y="693" on="0"/>
        <pt x="388" y="700" on="0"/>
      </contour>
      <contour>
        <pt x="554" y="498" on="1"/>
        <pt x="554" y="553" on="0"/>
        <pt x="474" y="594" on="0"/>
        <pt x="407" y="594" on="1"/>
        <pt x="393" y="594" on="0"/>
        <pt x="361" y="592" on="0"/>
        <pt x="345" y="590" on="1"/>
        <pt x="291" y="364" on="1"/>
        <pt x="347" y="364" on="1"/>
        <pt x="392" y="364" on="0"/>
        <pt x="468" y="379" on="0"/>
        <pt x="523" y="411" on="0"/>
        <pt x="554" y="462" on="0"/>
      </contour>
    </TTGlyph>
    <TTGlyph name="Racute" xMin="78" yMin="0" xMax="682" yMax="954">
      <component glyphName="R" x="0" y="0" flags="0x204"/>
      <component glyphName="acute" x="236" y="162" flags="0x4"/>
    </TTGlyph>
    <TTGlyph name="Rcaron" xMin="78" yMin="0" xMax="682" yMax="948">
      <component glyphName="R" x="0" y="0" flags="0x204"/>
      <component glyphName="caron" x="198" y="158" flags="0x4"/>
    </TTGlyph>
    <TTGlyph name="Rcommaaccent" xMin="78" yMin="-201" xMax="682" yMax="700">
      <component glyphName="R" x="0" y="0" flags="0x204"/>
      <component glyphName="commaaccent" x="187" y="0" flags="0x4"/>
    </TTGlyph>
    <TTGlyph name="Rho" xMin="78" yMin="0" xMax="685" yMax="700">
      <component glyphName="P" x="0" y="0" flags="0x204"/>
    </TTGlyph>
    <TTGlyph name="S" xMin="36" yMin="-15" xMax="612" yMax="709">
      <contour>
        <pt x="255" y="92" on="1"/>
        <pt x="282" y="92" on="0"/>
        <pt x="335" y="102" on="0"/>
        <pt x="378" y="126" on="0"/>
        <pt x="404" y="167" on="0"/>
        <pt x="404" y="198" on="1"/>
        <pt x="404" y="221" on="0"/>
        <pt x="384" y="254" on="0"/>
        <pt x="350" y="280" on="0"/>
        <pt x="307" y="303" on="0"/>
        <pt x="283" y="316" on="1"/>
        <pt x="257" y="329" on="0"/>
        <pt x="210" y="362" on="0"/>
        <pt x="174" y="404" on="0"/>
        <pt x="153" y="460" on="0"/>
        <pt x="153" y="498" on="1"/>
        <pt x="153" y="544" on="0"/>
        <pt x="188" y="621" on="0"/>
        <pt x="257" y="677" on="0"/>
        <pt x="358" y="709" on="0"/>
        <pt x="425" y="709" on="1"/>
        <pt x="456" y="709" on="0"/>
        <pt x="513" y="699" on="0"/>
        <pt x="563" y="684" on="0"/>
        <pt x="601" y="666" on="0"/>
        <pt x="612" y="658" on="1"/>
        <pt x="557" y="562" on="1"/>
        <pt x="536" y="579" on="0"/>
        <pt x="461" y="603" on="0"/>
        <pt x="416" y="603" on="1"/>
        <pt x="389" y="603" on="0"/>
        <pt x="340" y="592" on="0"/>
        <pt x="303" y="569" on="0"/>
        <pt x="282" y="532" on="0"/>
        <pt x="282" y="507" on="1"/>
        <pt x="282" y="484" on="0"/>
        <pt x="297" y="454" on="0"/>
        <pt x="324" y="431" on="0"/>
        <pt x="360" y="412" on="0"/>
        <pt x="381" y="400" on="1"/>
        <pt x="412" y="383" on="0"/>
        <pt x="467" y="349" on="0"/>
        <pt x="509" y="305" on="0"/>
        <pt x="534" y="248" on="0"/>
        <pt x="534" y="208" on="1"/>
        <pt x="534" y="152" on="0"/>
        <pt x="492" y="68" on="0"/>
        <pt x="416" y="13" on="0"/>
        <pt x="312" y="-15" on="0"/>
        <pt x="250" y="-15" on="1"/>
        <pt x="209" y="-15" on="0"/>
        <pt x="140" y="-3" on="0"/>
        <pt x="86" y="15" on="0"/>
        <pt x="47" y="35" on="0"/>
        <pt x="36" y="43" on="1"/>
        <pt x="92" y="142" on="1"/>
        <pt x="102" y="135" on="0"/>
        <pt x="135" y="117" on="0"/>
        <pt x="177" y="102" on="0"/>
        <pt x="227" y="92" on="0"/>
      </contour>
    </TTGlyph>
    <TTGlyph name="Sacute" xMin="36" yMin="-15" xMax="612" yMax="954">
      <component glyphName="S" x="0" y="0" flags="0x204"/>
      <component glyphName="acute" x="198" y="162" flags="0x4"/>
    </TTGlyph>
    <TTGlyph name="Scaron" xMin="36" yMin="-15" xMax="612" yMax="948">
      <component glyphName="S" x="0" y="0" flags="0x204"/>
      <component glyphName="caron" x="167" y="158" flags="0x4"/>
    </TTGlyph>
    <TTGlyph name="Scedilla" xMin="36" yMin="-205" xMax="612" yMax="709">
      <contour>
        <pt x="261" y="-41" on="1"/>
        <pt x="303" y="-62" on="0"/>
        <pt x="303" y="-105" on="1"/>
        <pt x="303" y="-131" on="0"/>
        <pt x="283" y="-168" on="0"/>
        <pt x="248" y="-193" on="0"/>
        <pt x="202" y="-205" on="0"/>
        <pt x="176" y="-205" on="1"/>
        <pt x="121" y="-205" on="0"/>
        <pt x="85" y="-186" on="1"/>
        <pt x="115" y="-118" on="1"/>
        <pt x="126" y="-123" on="0"/>
        <pt x="155" y="-130" on="0"/>
        <pt x="172" y="-130" on="1"/>
        <pt x="190" y="-130" on="0"/>
        <pt x="211" y="-118" on="0"/>
        <pt x="211" y="-106" on="1"/>
        <pt x="211" y="-94" on="0"/>
        <pt x="196" y="-81" on="0"/>
        <pt x="179" y="-73" on="1"/>
        <pt x="166" y="-67" on="1"/>
        <pt x="172" y="-56" on="0"/>
        <pt x="193" y="-27" on="0"/>
        <pt x="203" y="-13" on="1"/>
        <pt x="138" y="-5" on="0"/>
        <pt x="55" y="29" on="0"/>
        <pt x="36" y="43" on="1"/>
        <pt x="92" y="142" on="1"/>
        <pt x="102" y="135" on="0"/>
        <pt x="135" y="117" on="0"/>
        <pt x="177" y="102" on="0"/>
        <pt x="227" y="92" on="0"/>
        <pt x="255" y="92" on="1"/>
        <pt x="282" y="92" on="0"/>
        <pt x="335" y="102" on="0"/>
        <pt x="378" y="126" on="0"/>
        <pt x="404" y="167" on="0"/>
        <pt x="404" y="198" on="1"/>
        <pt x="404" y="221" on="0"/>
        <pt x="384" y="254" on="0"/>
        <pt x="350" y="280" on="0"/>
        <pt x="307" y="303" on="0"/>
        <pt x="283" y="316" on="1"/>
        <pt x="257" y="329" on="0"/>
        <pt x="210" y="362" on="0"/>
        <pt x="174" y="404" on="0"/>
        <pt x="153" y="460" on="0"/>
        <pt x="153" y="498" on="1"/>
        <pt x="153" y="544" on="0"/>
        <pt x="188" y="621" on="0"/>
        <pt x="257" y="677" on="0"/>
        <pt x="358" y="709" on="0"/>
        <pt x="425" y="709" on="1"/>
        <pt x="456" y="709" on="0"/>
        <pt x="513" y="699" on="0"/>
        <pt x="563" y="684" on="0"/>
        <pt x="601" y="666" on="0"/>
        <pt x="612" y="658" on="1"/>
        <pt x="557" y="562" on="1"/>
        <pt x="536" y="579" on="0"/>
        <pt x="461" y="603" on="0"/>
        <pt x="416" y="603" on="1"/>
        <pt x="389" y="603" on="0"/>
        <pt x="340" y="592" on="0"/>
        <pt x="303" y="569" on="0"/>
        <pt x="282" y="532" on="0"/>
        <pt x="282" y="507" on="1"/>
        <pt x="282" y="484" on="0"/>
        <pt x="297" y="454" on="0"/>
        <pt x="324" y="431" on="0"/>
        <pt x="360" y="412" on="0"/>
        <pt x="381" y="400" on="1"/>
        <pt x="412" y="383" on="0"/>
        <pt x="467" y="349" on="0"/>
        <pt x="509" y="305" on="0"/>
        <pt x="534" y="248" on="0"/>
        <pt x="534" y="208" on="1"/>
        <pt x="534" y="155" on="0"/>
        <pt x="497" y="75" on="0"/>
        <pt x="429" y="20" on="0"/>
        <pt x="336" y="-11" on="0"/>
        <pt x="280" y="-14" on="1"/>
        <pt x="275" y="-22" on="0"/>
        <pt x="264" y="-36" on="0"/>
      </contour>
    </TTGlyph>
    <TTGlyph name="Scircumflex" xMin="36" yMin="-15" xMax="612" yMax="945">
      <component glyphName="S" x="0" y="0" flags="0x204"/>
      <component glyphName="circumflex" x="175" y="161" flags="0x4"/>
    </TTGlyph>
    <TTGlyph name="Scommaaccent" xMin="36" yMin="-201" xMax="612" yMax="709">
      <component glyphName="S" x="0" y="0" flags="0x204"/>
      <component glyphName="commaaccent" x="108" y="0" flags="0x4"/>
    </TTGlyph>
    <TTGlyph name="Sigma" xMin="35" yMin="0" xMax="688" yMax="693">
      <contour>
        <pt x="329" y="359" on="1"/>
        <pt x="288" y="432" on="0"/>
        <pt x="218" y="566" on="0"/>
        <pt x="195" y="612" on="1"/>
        <pt x="215" y="693" on="1"/>
        <pt x="688" y="693" on="1"/>
        <pt x="663" y="587" on="1"/>
        <pt x="339" y="587" on="1"/>
        <pt x="366" y="530" on="0"/>
        <pt x="437" y="402" on="0"/>
        <pt x="472" y="342" on="1"/>
        <pt x="445" y="317" on="0"/>
        <pt x="379" y="258" on="0"/>
        <pt x="311" y="197" on="0"/>
        <pt x="244" y="134" on="0"/>
        <pt x="216" y="106" on="1"/>
        <pt x="547" y="106" on="1"/>
        <pt x="521" y="0" on="1"/>
        <pt x="35" y="0" on="1"/>
        <pt x="56" y="91" on="1"/>
        <pt x="114" y="156" on="0"/>
        <pt x="258" y="294" on="0"/>
      </contour>
    </TTGlyph>
    <TTGlyph name="Slash" xMin="-58" yMin="-138" xMax="623" yMax="830">
      <component glyphName="slash" x="11" y="47" flags="0x214"/>
    </TTGlyph>
    <TTGlyph name="T" xMin="165" yMin="0" xMax="729" yMax="693">
      <contour>
        <pt x="729" y="693" on="1"/>
        <pt x="703" y="587" on="1"/>
        <pt x="497" y="587" on="1"/>
        <pt x="356" y="0" on="1"/>
        <pt x="230" y="0" on="1"/>
        <pt x="371" y="587" on="1"/>
        <pt x="165" y="587" on="1"/>
        <pt x="190" y="693" on="1"/>
      </contour>
    </TTGlyph>
    <TTGlyph name="Tau" xMin="165" yMin="0" xMax="729" yMax="693">
      <component glyphName="T" x="0" y="0" flags="0x204"/>
    </TTGlyph>
    <TTGlyph name="Tbar" xMin="165" yMin="0" xMax="729" yMax="693">
      <contour>
        <pt x="729" y="693" on="1"/>
        <pt x="703" y="587" on="1"/>
        <pt x="497" y="587" on="1"/>
        <pt x="448" y="385" on="1"/>
        <pt x="583" y="385" on="1"/>
        <pt x="560" y="292" on="1"/>
        <pt x="426" y="292" on="1"/>
        <pt x="356" y="0" on="1"/>
        <pt x="230" y="0" on="1"/>
        <pt x="300" y="292" on="1"/>
        <pt x="168" y="292" on="1"/>
        <pt x="191" y="385" on="1"/>
        <pt x="322" y="385" on="1"/>
        <pt x="371" y="587" on="1"/>
        <pt x="165" y="587" on="1"/>
        <pt x="190" y="693" on="1"/>
      </contour>
    </TTGlyph>
    <TTGlyph name="Tcaron" xMin="165" yMin="0" xMax="729" yMax="948">
      <component glyphName="T" x="0" y="0" flags="0x204"/>
      <component glyphName="caron" x="203" y="158" flags="0x4"/>
    </TTGlyph>
    <TTGlyph name="Theta" xMin="121" yMin="-15" xMax="783" yMax="709">
      <contour>
        <pt x="505" y="600" on="1"/>
        <pt x="448" y="600" on="0"/>
        <pt x="355" y="543" on="0"/>
        <pt x="289" y="451" on="0"/>
        <pt x="252" y="334" on="0"/>
        <pt x="252" y="274" on="1"/>
        <pt x="252" y="192" on="0"/>
        <pt x="322" y="94" on="0"/>
        <pt x="399" y="94" on="1"/>
        <pt x="456" y="94" on="0"/>
        <pt x="550" y="151" on="0"/>
        <pt x="616" y="243" on="0"/>
        <pt x="653" y="360" on="0"/>
        <pt x="653" y="420" on="1"/>
        <pt x="653" y="502" on="0"/>
        <pt x="582" y="600" on="0"/>
      </contour>
      <contour>
        <pt x="386" y="-15" on="1"/>
        <pt x="328" y="-15" on="0"/>
        <pt x="231" y="22" on="0"/>
        <pt x="160" y="92" on="0"/>
        <pt x="121" y="196" on="0"/>
        <pt x="121" y="263" on="1"/>
        <pt x="121" y="343" on="0"/>
        <pt x="173" y="503" on="0"/>
        <pt x="274" y="630" on="0"/>
        <pt x="422" y="709" on="0"/>
        <pt x="518" y="709" on="1"/>
        <pt x="576" y="709" on="0"/>
        <pt x="674" y="672" on="0"/>
        <pt x="744" y="602" on="0"/>
        <pt x="783" y="498" on="0"/>
        <pt x="783" y="431" on="1"/>
        <pt x="783" y="351" on="0"/>
        <pt x="731" y="191" on="0"/>
        <pt x="631" y="64" on="0"/>
        <pt x="482" y="-15" on="0"/>
      </contour>
      <contour>
        <pt x="340" y="400" on="1"/>
        <pt x="591" y="400" on="1"/>
        <pt x="566" y="296" on="1"/>
        <pt x="315" y="296" on="1"/>
      </contour>
    </TTGlyph>
    <TTGlyph name="Thorn" xMin="77" yMin="0" xMax="665" yMax="693">
      <contour>
        <pt x="370" y="693" on="1"/>
        <pt x="344" y="586" on="1"/>
        <pt x="361" y="588" on="0"/>
        <pt x="407" y="589" on="0"/>
        <pt x="424" y="589" on="1"/>
        <pt x="485" y="589" on="0"/>
        <pt x="576" y="561" on="0"/>
        <pt x="636" y="512" on="0"/>
        <pt x="665" y="443" on="0"/>
        <pt x="665" y="403" on="1"/>
        <pt x="665" y="346" on="0"/>
        <pt x="620" y="248" on="0"/>
        <pt x="529" y="176" on="0"/>
        <pt x="394" y="135" on="0"/>
        <pt x="304" y="135" on="1"/>
        <pt x="235" y="135" on="1"/>
        <pt x="203" y="0" on="1"/>
        <pt x="77" y="0" on="1"/>
        <pt x="243" y="693" on="1"/>
      </contour>
      <contour>
        <pt x="392" y="482" on="1"/>
        <pt x="365" y="482" on="0"/>
        <pt x="329" y="480" on="0"/>
        <pt x="318" y="478" on="1"/>
        <pt x="261" y="242" on="1"/>
        <pt x="317" y="242" on="1"/>
        <pt x="359" y="242" on="0"/>
        <pt x="438" y="255" on="0"/>
        <pt x="498" y="290" on="0"/>
        <pt x="535" y="349" on="0"/>
        <pt x="535" y="394" on="1"/>
        <pt x="535" y="443" on="0"/>
        <pt x="458" y="482" on="0"/>
      </contour>
    </TTGlyph>
    <TTGlyph name="U" xMin="129" yMin="-15" xMax="765" yMax="693">
      <contour>
        <pt x="660" y="255" on="1"/>
        <pt x="645" y="191" on="0"/>
        <pt x="599" y="91" on="0"/>
        <pt x="526" y="22" on="0"/>
        <pt x="421" y="-15" on="0"/>
        <pt x="347" y="-15" on="1"/>
        <pt x="289" y="-15" on="0"/>
        <pt x="206" y="16" on="0"/>
        <pt x="154" y="70" on="0"/>
        <pt x="129" y="145" on="0"/>
        <pt x="129" y="189" on="1"/>
        <pt x="129" y="212" on="0"/>
        <pt x="136" y="268" on="0"/>
        <pt x="143" y="294" on="1"/>
        <pt x="238" y="693" on="1"/>
        <pt x="365" y="693" on="1"/>
        <pt x="266" y="280" on="1"/>
        <pt x="261" y="261" on="0"/>
        <pt x="255" y="220" on="0"/>
        <pt x="255" y="201" on="1"/>
        <pt x="255" y="179" on="0"/>
        <pt x="266" y="140" on="0"/>
        <pt x="292" y="112" on="0"/>
        <pt x="334" y="95" on="0"/>
        <pt x="365" y="95" on="1"/>
        <pt x="438" y="95" on="0"/>
        <pt x="516" y="181" on="0"/>
        <pt x="536" y="267" on="1"/>
        <pt x="638" y="693" on="1"/>
        <pt x="765" y="693" on="1"/>
      </contour>
    </TTGlyph>
    <TTGlyph name="Uacute" xMin="129" yMin="-15" xMax="765" yMax="954">
      <component glyphName="U" x="0" y="0" flags="0x204"/>
      <component glyphName="acute" x="276" y="162" flags="0x4"/>
    </TTGlyph>
    <TTGlyph name="Ubreve" xMin="129" yMin="-15" xMax="765" yMax="910">
      <component glyphName="U" x="0" y="0" flags="0x204"/>
      <component glyphName="breve" x="244" y="154" flags="0x4"/>
    </TTGlyph>
    <TTGlyph name="Ucircumflex" xMin="129" yMin="-15" xMax="765" yMax="945">
      <component glyphName="U" x="0" y="0" flags="0x204"/>
      <component glyphName="circumflex" x="250" y="161" flags="0x4"/>
    </TTGlyph>
    <TTGlyph name="Udieresis" xMin="129" yMin="-15" xMax="765" yMax="902">
      <component glyphName="U" x="0" y="0" flags="0x204"/>
      <component glyphName="dieresis" x="171" y="158" flags="0x4"/>
    </TTGlyph>
    <TTGlyph name="Ugrave" xMin="129" yMin="-15" xMax="765" yMax="951">
      <component glyphName="U" x="0" y="0" flags="0x204"/>
      <component glyphName="grave" x="224" y="162" flags="0x4"/>
    </TTGlyph>
    <TTGlyph name="Uhorn" xMin="129" yMin="-15" xMax="915" yMax="801">
      <contour>
        <pt x="915" y="801" on="1"/>
        <pt x="911" y="767" on="0"/>
        <pt x="892" y="703" on="0"/>
        <pt x="853" y="651" on="0"/>
        <pt x="791" y="616" on="0"/>
        <pt x="745" y="611" on="1"/>
        <pt x="660" y="255" on="1"/>
        <pt x="645" y="191" on="0"/>
        <pt x="599" y="91" on="0"/>
        <pt x="526" y="22" on="0"/>
        <pt x="421" y="-15" on="0"/>
        <pt x="347" y="-15" on="1"/>
        <pt x="289" y="-15" on="0"/>
        <pt x="206" y="16" on="0"/>
        <pt x="154" y="70" on="0"/>
        <pt x="129" y="145" on="0"/>
        <pt x="129" y="189" on="1"/>
        <pt x="129" y="212" on="0"/>
        <pt x="136" y="268" on="0"/>
        <pt x="143" y="294" on="1"/>
        <pt x="238" y="693" on="1"/>
        <pt x="365" y="693" on="1"/>
        <pt x="266" y="280" on="1"/>
        <pt x="261" y="261" on="0"/>
        <pt x="255" y="220" on="0"/>
        <pt x="255" y="201" on="1"/>
        <pt x="255" y="179" on="0"/>
        <pt x="266" y="140" on="0"/>
        <pt x="292" y="112" on="0"/>
        <pt x="334" y="95" on="0"/>
        <pt x="365" y="95" on="1"/>
        <pt x="438" y="95" on="0"/>
        <pt x="516" y="181" on="0"/>
        <pt x="536" y="267" on="1"/>
        <pt x="638" y="693" on="1"/>
        <pt x="703" y="693" on="1"/>
        <pt x="730" y="693" on="0"/>
        <pt x="767" y="710" on="0"/>
        <pt x="789" y="740" on="0"/>
        <pt x="800" y="779" on="0"/>
        <pt x="801" y="801" on="1"/>
      </contour>
    </TTGlyph>
    <TTGlyph name="Uhungarumlaut" xMin="129" yMin="-15" xMax="774" yMax="945">
      <component glyphName="U" x="0" y="0" flags="0x204"/>
      <component glyphName="hungarumlaut" x="274" y="159" flags="0x4"/>
    </TTGlyph>
    <TTGlyph name="Umacron" xMin="129" yMin="-15" xMax="765" yMax="872">
      <component glyphName="U" x="0" y="0" flags="0x204"/>
      <component glyphName="macron" x="198" y="154" flags="0x4"/>
    </TTGlyph>
    <TTGlyph name="Uogonek" xMin="129" yMin="-204" xMax="765" yMax="693">
      <contour>
        <pt x="424" y="-189" on="1"/>
        <pt x="408" y="-196" on="0"/>
        <pt x="369" y="-204" on="0"/>
        <pt x="347" y="-204" on="1"/>
        <pt x="298" y="-204" on="0"/>
        <pt x="243" y="-168" on="0"/>
        <pt x="243" y="-130" on="1"/>
        <pt x="243" y="-101" on="0"/>
        <pt x="282" y="-44" on="0"/>
        <pt x="318" y="-20" on="1"/>
        <pt x="327" y="-14" on="1"/>
        <pt x="274" y="-11" on="0"/>
        <pt x="199" y="22" on="0"/>
        <pt x="151" y="75" on="0"/>
        <pt x="129" y="147" on="0"/>
        <pt x="129" y="189" on="1"/>
        <pt x="129" y="212" on="0"/>
        <pt x="136" y="268" on="0"/>
        <pt x="143" y="294" on="1"/>
        <pt x="238" y="693" on="1"/>
        <pt x="365" y="693" on="1"/>
        <pt x="266" y="280" on="1"/>
        <pt x="261" y="261" on="0"/>
        <pt x="255" y="220" on="0"/>
        <pt x="255" y="201" on="1"/>
        <pt x="255" y="179" on="0"/>
        <pt x="266" y="140" on="0"/>
        <pt x="292" y="112" on="0"/>
        <pt x="334" y="95" on="0"/>
        <pt x="365" y="95" on="1"/>
        <pt x="438" y="95" on="0"/>
        <pt x="516" y="181" on="0"/>
        <pt x="536" y="267" on="1"/>
        <pt x="638" y="693" on="1"/>
        <pt x="765" y="693" on="1"/>
        <pt x="660" y="255" on="1"/>
        <pt x="636" y="155" on="0"/>
        <pt x="554" y="33" on="0"/>
        <pt x="478" y="5" on="1"/>
        <pt x="464" y="0" on="0"/>
        <pt x="427" y="-19" on="0"/>
        <pt x="412" y="-30" on="1"/>
        <pt x="381" y="-53" on="0"/>
        <pt x="355" y="-87" on="0"/>
        <pt x="355" y="-99" on="1"/>
        <pt x="355" y="-118" on="0"/>
        <pt x="386" y="-118" on="1"/>
        <pt x="398" y="-118" on="0"/>
        <pt x="425" y="-112" on="0"/>
        <pt x="433" y="-109" on="1"/>
      </contour>
    </TTGlyph>
    <TTGlyph name="Upsilon" xMin="161" yMin="0" xMax="754" yMax="693">
      <component glyphName="Y" x="0" y="0" flags="0x204"/>
    </TTGlyph>
    <TTGlyph name="Upsilondieresis" xMin="161" yMin="0" xMax="754" yMax="902">
      <component glyphName="Y" x="0" y="0" flags="0x204"/>
      <component glyphName="dieresis" x="122" y="158" flags="0x4"/>
    </TTGlyph>
    <TTGlyph name="Upsilontonos" xMin="89" yMin="0" xMax="915" yMax="723">
      <component glyphName="Y" x="161" y="0" flags="0x4"/>
      <component glyphName="tonos.cap" x="-84" y="0" flags="0x4"/>
    </TTGlyph>
    <TTGlyph name="Uring" xMin="129" yMin="-15" xMax="765" yMax="949">
      <component glyphName="U" x="0" y="0" flags="0x204"/>
      <component glyphName="ring" x="270" y="153" flags="0x4"/>
    </TTGlyph>
    <TTGlyph name="Utilde" xMin="129" yMin="-15" xMax="765" yMax="905">
      <component glyphName="U" x="0" y="0" flags="0x204"/>
      <component glyphName="tilde" x="256" y="159" flags="0x4"/>
    </TTGlyph>
    <TTGlyph name="V" xMin="163" yMin="0" xMax="794" yMax="693">
      <contour>
        <pt x="379" y="0" on="1"/>
        <pt x="259" y="0" on="1"/>
        <pt x="228" y="161" on="0"/>
        <pt x="180" y="507" on="0"/>
        <pt x="163" y="693" on="1"/>
        <pt x="296" y="693" on="1"/>
        <pt x="307" y="546" on="0"/>
        <pt x="334" y="266" on="0"/>
        <pt x="351" y="149" on="1"/>
        <pt x="388" y="205" on="0"/>
        <pt x="467" y="337" on="0"/>
        <pt x="547" y="478" on="0"/>
        <pt x="623" y="623" on="0"/>
        <pt x="657" y="693" on="1"/>
        <pt x="794" y="693" on="1"/>
        <pt x="700" y="516" on="0"/>
        <pt x="497" y="167" on="0"/>
      </contour>
    </TTGlyph>
    <TTGlyph name="W" xMin="168" yMin="0" xMax="1062" yMax="693">
      <contour>
        <pt x="653" y="614" on="1"/>
        <pt x="656" y="560" on="0"/>
        <pt x="665" y="442" on="0"/>
        <pt x="677" y="325" on="0"/>
        <pt x="689" y="213" on="0"/>
        <pt x="695" y="165" on="1"/>
        <pt x="723" y="218" on="0"/>
        <pt x="783" y="345" on="0"/>
        <pt x="843" y="481" on="0"/>
        <pt x="901" y="624" on="0"/>
        <pt x="928" y="693" on="1"/>
        <pt x="1062" y="693" on="1"/>
        <pt x="983" y="500" on="0"/>
        <pt x="822" y="156" on="0"/>
        <pt x="732" y="0" on="1"/>
        <pt x="610" y="0" on="1"/>
        <pt x="602" y="54" on="0"/>
        <pt x="587" y="158" on="0"/>
        <pt x="574" y="265" on="0"/>
        <pt x="563" y="376" on="0"/>
        <pt x="558" y="436" on="1"/>
        <pt x="496" y="321" on="0"/>
        <pt x="375" y="106" on="0"/>
        <pt x="307" y="0" on="1"/>
        <pt x="183" y="0" on="1"/>
        <pt x="175" y="87" on="0"/>
        <pt x="168" y="259" on="0"/>
        <pt x="168" y="349" on="1"/>
        <pt x="168" y="513" on="0"/>
        <pt x="180" y="693" on="1"/>
        <pt x="306" y="693" on="1"/>
        <pt x="300" y="597" on="0"/>
        <pt x="292" y="408" on="0"/>
        <pt x="292" y="311" on="1"/>
        <pt x="292" y="275" on="0"/>
        <pt x="292" y="202" on="0"/>
        <pt x="294" y="165" on="1"/>
        <pt x="325" y="216" on="0"/>
        <pt x="391" y="329" on="0"/>
        <pt x="455" y="445" on="0"/>
        <pt x="516" y="561" on="0"/>
        <pt x="543" y="614" on="1"/>
      </contour>
    </TTGlyph>
    <TTGlyph name="Wacute" xMin="168" yMin="0" xMax="1062" yMax="949">
      <component glyphName="W" x="0" y="0" flags="0x204"/>
      <component glyphName="acute" x="403" y="157" flags="0x4"/>
    </TTGlyph>
    <TTGlyph name="Wcircumflex" xMin="168" yMin="0" xMax="1062" yMax="940">
      <component glyphName="W" x="0" y="0" flags="0x204"/>
      <component glyphName="circumflex" x="372" y="156" flags="0x4"/>
    </TTGlyph>
    <TTGlyph name="Wdieresis" xMin="168" yMin="0" xMax="1062" yMax="897">
      <component glyphName="W" x="0" y="0" flags="0x204"/>
      <component glyphName="dieresis" x="294" y="153" flags="0x4"/>
    </TTGlyph>
    <TTGlyph name="Wgrave" xMin="168" yMin="0" xMax="1062" yMax="946">
      <component glyphName="W" x="0" y="0" flags="0x204"/>
      <component glyphName="grave" x="338" y="157" flags="0x4"/>
    </TTGlyph>
    <TTGlyph name="X" xMin="10" yMin="0" xMax="744" yMax="693">
      <contour>
        <pt x="481" y="0" on="1"/>
        <pt x="469" y="39" on="0"/>
        <pt x="445" y="108" on="0"/>
        <pt x="420" y="172" on="0"/>
        <pt x="394" y="234" on="0"/>
        <pt x="379" y="267" on="1"/>
        <pt x="156" y="0" on="1"/>
        <pt x="10" y="0" on="1"/>
        <pt x="327" y="373" on="1"/>
        <pt x="186" y="693" on="1"/>
        <pt x="325" y="693" on="1"/>
        <pt x="419" y="458" on="1"/>
        <pt x="469" y="516" on="0"/>
        <pt x="564" y="636" on="0"/>
        <pt x="603" y="693" on="1"/>
        <pt x="744" y="693" on="1"/>
        <pt x="715" y="652" on="0"/>
        <pt x="649" y="567" on="0"/>
        <pt x="579" y="482" on="0"/>
        <pt x="508" y="399" on="0"/>
        <pt x="474" y="361" on="1"/>
        <pt x="514" y="269" on="0"/>
        <pt x="584" y="96" on="0"/>
        <pt x="615" y="0" on="1"/>
      </contour>
    </TTGlyph>
    <TTGlyph name="Xi" xMin="31" yMin="0" xMax="668" yMax="693">
      <contour>
        <pt x="31" y="0" on="1"/>
        <pt x="57" y="108" on="1"/>
        <pt x="537" y="108" on="1"/>
        <pt x="511" y="0" on="1"/>
      </contour>
      <contour>
        <pt x="534" y="309" on="1"/>
        <pt x="155" y="309" on="1"/>
        <pt x="180" y="416" on="1"/>
        <pt x="559" y="416" on="1"/>
      </contour>
      <contour>
        <pt x="179" y="585" on="1"/>
        <pt x="205" y="693" on="1"/>
        <pt x="668" y="693" on="1"/>
        <pt x="642" y="585" on="1"/>
      </contour>
    </TTGlyph>
    <TTGlyph name="Y" xMin="161" yMin="0" xMax="754" yMax="693">
      <contour>
        <pt x="382" y="387" on="1"/>
        <pt x="444" y="462" on="0"/>
        <pt x="561" y="613" on="0"/>
        <pt x="612" y="693" on="1"/>
        <pt x="754" y="693" on="1"/>
        <pt x="715" y="638" on="0"/>
        <pt x="637" y="534" on="0"/>
        <pt x="556" y="431" on="0"/>
        <pt x="470" y="329" on="0"/>
        <pt x="424" y="276" on="1"/>
        <pt x="358" y="0" on="1"/>
        <pt x="232" y="0" on="1"/>
        <pt x="298" y="276" on="1"/>
        <pt x="257" y="381" on="0"/>
        <pt x="190" y="588" on="0"/>
        <pt x="161" y="693" on="1"/>
        <pt x="295" y="693" on="1"/>
        <pt x="312" y="616" on="0"/>
        <pt x="356" y="462" on="0"/>
      </contour>
    </TTGlyph>
    <TTGlyph name="Yacute" xMin="161" yMin="0" xMax="754" yMax="954">
      <component glyphName="Y" x="0" y="0" flags="0x204"/>
      <component glyphName="acute" x="234" y="162" flags="0x4"/>
    </TTGlyph>
    <TTGlyph name="Ycircumflex" xMin="161" yMin="0" xMax="754" yMax="945">
      <component glyphName="Y" x="0" y="0" flags="0x204"/>
      <component glyphName="circumflex" x="200" y="161" flags="0x4"/>
    </TTGlyph>
    <TTGlyph name="Ydieresis" xMin="161" yMin="0" xMax="754" yMax="902">
      <component glyphName="Y" x="0" y="0" flags="0x204"/>
      <component glyphName="dieresis" x="122" y="158" flags="0x4"/>
    </TTGlyph>
    <TTGlyph name="Ygrave" xMin="161" yMin="0" xMax="754" yMax="951">
      <component glyphName="Y" x="0" y="0" flags="0x204"/>
      <component glyphName="grave" x="176" y="162" flags="0x4"/>
    </TTGlyph>
    <TTGlyph name="Z" xMin="32" yMin="0" xMax="703" yMax="693">
      <contour>
        <pt x="681" y="600" on="1"/>
        <pt x="640" y="564" on="0"/>
        <pt x="521" y="448" on="0"/>
        <pt x="391" y="313" on="0"/>
        <pt x="263" y="170" on="0"/>
        <pt x="212" y="106" on="1"/>
        <pt x="571" y="106" on="1"/>
        <pt x="546" y="0" on="1"/>
        <pt x="32" y="0" on="1"/>
        <pt x="51" y="79" on="1"/>
        <pt x="79" y="116" on="0"/>
        <pt x="150" y="203" on="0"/>
        <pt x="229" y="295" on="0"/>
        <pt x="314" y="388" on="0"/>
        <pt x="398" y="476" on="0"/>
        <pt x="477" y="555" on="0"/>
        <pt x="511" y="587" on="1"/>
        <pt x="189" y="587" on="1"/>
        <pt x="214" y="693" on="1"/>
        <pt x="703" y="693" on="1"/>
      </contour>
    </TTGlyph>
    <TTGlyph name="Zacute" xMin="32" yMin="0" xMax="703" yMax="954">
      <component glyphName="Z" x="0" y="0" flags="0x204"/>
      <component glyphName="acute" x="241" y="162" flags="0x4"/>
    </TTGlyph>
    <TTGlyph name="Zcaron" xMin="32" yMin="0" xMax="703" yMax="951">
      <component glyphName="Z" x="0" y="0" flags="0x204"/>
      <component glyphName="caron" x="199" y="161" flags="0x4"/>
    </TTGlyph>
    <TTGlyph name="Zdotaccent" xMin="32" yMin="0" xMax="703" yMax="904">
      <component glyphName="Z" x="0" y="0" flags="0x204"/>
      <component glyphName="dotaccent" x="259" y="158" flags="0x4"/>
    </TTGlyph>
    <TTGlyph name="Zeta" xMin="32" yMin="0" xMax="703" yMax="693">
      <component glyphName="Z" x="0" y="0" flags="0x204"/>
    </TTGlyph>
    <TTGlyph name="a" xMin="95" yMin="-14" xMax="602" yMax="533">
      <contour>
        <pt x="530" y="203" on="1"/>
        <pt x="527" y="192" on="0"/>
        <pt x="521" y="142" on="0"/>
        <pt x="521" y="120" on="1"/>
        <pt x="521" y="91" on="0"/>
        <pt x="531" y="36" on="0"/>
        <pt x="542" y="8" on="1"/>
        <pt x="434" y="-8" on="1"/>
        <pt x="422" y="16" on="0"/>
        <pt x="415" y="43" on="1"/>
        <pt x="390" y="21" on="0"/>
        <pt x="317" y="-14" on="0"/>
        <pt x="271" y="-14" on="1"/>
        <pt x="224" y="-14" on="0"/>
        <pt x="157" y="17" on="0"/>
        <pt x="115" y="72" on="0"/>
        <pt x="95" y="146" on="0"/>
        <pt x="95" y="189" on="1"/>
        <pt x="95" y="262" on="0"/>
        <pt x="147" y="388" on="0"/>
        <pt x="240" y="480" on="0"/>
        <pt x="368" y="533" on="0"/>
        <pt x="444" y="533" on="1"/>
        <pt x="483" y="533" on="0"/>
        <pt x="562" y="520" on="0"/>
        <pt x="602" y="502" on="1"/>
      </contour>
      <contour>
        <pt x="464" y="429" on="1"/>
        <pt x="445" y="433" on="0"/>
        <pt x="421" y="433" on="1"/>
        <pt x="376" y="433" on="0"/>
        <pt x="300" y="394" on="0"/>
        <pt x="245" y="329" on="0"/>
        <pt x="215" y="245" on="0"/>
        <pt x="215" y="199" on="1"/>
        <pt x="215" y="176" on="0"/>
        <pt x="223" y="136" on="0"/>
        <pt x="242" y="106" on="0"/>
        <pt x="274" y="88" on="0"/>
        <pt x="299" y="88" on="1"/>
        <pt x="331" y="88" on="0"/>
        <pt x="380" y="115" on="0"/>
        <pt x="401" y="138" on="1"/>
        <pt x="402" y="164" on="0"/>
        <pt x="409" y="210" on="0"/>
        <pt x="415" y="233" on="1"/>
      </contour>
    </TTGlyph>
    <TTGlyph name="aacute" xMin="95" yMin="-14" xMax="602" yMax="792">
      <component glyphName="a" x="0" y="0" flags="0x204"/>
      <component glyphName="acute" x="201" y="0" flags="0x4"/>
    </TTGlyph>
    <TTGlyph name="abreve" xMin="95" yMin="-14" xMax="621" yMax="756">
      <component glyphName="a" x="0" y="0" flags="0x204"/>
      <component glyphName="breve" x="175" y="0" flags="0x4"/>
    </TTGlyph>
    <TTGlyph name="acircumflex" xMin="95" yMin="-14" xMax="602" yMax="784">
      <component glyphName="a" x="0" y="0" flags="0x204"/>
      <component glyphName="circumflex" x="162" y="0" flags="0x4"/>
    </TTGlyph>
    <TTGlyph name="acute" xMin="141" yMin="583" xMax="379" yMax="792">
      <contour>
        <pt x="314" y="792" on="1"/>
        <pt x="379" y="710" on="1"/>
        <pt x="190" y="583" on="1"/>
        <pt x="141" y="643" on="1"/>
      </contour>
    </TTGlyph>
    <TTGlyph name="acute.asc" xMin="168" yMin="807" xMax="383" yMax="964">
      <contour>
        <pt x="357" y="964" on="1"/>
        <pt x="383" y="877" on="1"/>
        <pt x="191" y="807" on="1"/>
        <pt x="168" y="872" on="1"/>
      </contour>
    </TTGlyph>
    <TTGlyph name="adieresis" xMin="95" yMin="-14" xMax="607" yMax="744">
      <component glyphName="a" x="0" y="0" flags="0x204"/>
      <component glyphName="dieresis" x="83" y="0" flags="0x4"/>
    </TTGlyph>
    <TTGlyph name="ae" xMin="74" yMin="-21" xMax="884" yMax="536">
      <contour>
        <pt x="626" y="-14" on="1"/>
        <pt x="557" y="-14" on="0"/>
        <pt x="469" y="38" on="0"/>
        <pt x="445" y="79" on="1"/>
        <pt x="406" y="34" on="0"/>
        <pt x="299" y="-21" on="0"/>
        <pt x="234" y="-21" on="1"/>
        <pt x="158" y="-21" on="0"/>
        <pt x="74" y="57" on="0"/>
        <pt x="74" y="118" on="1"/>
        <pt x="74" y="183" on="0"/>
        <pt x="137" y="263" on="0"/>
        <pt x="237" y="308" on="0"/>
        <pt x="362" y="324" on="0"/>
        <pt x="426" y="325" on="1"/>
        <pt x="427" y="331" on="0"/>
        <pt x="427" y="339" on="1"/>
        <pt x="427" y="426" on="0"/>
        <pt x="312" y="426" on="1"/>
        <pt x="244" y="426" on="0"/>
        <pt x="176" y="398" on="1"/>
        <pt x="166" y="496" on="1"/>
        <pt x="190" y="507" on="0"/>
        <pt x="278" y="529" on="0"/>
        <pt x="334" y="529" on="1"/>
        <pt x="400" y="529" on="0"/>
        <pt x="488" y="478" on="0"/>
        <pt x="511" y="438" on="1"/>
        <pt x="551" y="483" on="0"/>
        <pt x="658" y="536" on="0"/>
        <pt x="724" y="536" on="1"/>
        <pt x="800" y="536" on="0"/>
        <pt x="884" y="458" on="0"/>
        <pt x="884" y="397" on="1"/>
        <pt x="884" y="334" on="0"/>
        <pt x="822" y="256" on="0"/>
        <pt x="723" y="212" on="0"/>
        <pt x="598" y="196" on="0"/>
        <pt x="534" y="194" on="1"/>
        <pt x="533" y="188" on="0"/>
        <pt x="533" y="180" on="1"/>
        <pt x="533" y="89" on="0"/>
        <pt x="648" y="89" on="1"/>
        <pt x="716" y="89" on="0"/>
        <pt x="784" y="117" on="1"/>
        <pt x="794" y="19" on="1"/>
        <pt x="770" y="8" on="0"/>
        <pt x="682" y="-14" on="0"/>
      </contour>
      <contour>
        <pt x="252" y="78" on="1"/>
        <pt x="282" y="78" on="0"/>
        <pt x="337" y="102" on="0"/>
        <pt x="381" y="145" on="0"/>
        <pt x="412" y="204" on="0"/>
        <pt x="418" y="239" on="1"/>
        <pt x="297" y="237" on="0"/>
        <pt x="187" y="184" on="0"/>
        <pt x="187" y="130" on="1"/>
        <pt x="187" y="110" on="0"/>
        <pt x="216" y="78" on="0"/>
      </contour>
      <contour>
        <pt x="706" y="437" on="1"/>
        <pt x="676" y="437" on="0"/>
        <pt x="622" y="413" on="0"/>
        <pt x="580" y="371" on="0"/>
        <pt x="549" y="314" on="0"/>
        <pt x="542" y="281" on="1"/>
        <pt x="662" y="285" on="0"/>
        <pt x="771" y="335" on="0"/>
        <pt x="771" y="385" on="1"/>
        <pt x="771" y="405" on="0"/>
        <pt x="742" y="437" on="0"/>
      </contour>
    </TTGlyph>
    <TTGlyph name="aeacute" xMin="74" yMin="-21" xMax="884" yMax="792">
      <component glyphName="ae" x="0" y="0" flags="0x204"/>
      <component glyphName="acute" x="363" y="0" flags="0x4"/>
    </TTGlyph>
    <TTGlyph name="afii00208" xMin="58" yMin="250" xMax="1082" yMax="352">
      <contour>
        <pt x="82" y="352" on="1"/>
        <pt x="1082" y="352" on="1"/>
        <pt x="1058" y="250" on="1"/>
        <pt x="58" y="250" on="1"/>
      </contour>
    </TTGlyph>
    <TTGlyph name="afii10017" xMin="7" yMin="0" xMax="655" yMax="693">
      <component glyphName="A" x="0" y="0" flags="0x204"/>
    </TTGlyph>
    <TTGlyph name="afii10018" xMin="80" yMin="-7" xMax="671" yMax="693">
      <contour>
        <pt x="344" y="586" on="1"/>
        <pt x="309" y="440" on="1"/>
        <pt x="374" y="440" on="1"/>
        <pt x="507" y="440" on="0"/>
        <pt x="628" y="348" on="0"/>
        <pt x="628" y="254" on="1"/>
        <pt x="628" y="183" on="0"/>
        <pt x="571" y="84" on="0"/>
        <pt x="475" y="22" on="0"/>
        <pt x="348" y="-7" on="0"/>
        <pt x="277" y="-7" on="1"/>
        <pt x="229" y="-7" on="0"/>
        <pt x="121" y="3" on="0"/>
        <pt x="80" y="13" on="1"/>
        <pt x="243" y="693" on="1"/>
        <pt x="671" y="693" on="1"/>
        <pt x="646" y="586" on="1"/>
      </contour>
      <contour>
        <pt x="228" y="104" on="1"/>
        <pt x="251" y="99" on="0"/>
        <pt x="299" y="99" on="1"/>
        <pt x="397" y="99" on="0"/>
        <pt x="497" y="176" on="0"/>
        <pt x="497" y="248" on="1"/>
        <pt x="497" y="297" on="0"/>
        <pt x="426" y="336" on="0"/>
        <pt x="350" y="336" on="1"/>
        <pt x="284" y="336" on="1"/>
      </contour>
    </TTGlyph>
    <TTGlyph name="afii10019" xMin="81" yMin="-8" xMax="682" yMax="700">
      <component glyphName="B" x="0" y="0" flags="0x204"/>
    </TTGlyph>
    <TTGlyph name="afii10020" xMin="78" yMin="0" xMax="656" yMax="693">
      <contour>
        <pt x="204" y="0" on="1"/>
        <pt x="78" y="0" on="1"/>
        <pt x="244" y="693" on="1"/>
        <pt x="656" y="693" on="1"/>
        <pt x="631" y="586" on="1"/>
        <pt x="345" y="586" on="1"/>
      </contour>
    </TTGlyph>
    <TTGlyph name="afii10021" xMin="-40" yMin="-185" xMax="780" yMax="693">
      <contour>
        <pt x="30" y="106" on="1"/>
        <pt x="111" y="106" on="1"/>
        <pt x="167" y="158" on="0"/>
        <pt x="246" y="291" on="0"/>
        <pt x="303" y="444" on="0"/>
        <pt x="344" y="609" on="0"/>
        <pt x="362" y="693" on="1"/>
        <pt x="780" y="693" on="1"/>
        <pt x="639" y="106" on="1"/>
        <pt x="742" y="106" on="1"/>
        <pt x="672" y="-185" on="1"/>
        <pt x="552" y="-185" on="1"/>
        <pt x="597" y="0" on="1"/>
        <pt x="124" y="0" on="1"/>
        <pt x="80" y="-185" on="1"/>
        <pt x="-40" y="-185" on="1"/>
      </contour>
      <contour>
        <pt x="458" y="585" on="1"/>
        <pt x="443" y="520" on="0"/>
        <pt x="408" y="389" on="0"/>
        <pt x="361" y="266" on="0"/>
        <pt x="300" y="153" on="0"/>
        <pt x="259" y="106" on="1"/>
        <pt x="515" y="106" on="1"/>
        <pt x="630" y="585" on="1"/>
      </contour>
    </TTGlyph>
    <TTGlyph name="afii10022" xMin="78" yMin="0" xMax="674" yMax="693">
      <component glyphName="E" x="0" y="0" flags="0x204"/>
    </TTGlyph>
    <TTGlyph name="afii10023" xMin="78" yMin="0" xMax="674" yMax="902">
      <component glyphName="E" x="0" y="0" flags="0x204"/>
      <component glyphName="dieresis" x="133" y="158" flags="0x4"/>
    </TTGlyph>
    <TTGlyph name="afii10024" xMin="6" yMin="0" xMax="1056" yMax="693">
      <contour>
        <pt x="147" y="0" on="1"/>
        <pt x="6" y="0" on="1"/>
        <pt x="44" y="51" on="0"/>
        <pt x="130" y="154" on="0"/>
        <pt x="221" y="251" on="0"/>
        <pt x="317" y="339" on="0"/>
        <pt x="364" y="375" on="1"/>
        <pt x="179" y="693" on="1"/>
        <pt x="324" y="693" on="1"/>
        <pt x="478" y="399" on="1"/>
        <pt x="548" y="693" on="1"/>
        <pt x="671" y="693" on="1"/>
        <pt x="600" y="399" on="1"/>
        <pt x="682" y="475" on="0"/>
        <pt x="833" y="621" on="0"/>
        <pt x="903" y="693" on="1"/>
        <pt x="1056" y="693" on="1"/>
        <pt x="965" y="602" on="0"/>
        <pt x="786" y="434" on="0"/>
        <pt x="701" y="356" on="1"/>
        <pt x="761" y="283" on="0"/>
        <pt x="861" y="97" on="0"/>
        <pt x="895" y="0" on="1"/>
        <pt x="756" y="0" on="1"/>
        <pt x="722" y="94" on="0"/>
        <pt x="633" y="254" on="0"/>
        <pt x="582" y="321" on="1"/>
        <pt x="504" y="0" on="1"/>
        <pt x="382" y="0" on="1"/>
        <pt x="459" y="322" on="1"/>
        <pt x="373" y="250" on="0"/>
        <pt x="222" y="94" on="0"/>
      </contour>
    </TTGlyph>
    <TTGlyph name="afii10025" xMin="35" yMin="-15" xMax="615" yMax="708">
      <contour>
        <pt x="236" y="414" on="1"/>
        <pt x="315" y="414" on="1"/>
        <pt x="345" y="414" on="0"/>
        <pt x="405" y="427" on="0"/>
        <pt x="454" y="455" on="0"/>
        <pt x="485" y="500" on="0"/>
        <pt x="485" y="532" on="1"/>
        <pt x="485" y="564" on="0"/>
        <pt x="437" y="600" on="0"/>
        <pt x="388" y="600" on="1"/>
        <pt x="340" y="600" on="0"/>
        <pt x="255" y="573" on="0"/>
        <pt x="222" y="556" on="1"/>
        <pt x="205" y="660" on="1"/>
        <pt x="241" y="680" on="0"/>
        <pt x="351" y="708" on="0"/>
        <pt x="412" y="708" on="1"/>
        <pt x="516" y="708" on="0"/>
        <pt x="615" y="618" on="0"/>
        <pt x="615" y="549" on="1"/>
        <pt x="615" y="483" on="0"/>
        <pt x="537" y="390" on="0"/>
        <pt x="474" y="368" on="1"/>
        <pt x="524" y="345" on="0"/>
        <pt x="570" y="273" on="0"/>
        <pt x="570" y="226" on="1"/>
        <pt x="570" y="176" on="0"/>
        <pt x="529" y="88" on="0"/>
        <pt x="449" y="23" on="0"/>
        <pt x="330" y="-15" on="0"/>
        <pt x="251" y="-15" on="1"/>
        <pt x="176" y="-15" on="0"/>
        <pt x="67" y="20" on="0"/>
        <pt x="35" y="39" on="1"/>
        <pt x="93" y="139" on="1"/>
        <pt x="124" y="122" on="0"/>
        <pt x="206" y="94" on="0"/>
        <pt x="260" y="94" on="1"/>
        <pt x="345" y="94" on="0"/>
        <pt x="440" y="161" on="0"/>
        <pt x="440" y="220" on="1"/>
        <pt x="440" y="268" on="0"/>
        <pt x="366" y="310" on="0"/>
        <pt x="303" y="310" on="1"/>
        <pt x="210" y="310" on="1"/>
      </contour>
    </TTGlyph>
    <TTGlyph name="afii10026" xMin="78" yMin="0" xMax="799" yMax="693">
      <contour>
        <pt x="78" y="0" on="1"/>
        <pt x="244" y="693" on="1"/>
        <pt x="369" y="693" on="1"/>
        <pt x="257" y="229" on="1"/>
        <pt x="302" y="282" on="0"/>
        <pt x="413" y="407" on="0"/>
        <pt x="529" y="532" on="0"/>
        <pt x="644" y="648" on="0"/>
        <pt x="694" y="693" on="1"/>
        <pt x="799" y="693" on="1"/>
        <pt x="632" y="0" on="1"/>
        <pt x="508" y="0" on="1"/>
        <pt x="627" y="496" on="1"/>
        <pt x="573" y="441" on="0"/>
        <pt x="456" y="316" on="0"/>
        <pt x="341" y="186" on="0"/>
        <pt x="233" y="57" on="0"/>
        <pt x="187" y="0" on="1"/>
      </contour>
    </TTGlyph>
    <TTGlyph name="afii10027" xMin="78" yMin="0" xMax="799" yMax="911">
      <component glyphName="afii10026" x="0" y="0" flags="0x204"/>
      <component glyphName="kratka" x="289" y="156" flags="0x4"/>
    </TTGlyph>
    <TTGlyph name="afii10028" xMin="78" yMin="0" xMax="773" yMax="693">
      <component glyphName="K" x="0" y="0" flags="0x204"/>
    </TTGlyph>
    <TTGlyph name="afii10029" xMin="19" yMin="-12" xMax="759" yMax="693">
      <contour>
        <pt x="438" y="585" on="1"/>
        <pt x="409" y="460" on="0"/>
        <pt x="346" y="249" on="0"/>
        <pt x="303" y="169" on="1"/>
        <pt x="285" y="137" on="0"/>
        <pt x="236" y="75" on="0"/>
        <pt x="171" y="25" on="0"/>
        <pt x="86" y="-8" on="0"/>
        <pt x="31" y="-12" on="1"/>
        <pt x="19" y="98" on="1"/>
        <pt x="88" y="105" on="0"/>
        <pt x="184" y="190" on="0"/>
        <pt x="256" y="341" on="0"/>
        <pt x="311" y="556" on="0"/>
        <pt x="340" y="693" on="1"/>
        <pt x="759" y="693" on="1"/>
        <pt x="594" y="0" on="1"/>
        <pt x="468" y="0" on="1"/>
        <pt x="608" y="585" on="1"/>
      </contour>
    </TTGlyph>
    <TTGlyph name="afii10030" xMin="61" yMin="0" xMax="907" yMax="693">
      <component glyphName="M" x="0" y="0" flags="0x204"/>
    </TTGlyph>
    <TTGlyph name="afii10031" xMin="78" yMin="0" xMax="780" yMax="693">
      <component glyphName="H" x="0" y="0" flags="0x204"/>
    </TTGlyph>
    <TTGlyph name="afii10032" xMin="121" yMin="-15" xMax="783" yMax="709">
      <component glyphName="O" x="0" y="0" flags="0x204"/>
    </TTGlyph>
    <TTGlyph name="afii10033" xMin="78" yMin="0" xMax="773" yMax="693">
      <contour>
        <pt x="773" y="693" on="1"/>
        <pt x="606" y="0" on="1"/>
        <pt x="480" y="0" on="1"/>
        <pt x="621" y="586" on="1"/>
        <pt x="345" y="586" on="1"/>
        <pt x="204" y="0" on="1"/>
        <pt x="78" y="0" on="1"/>
        <pt x="244" y="693" on="1"/>
      </contour>
    </TTGlyph>
    <TTGlyph name="afii10034" xMin="78" yMin="0" xMax="685" yMax="700">
      <component glyphName="P" x="0" y="0" flags="0x204"/>
    </TTGlyph>
    <TTGlyph name="afii10035" xMin="121" yMin="-15" xMax="722" yMax="709">
      <component glyphName="C" x="0" y="0" flags="0x204"/>
    </TTGlyph>
    <TTGlyph name="afii10036" xMin="165" yMin="0" xMax="729" yMax="693">
      <component glyphName="T" x="0" y="0" flags="0x204"/>
    </TTGlyph>
    <TTGlyph name="afii10037" xMin="31" yMin="-12" xMax="727" yMax="693">
      <contour>
        <pt x="144" y="96" on="1"/>
        <pt x="168" y="96" on="0"/>
        <pt x="206" y="107" on="0"/>
        <pt x="240" y="128" on="0"/>
        <pt x="274" y="161" on="0"/>
        <pt x="292" y="184" on="1"/>
        <pt x="269" y="248" on="0"/>
        <pt x="229" y="385" on="0"/>
        <pt x="195" y="518" on="0"/>
        <pt x="170" y="642" on="0"/>
        <pt x="163" y="693" on="1"/>
        <pt x="298" y="693" on="1"/>
        <pt x="308" y="609" on="0"/>
        <pt x="348" y="409" on="0"/>
        <pt x="377" y="306" on="1"/>
        <pt x="428" y="387" on="0"/>
        <pt x="536" y="587" on="0"/>
        <pt x="590" y="693" on="1"/>
        <pt x="727" y="693" on="1"/>
        <pt x="648" y="548" on="0"/>
        <pt x="504" y="306" on="0"/>
        <pt x="433" y="200" on="1"/>
        <pt x="403" y="155" on="0"/>
        <pt x="343" y="77" on="0"/>
        <pt x="274" y="20" on="0"/>
        <pt x="190" y="-12" on="0"/>
        <pt x="136" y="-12" on="1"/>
        <pt x="105" y="-12" on="0"/>
        <pt x="50" y="1" on="0"/>
        <pt x="31" y="11" on="1"/>
        <pt x="71" y="112" on="1"/>
        <pt x="86" y="105" on="0"/>
        <pt x="120" y="96" on="0"/>
      </contour>
    </TTGlyph>
    <TTGlyph name="afii10038" xMin="121" yMin="0" xMax="874" yMax="738">
      <contour>
        <pt x="603" y="555" on="1"/>
        <pt x="515" y="185" on="1"/>
        <pt x="565" y="189" on="0"/>
        <pt x="650" y="227" on="0"/>
        <pt x="711" y="288" on="0"/>
        <pt x="745" y="367" on="0"/>
        <pt x="745" y="411" on="1"/>
        <pt x="745" y="480" on="0"/>
        <pt x="670" y="551" on="0"/>
      </contour>
      <contour>
        <pt x="347" y="0" on="1"/>
        <pt x="367" y="85" on="1"/>
        <pt x="251" y="98" on="0"/>
        <pt x="121" y="217" on="0"/>
        <pt x="121" y="323" on="1"/>
        <pt x="121" y="391" on="0"/>
        <pt x="179" y="511" on="0"/>
        <pt x="282" y="602" on="0"/>
        <pt x="422" y="655" on="0"/>
        <pt x="505" y="657" on="1"/>
        <pt x="524" y="738" on="1"/>
        <pt x="647" y="738" on="1"/>
        <pt x="628" y="657" on="1"/>
        <pt x="685" y="651" on="0"/>
        <pt x="777" y="613" on="0"/>
        <pt x="840" y="553" on="0"/>
        <pt x="874" y="475" on="0"/>
        <pt x="874" y="429" on="1"/>
        <pt x="874" y="357" on="0"/>
        <pt x="817" y="233" on="0"/>
        <pt x="715" y="140" on="0"/>
        <pt x="574" y="86" on="0"/>
        <pt x="490" y="85" on="1"/>
        <pt x="470" y="0" on="1"/>
      </contour>
      <contour>
        <pt x="392" y="187" on="1"/>
        <pt x="481" y="556" on="1"/>
        <pt x="430" y="553" on="0"/>
        <pt x="346" y="514" on="0"/>
        <pt x="284" y="453" on="0"/>
        <pt x="250" y="374" on="0"/>
        <pt x="250" y="330" on="1"/>
        <pt x="250" y="261" on="0"/>
        <pt x="326" y="191" on="0"/>
      </contour>
    </TTGlyph>
    <TTGlyph name="afii10039" xMin="10" yMin="0" xMax="744" yMax="693">
      <component glyphName="X" x="0" y="0" flags="0x204"/>
    </TTGlyph>
    <TTGlyph name="afii10040" xMin="78" yMin="-185" xMax="774" yMax="693">
      <contour>
        <pt x="633" y="106" on="1"/>
        <pt x="737" y="106" on="1"/>
        <pt x="667" y="-185" on="1"/>
        <pt x="547" y="-185" on="1"/>
        <pt x="592" y="0" on="1"/>
        <pt x="78" y="0" on="1"/>
        <pt x="244" y="693" on="1"/>
        <pt x="370" y="693" on="1"/>
        <pt x="229" y="106" on="1"/>
        <pt x="507" y="106" on="1"/>
        <pt x="648" y="693" on="1"/>
        <pt x="774" y="693" on="1"/>
      </contour>
    </TTGlyph>
    <TTGlyph name="afii10041" xMin="160" yMin="0" xMax="719" yMax="693">
      <contour>
        <pt x="297" y="491" on="1"/>
        <pt x="288" y="453" on="0"/>
        <pt x="288" y="426" on="1"/>
        <pt x="288" y="376" on="0"/>
        <pt x="346" y="337" on="0"/>
        <pt x="399" y="337" on="1"/>
        <pt x="430" y="337" on="0"/>
        <pt x="491" y="348" on="0"/>
        <pt x="511" y="355" on="1"/>
        <pt x="592" y="693" on="1"/>
        <pt x="719" y="693" on="1"/>
        <pt x="552" y="0" on="1"/>
        <pt x="426" y="0" on="1"/>
        <pt x="485" y="247" on="1"/>
        <pt x="462" y="240" on="0"/>
        <pt x="397" y="230" on="0"/>
        <pt x="371" y="230" on="1"/>
        <pt x="268" y="230" on="0"/>
        <pt x="160" y="318" on="0"/>
        <pt x="160" y="403" on="1"/>
        <pt x="160" y="421" on="0"/>
        <pt x="165" y="470" on="0"/>
        <pt x="172" y="498" on="1"/>
        <pt x="220" y="693" on="1"/>
        <pt x="346" y="693" on="1"/>
      </contour>
    </TTGlyph>
    <TTGlyph name="afii10042" xMin="78" yMin="0" xMax="1051" yMax="693">
      <contour>
        <pt x="885" y="0" on="1"/>
        <pt x="78" y="0" on="1"/>
        <pt x="244" y="693" on="1"/>
        <pt x="370" y="693" on="1"/>
        <pt x="229" y="106" on="1"/>
        <pt x="443" y="106" on="1"/>
        <pt x="584" y="693" on="1"/>
        <pt x="711" y="693" on="1"/>
        <pt x="570" y="106" on="1"/>
        <pt x="784" y="106" on="1"/>
        <pt x="925" y="693" on="1"/>
        <pt x="1051" y="693" on="1"/>
      </contour>
    </TTGlyph>
    <TTGlyph name="afii10043" xMin="78" yMin="-185" xMax="1051" yMax="693">
      <contour>
        <pt x="244" y="693" on="1"/>
        <pt x="370" y="693" on="1"/>
        <pt x="229" y="106" on="1"/>
        <pt x="443" y="106" on="1"/>
        <pt x="584" y="693" on="1"/>
        <pt x="711" y="693" on="1"/>
        <pt x="570" y="106" on="1"/>
        <pt x="784" y="106" on="1"/>
        <pt x="925" y="693" on="1"/>
        <pt x="1051" y="693" on="1"/>
        <pt x="910" y="106" on="1"/>
        <pt x="1014" y="106" on="1"/>
        <pt x="944" y="-185" on="1"/>
        <pt x="824" y="-185" on="1"/>
        <pt x="869" y="0" on="1"/>
        <pt x="78" y="0" on="1"/>
      </contour>
    </TTGlyph>
    <TTGlyph name="afii10044" xMin="162" yMin="-8" xMax="740" yMax="693">
      <contour>
        <pt x="481" y="693" on="1"/>
        <pt x="423" y="451" on="1"/>
        <pt x="437" y="453" on="0"/>
        <pt x="477" y="454" on="0"/>
        <pt x="491" y="454" on="1"/>
        <pt x="561" y="454" on="0"/>
        <pt x="656" y="425" on="0"/>
        <pt x="715" y="372" on="0"/>
        <pt x="740" y="300" on="0"/>
        <pt x="740" y="258" on="1"/>
        <pt x="740" y="199" on="0"/>
        <pt x="696" y="102" on="0"/>
        <pt x="608" y="31" on="0"/>
        <pt x="475" y="-8" on="0"/>
        <pt x="387" y="-8" on="1"/>
        <pt x="339" y="-8" on="0"/>
        <pt x="231" y="3" on="0"/>
        <pt x="191" y="13" on="1"/>
        <pt x="328" y="586" on="1"/>
        <pt x="162" y="586" on="1"/>
        <pt x="187" y="693" on="1"/>
      </contour>
      <contour>
        <pt x="339" y="103" on="1"/>
        <pt x="350" y="101" on="0"/>
        <pt x="387" y="99" on="0"/>
        <pt x="411" y="99" on="1"/>
        <pt x="505" y="99" on="0"/>
        <pt x="610" y="177" on="0"/>
        <pt x="610" y="250" on="1"/>
        <pt x="610" y="297" on="0"/>
        <pt x="545" y="349" on="0"/>
        <pt x="472" y="349" on="1"/>
        <pt x="450" y="349" on="0"/>
        <pt x="410" y="347" on="0"/>
        <pt x="397" y="346" on="1"/>
      </contour>
    </TTGlyph>
    <TTGlyph name="afii10045" xMin="80" yMin="-8" xMax="953" yMax="693">
      <contour>
        <pt x="787" y="0" on="1"/>
        <pt x="664" y="0" on="1"/>
        <pt x="830" y="693" on="1"/>
        <pt x="953" y="693" on="1"/>
      </contour>
      <contour>
        <pt x="243" y="693" on="1"/>
        <pt x="370" y="693" on="1"/>
        <pt x="312" y="451" on="1"/>
        <pt x="326" y="453" on="0"/>
        <pt x="365" y="454" on="0"/>
        <pt x="378" y="454" on="1"/>
        <pt x="447" y="454" on="0"/>
        <pt x="541" y="425" on="0"/>
        <pt x="599" y="372" on="0"/>
        <pt x="624" y="300" on="0"/>
        <pt x="624" y="258" on="1"/>
        <pt x="624" y="200" on="0"/>
        <pt x="581" y="103" on="0"/>
        <pt x="494" y="32" on="0"/>
        <pt x="362" y="-8" on="0"/>
        <pt x="274" y="-8" on="1"/>
        <pt x="227" y="-8" on="0"/>
        <pt x="120" y="3" on="0"/>
        <pt x="80" y="13" on="1"/>
      </contour>
      <contour>
        <pt x="228" y="103" on="1"/>
        <pt x="239" y="101" on="0"/>
        <pt x="276" y="99" on="0"/>
        <pt x="299" y="99" on="1"/>
        <pt x="393" y="99" on="0"/>
        <pt x="494" y="178" on="0"/>
        <pt x="494" y="250" on="1"/>
        <pt x="494" y="295" on="0"/>
        <pt x="429" y="349" on="0"/>
        <pt x="359" y="349" on="1"/>
        <pt x="339" y="349" on="0"/>
        <pt x="299" y="347" on="0"/>
        <pt x="286" y="346" on="1"/>
      </contour>
    </TTGlyph>
    <TTGlyph name="afii10046" xMin="81" yMin="-8" xMax="630" yMax="693">
      <contour>
        <pt x="245" y="693" on="1"/>
        <pt x="371" y="693" on="1"/>
        <pt x="313" y="451" on="1"/>
        <pt x="327" y="453" on="0"/>
        <pt x="367" y="454" on="0"/>
        <pt x="381" y="454" on="1"/>
        <pt x="451" y="454" on="0"/>
        <pt x="546" y="425" on="0"/>
        <pt x="605" y="372" on="0"/>
        <pt x="630" y="300" on="0"/>
        <pt x="630" y="258" on="1"/>
        <pt x="630" y="199" on="0"/>
        <pt x="586" y="102" on="0"/>
        <pt x="498" y="31" on="0"/>
        <pt x="366" y="-8" on="0"/>
        <pt x="277" y="-8" on="1"/>
        <pt x="229" y="-8" on="0"/>
        <pt x="121" y="3" on="0"/>
        <pt x="81" y="13" on="1"/>
      </contour>
      <contour>
        <pt x="229" y="103" on="1"/>
        <pt x="240" y="101" on="0"/>
        <pt x="278" y="99" on="0"/>
        <pt x="302" y="99" on="1"/>
        <pt x="396" y="99" on="0"/>
        <pt x="501" y="177" on="0"/>
        <pt x="501" y="250" on="1"/>
        <pt x="501" y="297" on="0"/>
        <pt x="433" y="349" on="0"/>
        <pt x="362" y="349" on="1"/>
        <pt x="341" y="349" on="0"/>
        <pt x="302" y="348" on="0"/>
        <pt x="288" y="346" on="1"/>
      </contour>
    </TTGlyph>
    <TTGlyph name="afii10047" xMin="32" yMin="-15" xMax="643" yMax="709">
      <contour>
        <pt x="178" y="668" on="1"/>
        <pt x="207" y="682" on="0"/>
        <pt x="312" y="709" on="0"/>
        <pt x="379" y="709" on="1"/>
        <pt x="436" y="709" on="0"/>
        <pt x="532" y="677" on="0"/>
        <pt x="603" y="613" on="0"/>
        <pt x="643" y="517" on="0"/>
        <pt x="643" y="453" on="1"/>
        <pt x="643" y="344" on="0"/>
        <pt x="583" y="171" on="0"/>
        <pt x="475" y="50" on="0"/>
        <pt x="325" y="-15" on="0"/>
        <pt x="234" y="-15" on="1"/>
        <pt x="162" y="-15" on="0"/>
        <pt x="60" y="18" on="0"/>
        <pt x="32" y="35" on="1"/>
        <pt x="87" y="135" on="1"/>
        <pt x="116" y="118" on="0"/>
        <pt x="192" y="94" on="0"/>
        <pt x="240" y="94" on="1"/>
        <pt x="292" y="94" on="0"/>
        <pt x="376" y="125" on="0"/>
        <pt x="441" y="180" on="0"/>
        <pt x="485" y="256" on="0"/>
        <pt x="498" y="300" on="1"/>
        <pt x="211" y="300" on="1"/>
        <pt x="237" y="406" on="1"/>
        <pt x="516" y="406" on="1"/>
        <pt x="517" y="420" on="0"/>
        <pt x="517" y="429" on="0"/>
        <pt x="517" y="437" on="1"/>
        <pt x="517" y="480" on="0"/>
        <pt x="493" y="541" on="0"/>
        <pt x="449" y="580" on="0"/>
        <pt x="389" y="598" on="0"/>
        <pt x="353" y="598" on="1"/>
        <pt x="300" y="598" on="0"/>
        <pt x="215" y="575" on="0"/>
        <pt x="186" y="562" on="1"/>
      </contour>
    </TTGlyph>
    <TTGlyph name="afii10048" xMin="78" yMin="-15" xMax="1070" yMax="709">
      <contour>
        <pt x="678" y="-15" on="1"/>
        <pt x="621" y="-15" on="0"/>
        <pt x="524" y="22" on="0"/>
        <pt x="455" y="92" on="0"/>
        <pt x="416" y="196" on="0"/>
        <pt x="416" y="263" on="1"/>
        <pt x="416" y="274" on="0"/>
        <pt x="417" y="297" on="0"/>
        <pt x="418" y="308" on="1"/>
        <pt x="278" y="308" on="1"/>
        <pt x="204" y="0" on="1"/>
        <pt x="78" y="0" on="1"/>
        <pt x="243" y="693" on="1"/>
        <pt x="370" y="693" on="1"/>
        <pt x="303" y="415" on="1"/>
        <pt x="439" y="415" on="1"/>
        <pt x="458" y="475" on="0"/>
        <pt x="524" y="581" on="0"/>
        <pt x="617" y="662" on="0"/>
        <pt x="736" y="709" on="0"/>
        <pt x="808" y="709" on="1"/>
        <pt x="865" y="709" on="0"/>
        <pt x="961" y="672" on="0"/>
        <pt x="1031" y="602" on="0"/>
        <pt x="1070" y="498" on="0"/>
        <pt x="1070" y="431" on="1"/>
        <pt x="1070" y="351" on="0"/>
        <pt x="1018" y="191" on="0"/>
        <pt x="919" y="64" on="0"/>
        <pt x="772" y="-15" on="0"/>
      </contour>
      <contour>
        <pt x="795" y="600" on="1"/>
        <pt x="740" y="600" on="0"/>
        <pt x="648" y="543" on="0"/>
        <pt x="582" y="451" on="0"/>
        <pt x="546" y="334" on="0"/>
        <pt x="546" y="274" on="1"/>
        <pt x="546" y="192" on="0"/>
        <pt x="615" y="94" on="0"/>
        <pt x="691" y="94" on="1"/>
        <pt x="746" y="94" on="0"/>
        <pt x="837" y="151" on="0"/>
        <pt x="903" y="243" on="0"/>
        <pt x="939" y="360" on="0"/>
        <pt x="939" y="420" on="1"/>
        <pt x="939" y="502" on="0"/>
        <pt x="870" y="600" on="0"/>
      </contour>
    </TTGlyph>
    <TTGlyph name="afii10049" xMin="37" yMin="0" xMax="720" yMax="700">
      <contour>
        <pt x="572" y="589" on="1"/>
        <pt x="561" y="591" on="0"/>
        <pt x="523" y="593" on="0"/>
        <pt x="498" y="593" on="1"/>
        <pt x="462" y="593" on="0"/>
        <pt x="394" y="580" on="0"/>
        <pt x="341" y="548" on="0"/>
        <pt x="308" y="493" on="0"/>
        <pt x="308" y="451" on="1"/>
        <pt x="308" y="405" on="0"/>
        <pt x="370" y="364" on="0"/>
        <pt x="437" y="364" on="1"/>
        <pt x="518" y="364" on="1"/>
      </contour>
      <contour>
        <pt x="176" y="437" on="1"/>
        <pt x="176" y="507" on="0"/>
        <pt x="233" y="607" on="0"/>
        <pt x="329" y="671" on="0"/>
        <pt x="454" y="700" on="0"/>
        <pt x="522" y="700" on="1"/>
        <pt x="576" y="700" on="0"/>
        <pt x="678" y="690" on="0"/>
        <pt x="720" y="680" on="1"/>
        <pt x="557" y="0" on="1"/>
        <pt x="431" y="0" on="1"/>
        <pt x="493" y="260" on="1"/>
        <pt x="445" y="260" on="1"/>
        <pt x="430" y="260" on="0"/>
        <pt x="399" y="261" on="0"/>
        <pt x="379" y="263" on="1"/>
        <pt x="357" y="239" on="0"/>
        <pt x="306" y="179" on="0"/>
        <pt x="252" y="110" on="0"/>
        <pt x="197" y="36" on="0"/>
        <pt x="172" y="0" on="1"/>
        <pt x="37" y="0" on="1"/>
        <pt x="64" y="40" on="0"/>
        <pt x="125" y="122" on="0"/>
        <pt x="187" y="198" on="0"/>
        <pt x="243" y="265" on="0"/>
        <pt x="266" y="289" on="1"/>
        <pt x="221" y="315" on="0"/>
        <pt x="176" y="383" on="0"/>
      </contour>
    </TTGlyph>
    <TTGlyph name="afii10050" xMin="77" yMin="0" xMax="698" yMax="825">
      <contour>
        <pt x="344" y="586" on="1"/>
        <pt x="203" y="0" on="1"/>
        <pt x="77" y="0" on="1"/>
        <pt x="243" y="693" on="1"/>
        <pt x="547" y="693" on="1"/>
        <pt x="579" y="825" on="1"/>
        <pt x="698" y="825" on="1"/>
        <pt x="640" y="586" on="1"/>
      </contour>
    </TTGlyph>
    <TTGlyph name="afii10051" xMin="162" yMin="-5" xMax="778" yMax="693">
      <contour>
        <pt x="727" y="693" on="1"/>
        <pt x="701" y="586" on="1"/>
        <pt x="480" y="586" on="1"/>
        <pt x="441" y="423" on="1"/>
        <pt x="465" y="429" on="0"/>
        <pt x="529" y="438" on="0"/>
        <pt x="557" y="438" on="1"/>
        <pt x="614" y="438" on="0"/>
        <pt x="697" y="409" on="0"/>
        <pt x="752" y="358" on="0"/>
        <pt x="778" y="289" on="0"/>
        <pt x="778" y="248" on="1"/>
        <pt x="778" y="191" on="0"/>
        <pt x="742" y="98" on="0"/>
        <pt x="675" y="31" on="0"/>
        <pt x="577" y="-5" on="0"/>
        <pt x="514" y="-5" on="1"/>
        <pt x="497" y="-5" on="0"/>
        <pt x="463" y="-1" on="0"/>
        <pt x="450" y="1" on="1"/>
        <pt x="475" y="97" on="1"/>
        <pt x="483" y="95" on="0"/>
        <pt x="506" y="93" on="0"/>
        <pt x="517" y="93" on="1"/>
        <pt x="551" y="93" on="0"/>
        <pt x="602" y="116" on="0"/>
        <pt x="635" y="154" on="0"/>
        <pt x="652" y="204" on="0"/>
        <pt x="652" y="232" on="1"/>
        <pt x="652" y="287" on="0"/>
        <pt x="584" y="333" on="0"/>
        <pt x="524" y="333" on="1"/>
        <pt x="499" y="333" on="0"/>
        <pt x="436" y="325" on="0"/>
        <pt x="416" y="319" on="1"/>
        <pt x="339" y="0" on="1"/>
        <pt x="213" y="0" on="1"/>
        <pt x="354" y="586" on="1"/>
        <pt x="162" y="586" on="1"/>
        <pt x="187" y="693" on="1"/>
      </contour>
    </TTGlyph>
    <TTGlyph name="afii10052" xMin="78" yMin="0" xMax="656" yMax="954">
      <component glyphName="afii10020" x="0" y="0" flags="0x204"/>
      <component glyphName="acute" x="259" y="162" flags="0x4"/>
    </TTGlyph>
    <TTGlyph name="afii10053" xMin="121" yMin="-15" xMax="732" yMax="709">
      <contour>
        <pt x="680" y="559" on="1"/>
        <pt x="647" y="576" on="0"/>
        <pt x="566" y="599" on="0"/>
        <pt x="520" y="599" on="1"/>
        <pt x="476" y="599" on="0"/>
        <pt x="398" y="571" on="0"/>
        <pt x="335" y="521" on="0"/>
        <pt x="288" y="449" on="0"/>
        <pt x="274" y="406" on="1"/>
        <pt x="560" y="406" on="1"/>
        <pt x="534" y="300" on="1"/>
        <pt x="252" y="300" on="1"/>
        <pt x="249" y="280" on="0"/>
        <pt x="249" y="258" on="1"/>
        <pt x="249" y="223" on="0"/>
        <pt x="270" y="164" on="0"/>
        <pt x="312" y="121" on="0"/>
        <pt x="374" y="96" on="0"/>
        <pt x="415" y="96" on="1"/>
        <pt x="474" y="96" on="0"/>
        <pt x="566" y="124" on="0"/>
        <pt x="600" y="140" on="1"/>
        <pt x="616" y="34" on="1"/>
        <pt x="571" y="14" on="0"/>
        <pt x="464" y="-15" on="0"/>
        <pt x="397" y="-15" on="1"/>
        <pt x="262" y="-15" on="0"/>
        <pt x="121" y="136" on="0"/>
        <pt x="121" y="271" on="1"/>
        <pt x="121" y="353" on="0"/>
        <pt x="174" y="511" on="0"/>
        <pt x="279" y="634" on="0"/>
        <pt x="432" y="709" on="0"/>
        <pt x="533" y="709" on="1"/>
        <pt x="599" y="709" on="0"/>
        <pt x="697" y="681" on="0"/>
        <pt x="732" y="661" on="1"/>
      </contour>
    </TTGlyph>
    <TTGlyph name="afii10054" xMin="36" yMin="-15" xMax="612" yMax="709">
      <component glyphName="S" x="0" y="0" flags="0x204"/>
    </TTGlyph>
    <TTGlyph name="afii10055" xMin="78" yMin="0" xMax="370" yMax="693">
      <component glyphName="I" x="0" y="0" flags="0x204"/>
    </TTGlyph>
    <TTGlyph name="afii10056" xMin="78" yMin="0" xMax="510" yMax="902">
      <component glyphName="I" x="0" y="0" flags="0x204"/>
      <component glyphName="dieresis" x="-14" y="158" flags="0x4"/>
    </TTGlyph>
    <TTGlyph name="afii10057" xMin="21" yMin="-15" xMax="583" yMax="693">
      <component glyphName="J" x="0" y="0" flags="0x204"/>
    </TTGlyph>
    <TTGlyph name="afii10058" xMin="19" yMin="-12" xMax="1015" yMax="693">
      <contour>
        <pt x="438" y="585" on="1"/>
        <pt x="412" y="470" on="0"/>
        <pt x="353" y="270" on="0"/>
        <pt x="315" y="191" on="1"/>
        <pt x="297" y="153" on="0"/>
        <pt x="247" y="83" on="0"/>
        <pt x="179" y="28" on="0"/>
        <pt x="89" y="-8" on="0"/>
        <pt x="31" y="-12" on="1"/>
        <pt x="19" y="98" on="1"/>
        <pt x="88" y="105" on="0"/>
        <pt x="184" y="190" on="0"/>
        <pt x="256" y="340" on="0"/>
        <pt x="311" y="555" on="0"/>
        <pt x="340" y="693" on="1"/>
        <pt x="759" y="693" on="1"/>
        <pt x="700" y="444" on="1"/>
        <pt x="717" y="445" on="0"/>
        <pt x="750" y="445" on="0"/>
        <pt x="764" y="445" on="1"/>
        <pt x="897" y="445" on="0"/>
        <pt x="1015" y="349" on="0"/>
        <pt x="1015" y="258" on="1"/>
        <pt x="1015" y="187" on="0"/>
        <pt x="959" y="86" on="0"/>
        <pt x="863" y="22" on="0"/>
        <pt x="736" y="-7" on="0"/>
        <pt x="665" y="-7" on="1"/>
        <pt x="618" y="-7" on="0"/>
        <pt x="511" y="3" on="0"/>
        <pt x="471" y="13" on="1"/>
        <pt x="608" y="585" on="1"/>
      </contour>
      <contour>
        <pt x="619" y="104" on="1"/>
        <pt x="644" y="99" on="0"/>
        <pt x="689" y="99" on="1"/>
        <pt x="786" y="99" on="0"/>
        <pt x="885" y="175" on="0"/>
        <pt x="885" y="247" on="1"/>
        <pt x="885" y="292" on="0"/>
        <pt x="817" y="340" on="0"/>
        <pt x="745" y="340" on="1"/>
        <pt x="724" y="340" on="0"/>
        <pt x="695" y="340" on="0"/>
        <pt x="675" y="338" on="1"/>
      </contour>
    </TTGlyph>
    <TTGlyph name="afii10059" xMin="78" yMin="-7" xMax="1035" yMax="693">
      <contour>
        <pt x="717" y="434" on="1"/>
        <pt x="734" y="435" on="0"/>
        <pt x="770" y="436" on="0"/>
        <pt x="784" y="436" on="1"/>
        <pt x="916" y="436" on="0"/>
        <pt x="1035" y="342" on="0"/>
        <pt x="1035" y="254" on="1"/>
        <pt x="1035" y="184" on="0"/>
        <pt x="979" y="85" on="0"/>
        <pt x="883" y="22" on="0"/>
        <pt x="756" y="-7" on="0"/>
        <pt x="685" y="-7" on="1"/>
        <pt x="638" y="-7" on="0"/>
        <pt x="531" y="3" on="0"/>
        <pt x="491" y="13" on="1"/>
        <pt x="565" y="324" on="1"/>
        <pt x="281" y="324" on="1"/>
        <pt x="204" y="0" on="1"/>
        <pt x="78" y="0" on="1"/>
        <pt x="244" y="693" on="1"/>
        <pt x="370" y="693" on="1"/>
        <pt x="307" y="430" on="1"/>
        <pt x="590" y="430" on="1"/>
        <pt x="654" y="693" on="1"/>
        <pt x="779" y="693" on="1"/>
      </contour>
      <contour>
        <pt x="639" y="104" on="1"/>
        <pt x="664" y="99" on="0"/>
        <pt x="709" y="99" on="1"/>
        <pt x="806" y="99" on="0"/>
        <pt x="905" y="175" on="0"/>
        <pt x="905" y="243" on="1"/>
        <pt x="905" y="285" on="0"/>
        <pt x="835" y="331" on="0"/>
        <pt x="763" y="331" on="1"/>
        <pt x="738" y="331" on="0"/>
        <pt x="707" y="330" on="0"/>
        <pt x="693" y="328" on="1"/>
      </contour>
    </TTGlyph>
    <TTGlyph name="afii10060" xMin="162" yMin="0" xMax="745" yMax="693">
      <contour>
        <pt x="339" y="0" on="1"/>
        <pt x="213" y="0" on="1"/>
        <pt x="354" y="586" on="1"/>
        <pt x="162" y="586" on="1"/>
        <pt x="187" y="693" on="1"/>
        <pt x="727" y="693" on="1"/>
        <pt x="701" y="586" on="1"/>
        <pt x="480" y="586" on="1"/>
        <pt x="441" y="424" on="1"/>
        <pt x="462" y="430" on="0"/>
        <pt x="525" y="439" on="0"/>
        <pt x="554" y="439" on="1"/>
        <pt x="645" y="439" on="0"/>
        <pt x="745" y="359" on="0"/>
        <pt x="745" y="282" on="1"/>
        <pt x="745" y="244" on="0"/>
        <pt x="735" y="204" on="1"/>
        <pt x="685" y="0" on="1"/>
        <pt x="559" y="0" on="1"/>
        <pt x="609" y="206" on="1"/>
        <pt x="617" y="238" on="0"/>
        <pt x="617" y="258" on="1"/>
        <pt x="617" y="296" on="0"/>
        <pt x="568" y="332" on="0"/>
        <pt x="512" y="332" on="1"/>
        <pt x="490" y="332" on="0"/>
        <pt x="433" y="324" on="0"/>
        <pt x="416" y="318" on="1"/>
      </contour>
    </TTGlyph>
    <TTGlyph name="afii10061" xMin="78" yMin="0" xMax="773" yMax="954">
      <component glyphName="K" x="0" y="0" flags="0x204"/>
      <component glyphName="acute" x="296" y="162" flags="0x4"/>
    </TTGlyph>
    <TTGlyph name="afii10062" xMin="31" yMin="-12" xMax="727" yMax="909">
      <component glyphName="afii10037" x="0" y="0" flags="0x204"/>
      <component glyphName="kratka" x="201" y="154" flags="0x4"/>
    </TTGlyph>
    <TTGlyph name="afii10065" xMin="95" yMin="-14" xMax="602" yMax="533">
      <component glyphName="a" x="0" y="0" flags="0x204"/>
    </TTGlyph>
    <TTGlyph name="afii10066" xMin="104" yMin="-14" xMax="645" yMax="776">
      <contour>
        <pt x="376" y="411" on="1"/>
        <pt x="343" y="411" on="0"/>
        <pt x="276" y="388" on="0"/>
        <pt x="250" y="370" on="1"/>
        <pt x="236" y="321" on="0"/>
        <pt x="221" y="237" on="0"/>
        <pt x="221" y="206" on="1"/>
        <pt x="221" y="143" on="0"/>
        <pt x="261" y="89" on="0"/>
        <pt x="303" y="89" on="1"/>
        <pt x="337" y="89" on="0"/>
        <pt x="396" y="125" on="0"/>
        <pt x="439" y="187" on="0"/>
        <pt x="463" y="267" on="0"/>
        <pt x="463" y="311" on="1"/>
        <pt x="463" y="357" on="0"/>
        <pt x="423" y="411" on="0"/>
      </contour>
      <contour>
        <pt x="640" y="670" on="1"/>
        <pt x="616" y="664" on="0"/>
        <pt x="552" y="657" on="0"/>
        <pt x="508" y="651" on="1"/>
        <pt x="421" y="640" on="0"/>
        <pt x="316" y="559" on="0"/>
        <pt x="285" y="481" on="1"/>
        <pt x="311" y="495" on="0"/>
        <pt x="377" y="512" on="0"/>
        <pt x="407" y="512" on="1"/>
        <pt x="485" y="512" on="0"/>
        <pt x="579" y="418" on="0"/>
        <pt x="579" y="328" on="1"/>
        <pt x="579" y="253" on="0"/>
        <pt x="537" y="128" on="0"/>
        <pt x="460" y="37" on="0"/>
        <pt x="351" y="-14" on="0"/>
        <pt x="284" y="-14" on="1"/>
        <pt x="199" y="-14" on="0"/>
        <pt x="104" y="90" on="0"/>
        <pt x="104" y="193" on="1"/>
        <pt x="104" y="265" on="0"/>
        <pt x="141" y="415" on="0"/>
        <pt x="162" y="477" on="1"/>
        <pt x="182" y="537" on="0"/>
        <pt x="242" y="633" on="0"/>
        <pt x="328" y="703" on="0"/>
        <pt x="442" y="747" on="0"/>
        <pt x="516" y="755" on="1"/>
        <pt x="562" y="760" on="0"/>
        <pt x="618" y="769" on="0"/>
        <pt x="645" y="776" on="1"/>
      </contour>
    </TTGlyph>
    <TTGlyph name="afii10066.locl" xMin="95" yMin="-14" xMax="621" yMax="776">
      <contour>
        <pt x="372" y="431" on="1"/>
        <pt x="297" y="398" on="0"/>
        <pt x="213" y="279" on="0"/>
        <pt x="213" y="201" on="1"/>
        <pt x="213" y="151" on="0"/>
        <pt x="264" y="90" on="0"/>
        <pt x="308" y="90" on="1"/>
        <pt x="338" y="90" on="0"/>
        <pt x="388" y="114" on="0"/>
        <pt x="426" y="156" on="0"/>
        <pt x="451" y="214" on="0"/>
        <pt x="454" y="247" on="1"/>
        <pt x="457" y="270" on="0"/>
        <pt x="455" y="296" on="1"/>
        <pt x="452" y="344" on="0"/>
        <pt x="404" y="406" on="0"/>
      </contour>
      <contour>
        <pt x="578" y="289" on="1"/>
        <pt x="578" y="227" on="0"/>
        <pt x="538" y="116" on="0"/>
        <pt x="463" y="34" on="0"/>
        <pt x="357" y="-14" on="0"/>
        <pt x="291" y="-14" on="1"/>
        <pt x="247" y="-14" on="0"/>
        <pt x="175" y="13" on="0"/>
        <pt x="124" y="66" on="0"/>
        <pt x="95" y="142" on="0"/>
        <pt x="95" y="191" on="1"/>
        <pt x="95" y="243" on="0"/>
        <pt x="124" y="333" on="0"/>
        <pt x="176" y="409" on="0"/>
        <pt x="250" y="469" on="0"/>
        <pt x="294" y="490" on="1"/>
        <pt x="271" y="514" on="0"/>
        <pt x="243" y="571" on="0"/>
        <pt x="243" y="606" on="1"/>
        <pt x="243" y="683" on="0"/>
        <pt x="353" y="771" on="0"/>
        <pt x="450" y="771" on="1"/>
        <pt x="498" y="771" on="0"/>
        <pt x="586" y="772" on="0"/>
        <pt x="621" y="776" on="1"/>
        <pt x="604" y="679" on="1"/>
        <pt x="576" y="675" on="0"/>
        <pt x="507" y="673" on="0"/>
        <pt x="459" y="673" on="1"/>
        <pt x="414" y="673" on="0"/>
        <pt x="359" y="650" on="0"/>
        <pt x="359" y="612" on="1"/>
        <pt x="359" y="592" on="0"/>
        <pt x="391" y="557" on="0"/>
        <pt x="440" y="520" on="0"/>
        <pt x="497" y="476" on="0"/>
        <pt x="546" y="418" on="0"/>
        <pt x="578" y="341" on="0"/>
      </contour>
    </TTGlyph>
    <TTGlyph name="afii10067" xMin="72" yMin="-11" xMax="569" yMax="535">
      <contour>
        <pt x="208" y="89" on="1"/>
        <pt x="222" y="87" on="0"/>
        <pt x="265" y="83" on="0"/>
        <pt x="290" y="83" on="1"/>
        <pt x="317" y="83" on="0"/>
        <pt x="367" y="91" on="0"/>
        <pt x="406" y="112" on="0"/>
        <pt x="430" y="145" on="0"/>
        <pt x="430" y="171" on="1"/>
        <pt x="430" y="202" on="0"/>
        <pt x="381" y="229" on="0"/>
        <pt x="332" y="229" on="1"/>
        <pt x="241" y="229" on="1"/>
      </contour>
      <contour>
        <pt x="328" y="313" on="1"/>
        <pt x="389" y="313" on="0"/>
        <pt x="455" y="350" on="0"/>
        <pt x="455" y="388" on="1"/>
        <pt x="455" y="413" on="0"/>
        <pt x="420" y="440" on="0"/>
        <pt x="390" y="440" on="1"/>
        <pt x="343" y="440" on="0"/>
        <pt x="277" y="391" on="0"/>
        <pt x="264" y="326" on="1"/>
        <pt x="261" y="313" on="1"/>
      </contour>
      <contour>
        <pt x="146" y="328" on="1"/>
        <pt x="160" y="386" on="0"/>
        <pt x="209" y="465" on="0"/>
        <pt x="275" y="514" on="0"/>
        <pt x="355" y="535" on="0"/>
        <pt x="400" y="535" on="1"/>
        <pt x="482" y="535" on="0"/>
        <pt x="569" y="462" on="0"/>
        <pt x="569" y="406" on="1"/>
        <pt x="569" y="357" on="0"/>
        <pt x="515" y="287" on="0"/>
        <pt x="470" y="271" on="1"/>
        <pt x="505" y="259" on="0"/>
        <pt x="546" y="203" on="0"/>
        <pt x="546" y="168" on="1"/>
        <pt x="546" y="81" on="0"/>
        <pt x="406" y="-11" on="0"/>
        <pt x="272" y="-11" on="1"/>
        <pt x="222" y="-11" on="0"/>
        <pt x="119" y="2" on="0"/>
        <pt x="72" y="16" on="1"/>
      </contour>
    </TTGlyph>
    <TTGlyph name="afii10068" xMin="70" yMin="-14" xMax="496" yMax="536">
      <contour>
        <pt x="270" y="86" on="1"/>
        <pt x="315" y="86" on="0"/>
        <pt x="392" y="108" on="0"/>
        <pt x="419" y="119" on="1"/>
        <pt x="425" y="18" on="1"/>
        <pt x="416" y="14" on="0"/>
        <pt x="383" y="3" on="0"/>
        <pt x="338" y="-7" on="0"/>
        <pt x="283" y="-14" on="0"/>
        <pt x="252" y="-14" on="1"/>
        <pt x="161" y="-14" on="0"/>
        <pt x="70" y="60" on="0"/>
        <pt x="70" y="119" on="1"/>
        <pt x="70" y="171" on="0"/>
        <pt x="115" y="237" on="0"/>
        <pt x="183" y="279" on="0"/>
        <pt x="263" y="305" on="0"/>
        <pt x="331" y="331" on="0"/>
        <pt x="376" y="365" on="0"/>
        <pt x="376" y="393" on="1"/>
        <pt x="376" y="417" on="0"/>
        <pt x="339" y="438" on="0"/>
        <pt x="306" y="438" on="1"/>
        <pt x="264" y="438" on="0"/>
        <pt x="201" y="418" on="0"/>
        <pt x="180" y="410" on="1"/>
        <pt x="175" y="507" on="1"/>
        <pt x="198" y="517" on="0"/>
        <pt x="285" y="536" on="0"/>
        <pt x="333" y="536" on="1"/>
        <pt x="365" y="536" on="0"/>
        <pt x="424" y="521" on="0"/>
        <pt x="469" y="490" on="0"/>
        <pt x="496" y="442" on="0"/>
        <pt x="496" y="410" on="1"/>
        <pt x="496" y="355" on="0"/>
        <pt x="450" y="286" on="0"/>
        <pt x="382" y="243" on="0"/>
        <pt x="302" y="217" on="0"/>
        <pt x="234" y="191" on="0"/>
        <pt x="188" y="158" on="0"/>
        <pt x="188" y="130" on="1"/>
        <pt x="188" y="105" on="0"/>
        <pt x="228" y="86" on="0"/>
      </contour>
    </TTGlyph>
    <TTGlyph name="afii10068.locl.ita" xMin="73" yMin="0" xMax="455" yMax="715">
      <contour>
        <pt x="154" y="715" on="1"/>
        <pt x="455" y="715" on="1"/>
        <pt x="435" y="631" on="1"/>
        <pt x="133" y="631" on="1"/>
      </contour>
      <contour>
        <pt x="193" y="0" on="1"/>
        <pt x="73" y="0" on="1"/>
        <pt x="198" y="523" on="1"/>
        <pt x="319" y="523" on="1"/>
      </contour>
    </TTGlyph>
    <TTGlyph name="afii10069" xMin="97" yMin="-14" xMax="583" yMax="776">
      <contour>
        <pt x="302" y="674" on="1"/>
        <pt x="272" y="674" on="0"/>
        <pt x="224" y="663" on="0"/>
        <pt x="207" y="655" on="1"/>
        <pt x="198" y="757" on="1"/>
        <pt x="218" y="764" on="0"/>
        <pt x="281" y="776" on="0"/>
        <pt x="318" y="776" on="1"/>
        <pt x="378" y="776" on="0"/>
        <pt x="476" y="740" on="0"/>
        <pt x="545" y="664" on="0"/>
        <pt x="583" y="542" on="0"/>
        <pt x="583" y="457" on="1"/>
        <pt x="583" y="369" on="0"/>
        <pt x="551" y="200" on="0"/>
        <pt x="479" y="67" on="0"/>
        <pt x="364" y="-14" on="0"/>
        <pt x="280" y="-14" on="1"/>
        <pt x="190" y="-14" on="0"/>
        <pt x="97" y="90" on="0"/>
        <pt x="97" y="181" on="1"/>
        <pt x="97" y="246" on="0"/>
        <pt x="133" y="366" on="0"/>
        <pt x="204" y="458" on="0"/>
        <pt x="307" y="513" on="0"/>
        <pt x="374" y="513" on="1"/>
        <pt x="397" y="513" on="0"/>
        <pt x="446" y="504" on="0"/>
        <pt x="467" y="496" on="1"/>
        <pt x="464" y="535" on="0"/>
        <pt x="446" y="600" on="0"/>
        <pt x="408" y="647" on="0"/>
        <pt x="347" y="674" on="0"/>
      </contour>
      <contour>
        <pt x="380" y="414" on="1"/>
        <pt x="338" y="414" on="0"/>
        <pt x="275" y="374" on="0"/>
        <pt x="234" y="309" on="0"/>
        <pt x="213" y="225" on="0"/>
        <pt x="213" y="180" on="1"/>
        <pt x="213" y="142" on="0"/>
        <pt x="250" y="90" on="0"/>
        <pt x="295" y="90" on="1"/>
        <pt x="333" y="90" on="0"/>
        <pt x="394" y="138" on="0"/>
        <pt x="437" y="221" on="0"/>
        <pt x="462" y="332" on="0"/>
        <pt x="465" y="394" on="1"/>
        <pt x="448" y="403" on="0"/>
        <pt x="408" y="414" on="0"/>
      </contour>
    </TTGlyph>
    <TTGlyph name="afii10069.locl.ita" xMin="33" yMin="-188" xMax="612" yMax="535">
      <component glyphName="g" x="0" y="0" flags="0x204"/>
    </TTGlyph>
    <TTGlyph name="afii10070" xMin="97" yMin="-14" xMax="566" yMax="536">
      <component glyphName="e" x="0" y="0" flags="0x204"/>
    </TTGlyph>
    <TTGlyph name="afii10071" xMin="97" yMin="-14" xMax="608" yMax="744">
      <component glyphName="e" x="0" y="0" flags="0x204"/>
      <component glyphName="dieresis" x="84" y="0" flags="0x4"/>
    </TTGlyph>
    <TTGlyph name="afii10072" xMin="23" yMin="-13" xMax="976" yMax="534">
      <contour>
        <pt x="884" y="7" on="1"/>
        <pt x="866" y="-1" on="0"/>
        <pt x="817" y="-13" on="0"/>
        <pt x="791" y="-13" on="1"/>
        <pt x="718" y="-13" on="0"/>
        <pt x="640" y="86" on="0"/>
        <pt x="640" y="170" on="1"/>
        <pt x="640" y="193" on="0"/>
        <pt x="643" y="219" on="1"/>
        <pt x="549" y="219" on="1"/>
        <pt x="496" y="0" on="1"/>
        <pt x="382" y="0" on="1"/>
        <pt x="434" y="219" on="1"/>
        <pt x="348" y="219" on="1"/>
        <pt x="336" y="170" on="0"/>
        <pt x="295" y="86" on="0"/>
        <pt x="235" y="23" on="0"/>
        <pt x="157" y="-13" on="0"/>
        <pt x="109" y="-13" on="1"/>
        <pt x="83" y="-13" on="0"/>
        <pt x="44" y="-5" on="0"/>
        <pt x="23" y="6" on="1"/>
        <pt x="55" y="103" on="1"/>
        <pt x="69" y="95" on="0"/>
        <pt x="97" y="90" on="0"/>
        <pt x="110" y="90" on="1"/>
        <pt x="151" y="90" on="0"/>
        <pt x="208" y="137" on="0"/>
        <pt x="244" y="210" on="0"/>
        <pt x="260" y="298" on="0"/>
        <pt x="260" y="339" on="1"/>
        <pt x="260" y="353" on="0"/>
        <pt x="254" y="386" on="0"/>
        <pt x="239" y="414" on="0"/>
        <pt x="213" y="432" on="0"/>
        <pt x="192" y="432" on="1"/>
        <pt x="181" y="432" on="0"/>
        <pt x="157" y="426" on="0"/>
        <pt x="149" y="422" on="1"/>
        <pt x="143" y="516" on="1"/>
        <pt x="159" y="523" on="0"/>
        <pt x="205" y="534" on="0"/>
        <pt x="228" y="534" on="1"/>
        <pt x="295" y="534" on="0"/>
        <pt x="363" y="436" on="0"/>
        <pt x="363" y="351" on="1"/>
        <pt x="363" y="341" on="0"/>
        <pt x="363" y="322" on="0"/>
        <pt x="361" y="311" on="1"/>
        <pt x="456" y="311" on="1"/>
        <pt x="507" y="523" on="1"/>
        <pt x="622" y="523" on="1"/>
        <pt x="571" y="311" on="1"/>
        <pt x="657" y="311" on="1"/>
        <pt x="670" y="359" on="0"/>
        <pt x="713" y="440" on="0"/>
        <pt x="773" y="500" on="0"/>
        <pt x="849" y="534" on="0"/>
        <pt x="895" y="534" on="1"/>
        <pt x="921" y="534" on="0"/>
        <pt x="956" y="525" on="0"/>
        <pt x="976" y="515" on="1"/>
        <pt x="944" y="419" on="1"/>
        <pt x="920" y="431" on="0"/>
        <pt x="894" y="431" on="1"/>
        <pt x="852" y="431" on="0"/>
        <pt x="795" y="382" on="0"/>
        <pt x="760" y="308" on="0"/>
        <pt x="744" y="221" on="0"/>
        <pt x="744" y="183" on="1"/>
        <pt x="744" y="140" on="0"/>
        <pt x="777" y="89" on="0"/>
        <pt x="813" y="89" on="1"/>
        <pt x="831" y="89" on="0"/>
        <pt x="864" y="97" on="0"/>
        <pt x="878" y="102" on="1"/>
      </contour>
    </TTGlyph>
    <TTGlyph name="afii10073" xMin="39" yMin="-13" xMax="485" yMax="535">
      <contour>
        <pt x="150" y="508" on="1"/>
        <pt x="177" y="518" on="0"/>
        <pt x="262" y="535" on="0"/>
        <pt x="313" y="535" on="1"/>
        <pt x="397" y="535" on="0"/>
        <pt x="485" y="465" on="0"/>
        <pt x="485" y="406" on="1"/>
        <pt x="485" y="367" on="0"/>
        <pt x="434" y="294" on="0"/>
        <pt x="383" y="274" on="1"/>
        <pt x="452" y="243" on="0"/>
        <pt x="452" y="171" on="1"/>
        <pt x="452" y="122" on="0"/>
        <pt x="409" y="52" on="0"/>
        <pt x="337" y="8" on="0"/>
        <pt x="246" y="-13" on="0"/>
        <pt x="198" y="-13" on="1"/>
        <pt x="148" y="-13" on="0"/>
        <pt x="66" y="4" on="0"/>
        <pt x="39" y="18" on="1"/>
        <pt x="75" y="115" on="1"/>
        <pt x="94" y="104" on="0"/>
        <pt x="160" y="88" on="0"/>
        <pt x="207" y="88" on="1"/>
        <pt x="229" y="88" on="0"/>
        <pt x="273" y="96" on="0"/>
        <pt x="309" y="114" on="0"/>
        <pt x="332" y="145" on="0"/>
        <pt x="332" y="169" on="1"/>
        <pt x="332" y="186" on="0"/>
        <pt x="316" y="207" on="0"/>
        <pt x="290" y="219" on="0"/>
        <pt x="259" y="223" on="0"/>
        <pt x="243" y="223" on="1"/>
        <pt x="170" y="223" on="1"/>
        <pt x="192" y="313" on="1"/>
        <pt x="266" y="313" on="1"/>
        <pt x="307" y="313" on="0"/>
        <pt x="366" y="349" on="0"/>
        <pt x="366" y="387" on="1"/>
        <pt x="366" y="416" on="0"/>
        <pt x="322" y="436" on="0"/>
        <pt x="287" y="436" on="1"/>
        <pt x="268" y="436" on="0"/>
        <pt x="228" y="430" on="0"/>
        <pt x="192" y="423" on="0"/>
        <pt x="164" y="414" on="0"/>
        <pt x="157" y="411" on="1"/>
      </contour>
    </TTGlyph>
    <TTGlyph name="afii10074" xMin="107" yMin="-13" xMax="608" yMax="523">
      <component glyphName="u" x="0" y="0" flags="0x204"/>
    </TTGlyph>
    <TTGlyph name="afii10075" xMin="107" yMin="-13" xMax="608" yMax="755">
      <component glyphName="u" x="0" y="0" flags="0x204"/>
      <component glyphName="kratka" x="158" y="0" flags="0x4"/>
    </TTGlyph>
    <TTGlyph name="afii10076" xMin="73" yMin="0" xMax="643" yMax="523">
      <contour>
        <pt x="319" y="523" on="1"/>
        <pt x="271" y="321" on="1"/>
        <pt x="303" y="345" on="0"/>
        <pt x="369" y="401" on="0"/>
        <pt x="429" y="455" on="0"/>
        <pt x="479" y="505" on="0"/>
        <pt x="497" y="523" on="1"/>
        <pt x="643" y="523" on="1"/>
        <pt x="618" y="495" on="0"/>
        <pt x="555" y="433" on="0"/>
        <pt x="485" y="369" on="0"/>
        <pt x="410" y="306" on="0"/>
        <pt x="374" y="279" on="1"/>
        <pt x="399" y="253" on="0"/>
        <pt x="450" y="186" on="0"/>
        <pt x="496" y="111" on="0"/>
        <pt x="535" y="34" on="0"/>
        <pt x="548" y="0" on="1"/>
        <pt x="414" y="0" on="1"/>
        <pt x="385" y="66" on="0"/>
        <pt x="300" y="198" on="0"/>
        <pt x="252" y="243" on="1"/>
        <pt x="193" y="0" on="1"/>
        <pt x="73" y="0" on="1"/>
        <pt x="198" y="523" on="1"/>
      </contour>
    </TTGlyph>
    <TTGlyph name="afii10077" xMin="36" yMin="-9" xMax="633" yMax="523">
      <contour>
        <pt x="358" y="423" on="1"/>
        <pt x="335" y="333" on="0"/>
        <pt x="291" y="179" on="0"/>
        <pt x="222" y="64" on="0"/>
        <pt x="118" y="-5" on="0"/>
        <pt x="37" y="-9" on="1"/>
        <pt x="36" y="91" on="1"/>
        <pt x="78" y="93" on="0"/>
        <pt x="140" y="136" on="0"/>
        <pt x="185" y="204" on="0"/>
        <pt x="216" y="291" on="0"/>
        <pt x="238" y="386" on="0"/>
        <pt x="255" y="481" on="0"/>
        <pt x="264" y="523" on="1"/>
        <pt x="633" y="523" on="1"/>
        <pt x="507" y="0" on="1"/>
        <pt x="386" y="0" on="1"/>
        <pt x="487" y="423" on="1"/>
      </contour>
    </TTGlyph>
    <TTGlyph name="afii10078" xMin="73" yMin="0" xMax="746" yMax="523">
      <contour>
        <pt x="347" y="65" on="1"/>
        <pt x="342" y="93" on="0"/>
        <pt x="328" y="166" on="0"/>
        <pt x="313" y="244" on="0"/>
        <pt x="298" y="321" on="0"/>
        <pt x="291" y="354" on="1"/>
        <pt x="262" y="265" on="0"/>
        <pt x="208" y="78" on="0"/>
        <pt x="187" y="0" on="1"/>
        <pt x="73" y="0" on="1"/>
        <pt x="89" y="58" on="0"/>
        <pt x="130" y="194" on="0"/>
        <pt x="174" y="333" on="0"/>
        <pt x="219" y="466" on="0"/>
        <pt x="239" y="523" on="1"/>
        <pt x="348" y="523" on="1"/>
        <pt x="363" y="458" on="0"/>
        <pt x="396" y="285" on="0"/>
        <pt x="414" y="186" on="1"/>
        <pt x="483" y="298" on="0"/>
        <pt x="595" y="466" on="0"/>
        <pt x="637" y="523" on="1"/>
        <pt x="746" y="523" on="1"/>
        <pt x="741" y="468" on="0"/>
        <pt x="728" y="339" on="0"/>
        <pt x="710" y="203" on="0"/>
        <pt x="687" y="65" on="0"/>
        <pt x="673" y="0" on="1"/>
        <pt x="554" y="0" on="1"/>
        <pt x="572" y="79" on="0"/>
        <pt x="609" y="263" on="0"/>
        <pt x="624" y="352" on="1"/>
        <pt x="601" y="319" on="0"/>
        <pt x="551" y="243" on="0"/>
        <pt x="500" y="166" on="0"/>
        <pt x="454" y="94" on="0"/>
        <pt x="436" y="65" on="1"/>
      </contour>
    </TTGlyph>
    <TTGlyph name="afii10079" xMin="73" yMin="0" xMax="631" yMax="523">
      <contour>
        <pt x="505" y="0" on="1"/>
        <pt x="384" y="0" on="1"/>
        <pt x="436" y="219" on="1"/>
        <pt x="246" y="219" on="1"/>
        <pt x="194" y="0" on="1"/>
        <pt x="73" y="0" on="1"/>
        <pt x="199" y="523" on="1"/>
        <pt x="320" y="523" on="1"/>
        <pt x="271" y="319" on="1"/>
        <pt x="461" y="319" on="1"/>
        <pt x="510" y="523" on="1"/>
        <pt x="631" y="523" on="1"/>
      </contour>
    </TTGlyph>
    <TTGlyph name="afii10080" xMin="97" yMin="-14" xMax="586" yMax="536">
      <component glyphName="o" x="0" y="0" flags="0x204"/>
    </TTGlyph>
    <TTGlyph name="afii10081" xMin="73" yMin="0" xMax="575" yMax="534">
      <component glyphName="n" x="0" y="0" flags="0x204"/>
    </TTGlyph>
    <TTGlyph name="afii10081.locl.ita" xMin="107" yMin="-13" xMax="654" yMax="715">
      <contour>
        <pt x="608" y="523" on="1"/>
        <pt x="534" y="212" on="1"/>
        <pt x="529" y="189" on="0"/>
        <pt x="524" y="143" on="0"/>
        <pt x="524" y="120" on="1"/>
        <pt x="524" y="91" on="0"/>
        <pt x="533" y="35" on="0"/>
        <pt x="544" y="8" on="1"/>
        <pt x="436" y="-8" on="1"/>
        <pt x="430" y="3" on="0"/>
        <pt x="421" y="30" on="0"/>
        <pt x="417" y="44" on="1"/>
        <pt x="392" y="24" on="0"/>
        <pt x="318" y="-13" on="0"/>
        <pt x="269" y="-13" on="1"/>
        <pt x="225" y="-13" on="0"/>
        <pt x="163" y="13" on="0"/>
        <pt x="124" y="58" on="0"/>
        <pt x="107" y="119" on="0"/>
        <pt x="107" y="153" on="1"/>
        <pt x="107" y="197" on="0"/>
        <pt x="119" y="248" on="1"/>
        <pt x="185" y="523" on="1"/>
        <pt x="306" y="523" on="1"/>
        <pt x="241" y="251" on="1"/>
        <pt x="228" y="199" on="0"/>
        <pt x="228" y="166" on="1"/>
        <pt x="228" y="150" on="0"/>
        <pt x="234" y="122" on="0"/>
        <pt x="249" y="101" on="0"/>
        <pt x="276" y="89" on="0"/>
        <pt x="296" y="89" on="1"/>
        <pt x="329" y="89" on="0"/>
        <pt x="381" y="116" on="0"/>
        <pt x="403" y="139" on="1"/>
        <pt x="406" y="182" on="0"/>
        <pt x="417" y="227" on="1"/>
        <pt x="487" y="523" on="1"/>
      </contour>
      <contour>
        <pt x="229" y="715" on="1"/>
        <pt x="654" y="715" on="1"/>
        <pt x="633" y="631" on="1"/>
        <pt x="209" y="631" on="1"/>
      </contour>
    </TTGlyph>
    <TTGlyph name="afii10082" xMin="29" yMin="-185" xMax="589" yMax="535">
      <component glyphName="p" x="0" y="0" flags="0x204"/>
    </TTGlyph>
    <TTGlyph name="afii10083" xMin="97" yMin="-14" xMax="543" yMax="536">
      <component glyphName="c" x="0" y="0" flags="0x204"/>
    </TTGlyph>
    <TTGlyph name="afii10084" xMin="73" yMin="0" xMax="853" yMax="534">
      <component glyphName="m" x="0" y="0" flags="0x204"/>
    </TTGlyph>
    <TTGlyph name="afii10084.locl.ita" xMin="120" yMin="-13" xMax="942" yMax="715">
      <contour>
        <pt x="827" y="217" on="1"/>
        <pt x="815" y="166" on="0"/>
        <pt x="815" y="121" on="1"/>
        <pt x="815" y="92" on="0"/>
        <pt x="825" y="38" on="0"/>
        <pt x="836" y="8" on="1"/>
        <pt x="728" y="-8" on="1"/>
        <pt x="722" y="4" on="0"/>
        <pt x="713" y="30" on="0"/>
        <pt x="709" y="44" on="1"/>
        <pt x="685" y="23" on="0"/>
        <pt x="614" y="-13" on="0"/>
        <pt x="569" y="-13" on="1"/>
        <pt x="500" y="-13" on="0"/>
        <pt x="452" y="37" on="1"/>
        <pt x="423" y="20" on="0"/>
        <pt x="340" y="-13" on="0"/>
        <pt x="288" y="-13" on="1"/>
        <pt x="203" y="-13" on="0"/>
        <pt x="120" y="81" on="0"/>
        <pt x="120" y="160" on="1"/>
        <pt x="120" y="200" on="0"/>
        <pt x="131" y="247" on="1"/>
        <pt x="198" y="523" on="1"/>
        <pt x="319" y="523" on="1"/>
        <pt x="256" y="260" on="1"/>
        <pt x="251" y="241" on="0"/>
        <pt x="242" y="195" on="0"/>
        <pt x="242" y="173" on="1"/>
        <pt x="242" y="139" on="0"/>
        <pt x="275" y="90" on="0"/>
        <pt x="322" y="90" on="1"/>
        <pt x="348" y="90" on="0"/>
        <pt x="397" y="109" on="0"/>
        <pt x="414" y="120" on="1"/>
        <pt x="411" y="138" on="0"/>
        <pt x="411" y="156" on="1"/>
        <pt x="411" y="178" on="0"/>
        <pt x="416" y="224" on="0"/>
        <pt x="422" y="248" on="1"/>
        <pt x="488" y="523" on="1"/>
        <pt x="609" y="523" on="1"/>
        <pt x="547" y="261" on="1"/>
        <pt x="542" y="243" on="0"/>
        <pt x="533" y="195" on="0"/>
        <pt x="533" y="171" on="1"/>
        <pt x="533" y="155" on="0"/>
        <pt x="540" y="126" on="0"/>
        <pt x="556" y="103" on="0"/>
        <pt x="582" y="90" on="0"/>
        <pt x="602" y="90" on="1"/>
        <pt x="629" y="90" on="0"/>
        <pt x="677" y="119" on="0"/>
        <pt x="695" y="139" on="1"/>
        <pt x="696" y="150" on="0"/>
        <pt x="702" y="200" on="0"/>
        <pt x="707" y="222" on="1"/>
        <pt x="779" y="523" on="1"/>
        <pt x="900" y="523" on="1"/>
      </contour>
      <contour>
        <pt x="240" y="715" on="1"/>
        <pt x="942" y="715" on="1"/>
        <pt x="922" y="631" on="1"/>
        <pt x="219" y="631" on="1"/>
      </contour>
    </TTGlyph>
    <TTGlyph name="afii10085" xMin="-56" yMin="-187" xMax="583" yMax="523">
      <component glyphName="y" x="0" y="0" flags="0x204"/>
    </TTGlyph>
    <TTGlyph name="afii10086" xMin="97" yMin="-185" xMax="771" yMax="776">
      <contour>
        <pt x="97" y="215" on="1"/>
        <pt x="97" y="287" on="0"/>
        <pt x="150" y="401" on="0"/>
        <pt x="243" y="482" on="0"/>
        <pt x="369" y="527" on="0"/>
        <pt x="441" y="531" on="1"/>
        <pt x="495" y="755" on="1"/>
        <pt x="617" y="776" on="1"/>
        <pt x="557" y="527" on="1"/>
        <pt x="654" y="516" on="0"/>
        <pt x="771" y="406" on="0"/>
        <pt x="771" y="304" on="1"/>
        <pt x="771" y="241" on="0"/>
        <pt x="723" y="128" on="0"/>
        <pt x="633" y="43" on="0"/>
        <pt x="506" y="-8" on="0"/>
        <pt x="427" y="-9" on="1"/>
        <pt x="384" y="-185" on="1"/>
        <pt x="269" y="-185" on="1"/>
        <pt x="312" y="-6" on="1"/>
        <pt x="206" y="5" on="0"/>
        <pt x="97" y="121" on="0"/>
      </contour>
      <contour>
        <pt x="448" y="83" on="1"/>
        <pt x="490" y="85" on="0"/>
        <pt x="563" y="118" on="0"/>
        <pt x="617" y="174" on="0"/>
        <pt x="648" y="252" on="0"/>
        <pt x="648" y="299" on="1"/>
        <pt x="648" y="350" on="0"/>
        <pt x="594" y="424" on="0"/>
        <pt x="531" y="429" on="1"/>
      </contour>
      <contour>
        <pt x="218" y="219" on="1"/>
        <pt x="218" y="168" on="0"/>
        <pt x="272" y="94" on="0"/>
        <pt x="335" y="89" on="1"/>
        <pt x="418" y="435" on="1"/>
        <pt x="377" y="433" on="0"/>
        <pt x="304" y="400" on="0"/>
        <pt x="250" y="343" on="0"/>
        <pt x="218" y="265" on="0"/>
      </contour>
    </TTGlyph>
    <TTGlyph name="afii10087" xMin="9" yMin="0" xMax="585" yMax="523">
      <component glyphName="x" x="0" y="0" flags="0x204"/>
    </TTGlyph>
    <TTGlyph name="afii10088" xMin="107" yMin="-148" xMax="608" yMax="523">
      <contour>
        <pt x="427" y="48" on="1"/>
        <pt x="402" y="26" on="0"/>
        <pt x="323" y="-13" on="0"/>
        <pt x="269" y="-13" on="1"/>
        <pt x="224" y="-13" on="0"/>
        <pt x="163" y="13" on="0"/>
        <pt x="124" y="59" on="0"/>
        <pt x="107" y="120" on="0"/>
        <pt x="107" y="155" on="1"/>
        <pt x="107" y="178" on="0"/>
        <pt x="114" y="225" on="0"/>
        <pt x="119" y="248" on="1"/>
        <pt x="185" y="523" on="1"/>
        <pt x="306" y="523" on="1"/>
        <pt x="243" y="259" on="1"/>
        <pt x="238" y="240" on="0"/>
        <pt x="228" y="190" on="0"/>
        <pt x="228" y="169" on="1"/>
        <pt x="228" y="153" on="0"/>
        <pt x="233" y="124" on="0"/>
        <pt x="248" y="102" on="0"/>
        <pt x="275" y="89" on="0"/>
        <pt x="296" y="89" on="1"/>
        <pt x="329" y="89" on="0"/>
        <pt x="381" y="114" on="0"/>
        <pt x="403" y="137" on="1"/>
        <pt x="406" y="180" on="0"/>
        <pt x="417" y="226" on="1"/>
        <pt x="487" y="523" on="1"/>
        <pt x="608" y="523" on="1"/>
        <pt x="533" y="208" on="1"/>
        <pt x="529" y="192" on="0"/>
        <pt x="521" y="152" on="0"/>
        <pt x="521" y="137" on="1"/>
        <pt x="521" y="124" on="0"/>
        <pt x="527" y="103" on="0"/>
        <pt x="543" y="86" on="0"/>
        <pt x="573" y="75" on="0"/>
        <pt x="596" y="72" on="1"/>
        <pt x="540" y="-148" on="1"/>
        <pt x="433" y="-148" on="1"/>
        <pt x="472" y="9" on="1"/>
        <pt x="456" y="14" on="0"/>
        <pt x="434" y="36" on="0"/>
      </contour>
    </TTGlyph>
    <TTGlyph name="afii10089" xMin="117" yMin="0" xMax="583" yMax="523">
      <contour>
        <pt x="161" y="523" on="1"/>
        <pt x="282" y="523" on="1"/>
        <pt x="243" y="364" on="1"/>
        <pt x="238" y="344" on="0"/>
        <pt x="238" y="330" on="1"/>
        <pt x="238" y="297" on="0"/>
        <pt x="284" y="273" on="0"/>
        <pt x="321" y="273" on="1"/>
        <pt x="345" y="273" on="0"/>
        <pt x="390" y="281" on="0"/>
        <pt x="405" y="286" on="1"/>
        <pt x="462" y="523" on="1"/>
        <pt x="583" y="523" on="1"/>
        <pt x="457" y="0" on="1"/>
        <pt x="336" y="0" on="1"/>
        <pt x="381" y="188" on="1"/>
        <pt x="364" y="183" on="0"/>
        <pt x="316" y="175" on="0"/>
        <pt x="288" y="175" on="1"/>
        <pt x="209" y="175" on="0"/>
        <pt x="117" y="241" on="0"/>
        <pt x="117" y="311" on="1"/>
        <pt x="117" y="342" on="0"/>
        <pt x="126" y="377" on="1"/>
      </contour>
    </TTGlyph>
    <TTGlyph name="afii10090" xMin="120" yMin="-13" xMax="900" yMax="523">
      <contour>
        <pt x="827" y="217" on="1"/>
        <pt x="815" y="166" on="0"/>
        <pt x="815" y="121" on="1"/>
        <pt x="815" y="92" on="0"/>
        <pt x="825" y="38" on="0"/>
        <pt x="836" y="8" on="1"/>
        <pt x="728" y="-8" on="1"/>
        <pt x="722" y="4" on="0"/>
        <pt x="713" y="30" on="0"/>
        <pt x="709" y="44" on="1"/>
        <pt x="685" y="23" on="0"/>
        <pt x="614" y="-13" on="0"/>
        <pt x="569" y="-13" on="1"/>
        <pt x="500" y="-13" on="0"/>
        <pt x="452" y="37" on="1"/>
        <pt x="423" y="20" on="0"/>
        <pt x="340" y="-13" on="0"/>
        <pt x="288" y="-13" on="1"/>
        <pt x="203" y="-13" on="0"/>
        <pt x="120" y="81" on="0"/>
        <pt x="120" y="160" on="1"/>
        <pt x="120" y="200" on="0"/>
        <pt x="131" y="247" on="1"/>
        <pt x="198" y="523" on="1"/>
        <pt x="319" y="523" on="1"/>
        <pt x="256" y="260" on="1"/>
        <pt x="251" y="241" on="0"/>
        <pt x="242" y="195" on="0"/>
        <pt x="242" y="173" on="1"/>
        <pt x="242" y="139" on="0"/>
        <pt x="275" y="90" on="0"/>
        <pt x="322" y="90" on="1"/>
        <pt x="348" y="90" on="0"/>
        <pt x="397" y="109" on="0"/>
        <pt x="414" y="120" on="1"/>
        <pt x="411" y="138" on="0"/>
        <pt x="411" y="156" on="1"/>
        <pt x="411" y="178" on="0"/>
        <pt x="416" y="224" on="0"/>
        <pt x="422" y="248" on="1"/>
        <pt x="488" y="523" on="1"/>
        <pt x="609" y="523" on="1"/>
        <pt x="547" y="261" on="1"/>
        <pt x="542" y="243" on="0"/>
        <pt x="533" y="195" on="0"/>
        <pt x="533" y="171" on="1"/>
        <pt x="533" y="155" on="0"/>
        <pt x="540" y="126" on="0"/>
        <pt x="556" y="103" on="0"/>
        <pt x="582" y="90" on="0"/>
        <pt x="602" y="90" on="1"/>
        <pt x="629" y="90" on="0"/>
        <pt x="677" y="119" on="0"/>
        <pt x="695" y="139" on="1"/>
        <pt x="696" y="150" on="0"/>
        <pt x="702" y="200" on="0"/>
        <pt x="707" y="222" on="1"/>
        <pt x="779" y="523" on="1"/>
        <pt x="900" y="523" on="1"/>
      </contour>
    </TTGlyph>
    <TTGlyph name="afii10091" xMin="120" yMin="-148" xMax="900" yMax="523">
      <contour>
        <pt x="569" y="-13" on="1"/>
        <pt x="500" y="-13" on="0"/>
        <pt x="452" y="37" on="1"/>
        <pt x="423" y="20" on="0"/>
        <pt x="340" y="-13" on="0"/>
        <pt x="288" y="-13" on="1"/>
        <pt x="203" y="-13" on="0"/>
        <pt x="120" y="81" on="0"/>
        <pt x="120" y="160" on="1"/>
        <pt x="120" y="200" on="0"/>
        <pt x="131" y="247" on="1"/>
        <pt x="198" y="523" on="1"/>
        <pt x="319" y="523" on="1"/>
        <pt x="256" y="260" on="1"/>
        <pt x="251" y="241" on="0"/>
        <pt x="242" y="195" on="0"/>
        <pt x="242" y="173" on="1"/>
        <pt x="242" y="139" on="0"/>
        <pt x="275" y="90" on="0"/>
        <pt x="322" y="90" on="1"/>
        <pt x="348" y="90" on="0"/>
        <pt x="397" y="109" on="0"/>
        <pt x="414" y="120" on="1"/>
        <pt x="411" y="138" on="0"/>
        <pt x="411" y="156" on="1"/>
        <pt x="411" y="178" on="0"/>
        <pt x="416" y="224" on="0"/>
        <pt x="422" y="248" on="1"/>
        <pt x="488" y="523" on="1"/>
        <pt x="609" y="523" on="1"/>
        <pt x="547" y="261" on="1"/>
        <pt x="542" y="243" on="0"/>
        <pt x="533" y="195" on="0"/>
        <pt x="533" y="171" on="1"/>
        <pt x="533" y="155" on="0"/>
        <pt x="540" y="126" on="0"/>
        <pt x="556" y="103" on="0"/>
        <pt x="582" y="90" on="0"/>
        <pt x="602" y="90" on="1"/>
        <pt x="630" y="90" on="0"/>
        <pt x="678" y="118" on="0"/>
        <pt x="695" y="135" on="1"/>
        <pt x="696" y="149" on="0"/>
        <pt x="702" y="200" on="0"/>
        <pt x="707" y="222" on="1"/>
        <pt x="779" y="523" on="1"/>
        <pt x="900" y="523" on="1"/>
        <pt x="825" y="209" on="1"/>
        <pt x="821" y="193" on="0"/>
        <pt x="813" y="152" on="0"/>
        <pt x="813" y="137" on="1"/>
        <pt x="813" y="124" on="0"/>
        <pt x="819" y="103" on="0"/>
        <pt x="835" y="86" on="0"/>
        <pt x="865" y="75" on="0"/>
        <pt x="888" y="72" on="1"/>
        <pt x="832" y="-148" on="1"/>
        <pt x="725" y="-148" on="1"/>
        <pt x="764" y="9" on="1"/>
        <pt x="748" y="14" on="0"/>
        <pt x="726" y="36" on="0"/>
        <pt x="720" y="47" on="1"/>
        <pt x="697" y="27" on="0"/>
        <pt x="623" y="-13" on="0"/>
      </contour>
    </TTGlyph>
    <TTGlyph name="afii10092" xMin="117" yMin="-11" xMax="607" yMax="523">
      <contour>
        <pt x="391" y="247" on="1"/>
        <pt x="371" y="247" on="0"/>
        <pt x="330" y="242" on="0"/>
        <pt x="316" y="239" on="1"/>
        <pt x="279" y="88" on="1"/>
        <pt x="293" y="86" on="0"/>
        <pt x="328" y="83" on="0"/>
        <pt x="352" y="83" on="1"/>
        <pt x="418" y="83" on="0"/>
        <pt x="490" y="132" on="0"/>
        <pt x="490" y="180" on="1"/>
        <pt x="490" y="212" on="0"/>
        <pt x="443" y="247" on="0"/>
      </contour>
      <contour>
        <pt x="338" y="330" on="1"/>
        <pt x="358" y="335" on="0"/>
        <pt x="405" y="340" on="0"/>
        <pt x="426" y="340" on="1"/>
        <pt x="513" y="340" on="0"/>
        <pt x="607" y="264" on="0"/>
        <pt x="607" y="190" on="1"/>
        <pt x="607" y="142" on="0"/>
        <pt x="569" y="67" on="0"/>
        <pt x="499" y="16" on="0"/>
        <pt x="399" y="-11" on="0"/>
        <pt x="337" y="-11" on="1"/>
        <pt x="288" y="-11" on="0"/>
        <pt x="187" y="1" on="0"/>
        <pt x="141" y="15" on="1"/>
        <pt x="240" y="423" on="1"/>
        <pt x="117" y="423" on="1"/>
        <pt x="141" y="523" on="1"/>
        <pt x="385" y="523" on="1"/>
      </contour>
    </TTGlyph>
    <TTGlyph name="afii10093" xMin="76" yMin="-11" xMax="835" yMax="523">
      <contour>
        <pt x="325" y="247" on="1"/>
        <pt x="304" y="247" on="0"/>
        <pt x="264" y="242" on="0"/>
        <pt x="250" y="239" on="1"/>
        <pt x="215" y="88" on="1"/>
        <pt x="229" y="86" on="0"/>
        <pt x="263" y="83" on="0"/>
        <pt x="287" y="83" on="1"/>
        <pt x="351" y="83" on="0"/>
        <pt x="422" y="132" on="0"/>
        <pt x="422" y="180" on="1"/>
        <pt x="422" y="212" on="0"/>
        <pt x="376" y="247" on="0"/>
      </contour>
      <contour>
        <pt x="198" y="523" on="1"/>
        <pt x="319" y="523" on="1"/>
        <pt x="272" y="330" on="1"/>
        <pt x="292" y="335" on="0"/>
        <pt x="339" y="340" on="0"/>
        <pt x="359" y="340" on="1"/>
        <pt x="444" y="340" on="0"/>
        <pt x="538" y="264" on="0"/>
        <pt x="538" y="190" on="1"/>
        <pt x="538" y="142" on="0"/>
        <pt x="501" y="67" on="0"/>
        <pt x="432" y="16" on="0"/>
        <pt x="333" y="-11" on="0"/>
        <pt x="272" y="-11" on="1"/>
        <pt x="224" y="-11" on="0"/>
        <pt x="124" y="1" on="0"/>
        <pt x="76" y="15" on="1"/>
      </contour>
      <contour>
        <pt x="709" y="0" on="1"/>
        <pt x="589" y="0" on="1"/>
        <pt x="714" y="523" on="1"/>
        <pt x="835" y="523" on="1"/>
      </contour>
    </TTGlyph>
    <TTGlyph name="afii10094" xMin="76" yMin="-11" xMax="542" yMax="523">
      <contour>
        <pt x="76" y="15" on="1"/>
        <pt x="198" y="523" on="1"/>
        <pt x="319" y="523" on="1"/>
        <pt x="272" y="330" on="1"/>
        <pt x="292" y="335" on="0"/>
        <pt x="340" y="340" on="0"/>
        <pt x="361" y="340" on="1"/>
        <pt x="449" y="340" on="0"/>
        <pt x="542" y="264" on="0"/>
        <pt x="542" y="190" on="1"/>
        <pt x="542" y="142" on="0"/>
        <pt x="504" y="67" on="0"/>
        <pt x="434" y="16" on="0"/>
        <pt x="335" y="-11" on="0"/>
        <pt x="273" y="-11" on="1"/>
        <pt x="224" y="-11" on="0"/>
        <pt x="123" y="1" on="0"/>
      </contour>
      <contour>
        <pt x="326" y="247" on="1"/>
        <pt x="306" y="247" on="0"/>
        <pt x="264" y="242" on="0"/>
        <pt x="250" y="239" on="1"/>
        <pt x="215" y="88" on="1"/>
        <pt x="229" y="86" on="0"/>
        <pt x="263" y="83" on="0"/>
        <pt x="288" y="83" on="1"/>
        <pt x="353" y="83" on="0"/>
        <pt x="426" y="132" on="0"/>
        <pt x="426" y="180" on="1"/>
        <pt x="426" y="212" on="0"/>
        <pt x="378" y="247" on="0"/>
      </contour>
    </TTGlyph>
    <TTGlyph name="afii10095" xMin="37" yMin="-13" xMax="498" yMax="536">
      <contour>
        <pt x="73" y="118" on="1"/>
        <pt x="99" y="106" on="0"/>
        <pt x="156" y="90" on="0"/>
        <pt x="193" y="90" on="1"/>
        <pt x="263" y="90" on="0"/>
        <pt x="353" y="160" on="0"/>
        <pt x="370" y="221" on="1"/>
        <pt x="165" y="221" on="1"/>
        <pt x="187" y="312" on="1"/>
        <pt x="382" y="312" on="1"/>
        <pt x="382" y="372" on="0"/>
        <pt x="327" y="435" on="0"/>
        <pt x="265" y="435" on="1"/>
        <pt x="233" y="435" on="0"/>
        <pt x="167" y="418" on="0"/>
        <pt x="147" y="408" on="1"/>
        <pt x="140" y="505" on="1"/>
        <pt x="166" y="517" on="0"/>
        <pt x="243" y="536" on="0"/>
        <pt x="288" y="536" on="1"/>
        <pt x="342" y="536" on="0"/>
        <pt x="421" y="503" on="0"/>
        <pt x="473" y="448" on="0"/>
        <pt x="498" y="373" on="0"/>
        <pt x="498" y="331" on="1"/>
        <pt x="498" y="248" on="0"/>
        <pt x="454" y="120" on="0"/>
        <pt x="372" y="33" on="0"/>
        <pt x="255" y="-13" on="0"/>
        <pt x="183" y="-13" on="1"/>
        <pt x="138" y="-13" on="0"/>
        <pt x="63" y="4" on="0"/>
        <pt x="37" y="18" on="1"/>
      </contour>
    </TTGlyph>
    <TTGlyph name="afii10096" xMin="73" yMin="-14" xMax="840" yMax="536">
      <contour>
        <pt x="546" y="-14" on="1"/>
        <pt x="456" y="-14" on="0"/>
        <pt x="359" y="96" on="0"/>
        <pt x="359" y="186" on="1"/>
        <pt x="359" y="194" on="0"/>
        <pt x="359" y="211" on="0"/>
        <pt x="360" y="219" on="1"/>
        <pt x="246" y="219" on="1"/>
        <pt x="193" y="0" on="1"/>
        <pt x="73" y="0" on="1"/>
        <pt x="199" y="523" on="1"/>
        <pt x="319" y="523" on="1"/>
        <pt x="270" y="317" on="1"/>
        <pt x="380" y="317" on="1"/>
        <pt x="394" y="360" on="0"/>
        <pt x="442" y="440" on="0"/>
        <pt x="510" y="500" on="0"/>
        <pt x="599" y="536" on="0"/>
        <pt x="653" y="536" on="1"/>
        <pt x="743" y="536" on="0"/>
        <pt x="840" y="427" on="0"/>
        <pt x="840" y="337" on="1"/>
        <pt x="840" y="278" on="0"/>
        <pt x="805" y="154" on="0"/>
        <pt x="733" y="52" on="0"/>
        <pt x="622" y="-14" on="0"/>
      </contour>
      <contour>
        <pt x="638" y="434" on="1"/>
        <pt x="600" y="434" on="0"/>
        <pt x="541" y="389" on="0"/>
        <pt x="501" y="319" on="0"/>
        <pt x="479" y="236" on="0"/>
        <pt x="479" y="197" on="1"/>
        <pt x="479" y="147" on="0"/>
        <pt x="516" y="89" on="0"/>
        <pt x="561" y="89" on="1"/>
        <pt x="598" y="89" on="0"/>
        <pt x="658" y="134" on="0"/>
        <pt x="698" y="203" on="0"/>
        <pt x="720" y="287" on="0"/>
        <pt x="720" y="325" on="1"/>
        <pt x="720" y="375" on="0"/>
        <pt x="683" y="434" on="0"/>
      </contour>
    </TTGlyph>
    <TTGlyph name="afii10097" xMin="35" yMin="0" xMax="603" yMax="534">
      <contour>
        <pt x="358" y="194" on="1"/>
        <pt x="346" y="194" on="0"/>
        <pt x="325" y="194" on="0"/>
        <pt x="315" y="195" on="1"/>
        <pt x="277" y="150" on="0"/>
        <pt x="198" y="48" on="0"/>
        <pt x="163" y="0" on="1"/>
        <pt x="35" y="0" on="1"/>
        <pt x="77" y="60" on="0"/>
        <pt x="168" y="174" on="0"/>
        <pt x="210" y="220" on="1"/>
        <pt x="138" y="255" on="0"/>
        <pt x="138" y="335" on="1"/>
        <pt x="138" y="390" on="0"/>
        <pt x="183" y="466" on="0"/>
        <pt x="258" y="513" on="0"/>
        <pt x="356" y="534" on="0"/>
        <pt x="409" y="534" on="1"/>
        <pt x="461" y="534" on="0"/>
        <pt x="561" y="520" on="0"/>
        <pt x="603" y="508" on="1"/>
        <pt x="481" y="0" on="1"/>
        <pt x="361" y="0" on="1"/>
        <pt x="407" y="194" on="1"/>
      </contour>
      <contour>
        <pt x="428" y="282" on="1"/>
        <pt x="465" y="435" on="1"/>
        <pt x="453" y="437" on="0"/>
        <pt x="422" y="441" on="0"/>
        <pt x="398" y="441" on="1"/>
        <pt x="368" y="441" on="0"/>
        <pt x="317" y="429" on="0"/>
        <pt x="280" y="405" on="0"/>
        <pt x="258" y="368" on="0"/>
        <pt x="258" y="343" on="1"/>
        <pt x="258" y="309" on="0"/>
        <pt x="305" y="282" on="0"/>
        <pt x="350" y="282" on="1"/>
      </contour>
    </TTGlyph>
    <TTGlyph name="afii10098" xMin="73" yMin="0" xMax="562" yMax="650">
      <contour>
        <pt x="507" y="423" on="1"/>
        <pt x="295" y="423" on="1"/>
        <pt x="193" y="0" on="1"/>
        <pt x="73" y="0" on="1"/>
        <pt x="198" y="523" on="1"/>
        <pt x="426" y="523" on="1"/>
        <pt x="457" y="650" on="1"/>
        <pt x="562" y="650" on="1"/>
      </contour>
    </TTGlyph>
    <TTGlyph name="afii10099" xMin="73" yMin="-187" xMax="574" yMax="776">
      <contour>
        <pt x="73" y="0" on="1"/>
        <pt x="218" y="605" on="1"/>
        <pt x="150" y="605" on="1"/>
        <pt x="169" y="686" on="1"/>
        <pt x="237" y="686" on="1"/>
        <pt x="254" y="756" on="1"/>
        <pt x="380" y="776" on="1"/>
        <pt x="358" y="686" on="1"/>
        <pt x="508" y="686" on="1"/>
        <pt x="489" y="605" on="1"/>
        <pt x="338" y="605" on="1"/>
        <pt x="316" y="511" on="1"/>
        <pt x="336" y="516" on="0"/>
        <pt x="384" y="525" on="0"/>
        <pt x="407" y="525" on="1"/>
        <pt x="451" y="525" on="0"/>
        <pt x="514" y="500" on="0"/>
        <pt x="555" y="456" on="0"/>
        <pt x="574" y="394" on="0"/>
        <pt x="574" y="358" on="1"/>
        <pt x="574" y="337" on="0"/>
        <pt x="569" y="299" on="0"/>
        <pt x="563" y="275" on="1"/>
        <pt x="500" y="9" on="1"/>
        <pt x="488" y="-41" on="0"/>
        <pt x="458" y="-114" on="0"/>
        <pt x="413" y="-163" on="0"/>
        <pt x="351" y="-187" on="0"/>
        <pt x="306" y="-187" on="1"/>
        <pt x="285" y="-187" on="0"/>
        <pt x="241" y="-178" on="0"/>
        <pt x="223" y="-170" on="1"/>
        <pt x="254" y="-76" on="1"/>
        <pt x="263" y="-80" on="0"/>
        <pt x="284" y="-85" on="0"/>
        <pt x="297" y="-85" on="1"/>
        <pt x="329" y="-85" on="0"/>
        <pt x="366" y="-45" on="0"/>
        <pt x="374" y="-9" on="1"/>
        <pt x="439" y="262" on="1"/>
        <pt x="444" y="285" on="0"/>
        <pt x="453" y="325" on="0"/>
        <pt x="453" y="346" on="1"/>
        <pt x="453" y="379" on="0"/>
        <pt x="418" y="424" on="0"/>
        <pt x="369" y="424" on="1"/>
        <pt x="349" y="424" on="0"/>
        <pt x="309" y="417" on="0"/>
        <pt x="293" y="412" on="1"/>
        <pt x="194" y="0" on="1"/>
      </contour>
    </TTGlyph>
    <TTGlyph name="afii10100" xMin="70" yMin="-14" xMax="517" yMax="792">
      <component glyphName="afii10068" x="0" y="0" flags="0x204"/>
      <component glyphName="acute" x="138" y="0" flags="0x4"/>
    </TTGlyph>
    <TTGlyph name="afii10101" xMin="96" yMin="-14" xMax="552" yMax="536">
      <contour>
        <pt x="510" y="412" on="1"/>
        <pt x="491" y="423" on="0"/>
        <pt x="440" y="436" on="0"/>
        <pt x="405" y="436" on="1"/>
        <pt x="345" y="436" on="0"/>
        <pt x="250" y="375" on="0"/>
        <pt x="230" y="312" on="1"/>
        <pt x="433" y="312" on="1"/>
        <pt x="411" y="221" on="1"/>
        <pt x="210" y="221" on="1"/>
        <pt x="209" y="215" on="0"/>
        <pt x="209" y="203" on="0"/>
        <pt x="209" y="198" on="1"/>
        <pt x="209" y="148" on="0"/>
        <pt x="269" y="90" on="0"/>
        <pt x="332" y="90" on="1"/>
        <pt x="372" y="90" on="0"/>
        <pt x="446" y="112" on="0"/>
        <pt x="462" y="122" on="1"/>
        <pt x="470" y="22" on="1"/>
        <pt x="440" y="6" on="0"/>
        <pt x="358" y="-14" on="0"/>
        <pt x="317" y="-14" on="1"/>
        <pt x="214" y="-14" on="0"/>
        <pt x="96" y="94" on="0"/>
        <pt x="96" y="199" on="1"/>
        <pt x="96" y="270" on="0"/>
        <pt x="142" y="393" on="0"/>
        <pt x="225" y="484" on="0"/>
        <pt x="342" y="536" on="0"/>
        <pt x="414" y="536" on="1"/>
        <pt x="451" y="536" on="0"/>
        <pt x="519" y="524" on="0"/>
        <pt x="552" y="508" on="1"/>
      </contour>
    </TTGlyph>
    <TTGlyph name="afii10102" xMin="45" yMin="-14" xMax="505" yMax="536">
      <component glyphName="s" x="0" y="0" flags="0x204"/>
    </TTGlyph>
    <TTGlyph name="afii10103" xMin="73" yMin="0" xMax="368" yMax="751">
      <component glyphName="i" x="0" y="0" flags="0x204"/>
    </TTGlyph>
    <TTGlyph name="afii10104" xMin="73" yMin="0" xMax="465" yMax="744">
      <component glyphName="dotlessi" x="0" y="0" flags="0x204"/>
      <component glyphName="dieresis" x="-59" y="0" flags="0x4"/>
    </TTGlyph>
    <TTGlyph name="afii10105" xMin="-102" yMin="-187" xMax="374" yMax="751">
      <component glyphName="j" x="0" y="0" flags="0x204"/>
    </TTGlyph>
    <TTGlyph name="afii10106" xMin="26" yMin="-11" xMax="844" yMax="523">
      <contour>
        <pt x="625" y="523" on="1"/>
        <pt x="578" y="330" on="1"/>
        <pt x="597" y="335" on="0"/>
        <pt x="645" y="340" on="0"/>
        <pt x="665" y="340" on="1"/>
        <pt x="750" y="340" on="0"/>
        <pt x="844" y="264" on="0"/>
        <pt x="844" y="190" on="1"/>
        <pt x="844" y="142" on="0"/>
        <pt x="806" y="67" on="0"/>
        <pt x="737" y="16" on="0"/>
        <pt x="638" y="-11" on="0"/>
        <pt x="577" y="-11" on="1"/>
        <pt x="529" y="-11" on="0"/>
        <pt x="429" y="1" on="0"/>
        <pt x="382" y="15" on="1"/>
        <pt x="479" y="423" on="1"/>
        <pt x="349" y="423" on="1"/>
        <pt x="327" y="333" on="0"/>
        <pt x="282" y="179" on="0"/>
        <pt x="214" y="64" on="0"/>
        <pt x="109" y="-5" on="0"/>
        <pt x="27" y="-9" on="1"/>
        <pt x="26" y="91" on="1"/>
        <pt x="79" y="94" on="0"/>
        <pt x="148" y="152" on="0"/>
        <pt x="192" y="240" on="0"/>
        <pt x="218" y="345" on="0"/>
        <pt x="230" y="395" on="1"/>
        <pt x="238" y="427" on="0"/>
        <pt x="248" y="484" on="0"/>
        <pt x="256" y="523" on="1"/>
      </contour>
      <contour>
        <pt x="630" y="247" on="1"/>
        <pt x="610" y="247" on="0"/>
        <pt x="570" y="242" on="0"/>
        <pt x="556" y="239" on="1"/>
        <pt x="520" y="88" on="1"/>
        <pt x="534" y="86" on="0"/>
        <pt x="568" y="83" on="0"/>
        <pt x="592" y="83" on="1"/>
        <pt x="656" y="83" on="0"/>
        <pt x="727" y="132" on="0"/>
        <pt x="727" y="180" on="1"/>
        <pt x="727" y="212" on="0"/>
        <pt x="681" y="247" on="0"/>
      </contour>
    </TTGlyph>
    <TTGlyph name="afii10107" xMin="73" yMin="-11" xMax="848" yMax="523">
      <contour>
        <pt x="634" y="247" on="1"/>
        <pt x="614" y="247" on="0"/>
        <pt x="574" y="242" on="0"/>
        <pt x="560" y="239" on="1"/>
        <pt x="524" y="88" on="1"/>
        <pt x="538" y="86" on="0"/>
        <pt x="572" y="83" on="0"/>
        <pt x="596" y="83" on="1"/>
        <pt x="660" y="83" on="0"/>
        <pt x="731" y="132" on="0"/>
        <pt x="731" y="180" on="1"/>
        <pt x="731" y="212" on="0"/>
        <pt x="685" y="247" on="0"/>
      </contour>
      <contour>
        <pt x="460" y="326" on="1"/>
        <pt x="508" y="523" on="1"/>
        <pt x="629" y="523" on="1"/>
        <pt x="582" y="330" on="1"/>
        <pt x="602" y="335" on="0"/>
        <pt x="649" y="340" on="0"/>
        <pt x="669" y="340" on="1"/>
        <pt x="754" y="340" on="0"/>
        <pt x="848" y="264" on="0"/>
        <pt x="848" y="190" on="1"/>
        <pt x="848" y="142" on="0"/>
        <pt x="810" y="67" on="0"/>
        <pt x="741" y="16" on="0"/>
        <pt x="642" y="-11" on="0"/>
        <pt x="581" y="-11" on="1"/>
        <pt x="533" y="-11" on="0"/>
        <pt x="433" y="1" on="0"/>
        <pt x="386" y="15" on="1"/>
        <pt x="436" y="226" on="1"/>
        <pt x="248" y="226" on="1"/>
        <pt x="194" y="0" on="1"/>
        <pt x="73" y="0" on="1"/>
        <pt x="199" y="523" on="1"/>
        <pt x="320" y="523" on="1"/>
        <pt x="272" y="326" on="1"/>
      </contour>
    </TTGlyph>
    <TTGlyph name="afii10108" xMin="74" yMin="0" xMax="575" yMax="776">
      <component glyphName="hbar" x="0" y="0" flags="0x204"/>
    </TTGlyph>
    <TTGlyph name="afii10109" xMin="73" yMin="0" xMax="643" yMax="792">
      <component glyphName="afii10076" x="0" y="0" flags="0x204"/>
      <component glyphName="acute" x="213" y="0" flags="0x4"/>
    </TTGlyph>
    <TTGlyph name="afii10110" xMin="-56" yMin="-187" xMax="583" yMax="755">
      <component glyphName="y" x="0" y="0" flags="0x204"/>
      <component glyphName="kratka" x="107" y="0" flags="0x4"/>
    </TTGlyph>
    <TTGlyph name="afii10145" xMin="78" yMin="-185" xMax="773" yMax="693">
      <contour>
        <pt x="230" y="106" on="1"/>
        <pt x="506" y="106" on="1"/>
        <pt x="647" y="693" on="1"/>
        <pt x="773" y="693" on="1"/>
        <pt x="607" y="0" on="1"/>
        <pt x="403" y="0" on="1"/>
        <pt x="358" y="-185" on="1"/>
        <pt x="238" y="-185" on="1"/>
        <pt x="283" y="0" on="1"/>
        <pt x="78" y="0" on="1"/>
        <pt x="244" y="693" on="1"/>
        <pt x="371" y="693" on="1"/>
      </contour>
    </TTGlyph>
    <TTGlyph name="afii10193" xMin="107" yMin="-185" xMax="608" yMax="523">
      <contour>
        <pt x="608" y="523" on="1"/>
        <pt x="534" y="212" on="1"/>
        <pt x="529" y="189" on="0"/>
        <pt x="524" y="143" on="0"/>
        <pt x="524" y="120" on="1"/>
        <pt x="524" y="91" on="0"/>
        <pt x="533" y="35" on="0"/>
        <pt x="544" y="8" on="1"/>
        <pt x="436" y="-8" on="1"/>
        <pt x="430" y="3" on="0"/>
        <pt x="421" y="30" on="0"/>
        <pt x="417" y="44" on="1"/>
        <pt x="392" y="24" on="0"/>
        <pt x="318" y="-13" on="0"/>
        <pt x="269" y="-13" on="1"/>
        <pt x="225" y="-13" on="0"/>
        <pt x="163" y="13" on="0"/>
        <pt x="124" y="58" on="0"/>
        <pt x="107" y="119" on="0"/>
        <pt x="107" y="153" on="1"/>
        <pt x="107" y="197" on="0"/>
        <pt x="119" y="248" on="1"/>
        <pt x="185" y="523" on="1"/>
        <pt x="306" y="523" on="1"/>
        <pt x="241" y="251" on="1"/>
        <pt x="228" y="199" on="0"/>
        <pt x="228" y="166" on="1"/>
        <pt x="228" y="150" on="0"/>
        <pt x="234" y="122" on="0"/>
        <pt x="249" y="101" on="0"/>
        <pt x="276" y="89" on="0"/>
        <pt x="296" y="89" on="1"/>
        <pt x="329" y="89" on="0"/>
        <pt x="381" y="116" on="0"/>
        <pt x="403" y="139" on="1"/>
        <pt x="406" y="182" on="0"/>
        <pt x="417" y="227" on="1"/>
        <pt x="487" y="523" on="1"/>
      </contour>
      <contour>
        <pt x="296" y="-185" on="1"/>
        <pt x="189" y="-185" on="1"/>
        <pt x="227" y="-42" on="1"/>
        <pt x="335" y="-42" on="1"/>
      </contour>
    </TTGlyph>
    <TTGlyph name="afii61289" xMin="83" yMin="-15" xMax="533" yMax="776">
      <contour>
        <pt x="533" y="47" on="1"/>
        <pt x="501" y="18" on="0"/>
        <pt x="417" y="-15" on="0"/>
        <pt x="363" y="-15" on="1"/>
        <pt x="316" y="-15" on="0"/>
        <pt x="249" y="11" on="0"/>
        <pt x="205" y="57" on="0"/>
        <pt x="183" y="123" on="0"/>
        <pt x="180" y="164" on="1"/>
        <pt x="125" y="125" on="1"/>
        <pt x="83" y="187" on="1"/>
        <pt x="179" y="259" on="1"/>
        <pt x="179" y="524" on="1"/>
        <pt x="179" y="593" on="0"/>
        <pt x="207" y="689" on="0"/>
        <pt x="255" y="749" on="0"/>
        <pt x="320" y="776" on="0"/>
        <pt x="358" y="776" on="1"/>
        <pt x="400" y="776" on="0"/>
        <pt x="457" y="745" on="0"/>
        <pt x="492" y="695" on="0"/>
        <pt x="507" y="630" on="0"/>
        <pt x="507" y="597" on="1"/>
        <pt x="507" y="499" on="0"/>
        <pt x="392" y="325" on="0"/>
        <pt x="294" y="241" on="1"/>
        <pt x="294" y="203" on="1"/>
        <pt x="294" y="89" on="0"/>
        <pt x="386" y="89" on="1"/>
        <pt x="415" y="89" on="0"/>
        <pt x="465" y="114" on="0"/>
        <pt x="484" y="130" on="1"/>
      </contour>
      <contour>
        <pt x="294" y="349" on="1"/>
        <pt x="352" y="406" on="0"/>
        <pt x="421" y="532" on="0"/>
        <pt x="421" y="599" on="1"/>
        <pt x="421" y="636" on="0"/>
        <pt x="398" y="686" on="0"/>
        <pt x="363" y="686" on="1"/>
        <pt x="350" y="686" on="0"/>
        <pt x="325" y="673" on="0"/>
        <pt x="306" y="639" on="0"/>
        <pt x="294" y="580" on="0"/>
        <pt x="294" y="534" on="1"/>
      </contour>
    </TTGlyph>
    <TTGlyph name="afii61352" xMin="78" yMin="0" xMax="1172" yMax="709">
      <contour>
        <pt x="759" y="236" on="1"/>
        <pt x="1097" y="236" on="1"/>
        <pt x="1074" y="136" on="1"/>
        <pt x="736" y="136" on="1"/>
      </contour>
      <contour>
        <pt x="502" y="0" on="1"/>
        <pt x="485" y="59" on="0"/>
        <pt x="446" y="186" on="0"/>
        <pt x="400" y="315" on="0"/>
        <pt x="349" y="442" on="0"/>
        <pt x="321" y="501" on="1"/>
        <pt x="201" y="0" on="1"/>
        <pt x="78" y="0" on="1"/>
        <pt x="243" y="693" on="1"/>
        <pt x="351" y="693" on="1"/>
        <pt x="411" y="583" on="0"/>
        <pt x="507" y="344" on="0"/>
        <pt x="544" y="227" on="1"/>
        <pt x="655" y="693" on="1"/>
        <pt x="779" y="693" on="1"/>
        <pt x="613" y="0" on="1"/>
      </contour>
      <contour>
        <pt x="952" y="328" on="1"/>
        <pt x="883" y="328" on="0"/>
        <pt x="808" y="405" on="0"/>
        <pt x="808" y="469" on="1"/>
        <pt x="808" y="509" on="0"/>
        <pt x="833" y="594" on="0"/>
        <pt x="887" y="664" on="0"/>
        <pt x="970" y="709" on="0"/>
        <pt x="1028" y="709" on="1"/>
        <pt x="1097" y="709" on="0"/>
        <pt x="1172" y="632" on="0"/>
        <pt x="1172" y="568" on="1"/>
        <pt x="1172" y="528" on="0"/>
        <pt x="1147" y="443" on="0"/>
        <pt x="1093" y="373" on="0"/>
        <pt x="1010" y="328" on="0"/>
      </contour>
      <contour>
        <pt x="1017" y="632" on="1"/>
        <pt x="989" y="632" on="0"/>
        <pt x="947" y="603" on="0"/>
        <pt x="918" y="558" on="0"/>
        <pt x="903" y="503" on="0"/>
        <pt x="903" y="478" on="1"/>
        <pt x="903" y="445" on="0"/>
        <pt x="931" y="405" on="0"/>
        <pt x="963" y="405" on="1"/>
        <pt x="991" y="405" on="0"/>
        <pt x="1033" y="434" on="0"/>
        <pt x="1062" y="479" on="0"/>
        <pt x="1077" y="534" on="0"/>
        <pt x="1077" y="559" on="1"/>
        <pt x="1077" y="592" on="0"/>
        <pt x="1050" y="632" on="0"/>
      </contour>
    </TTGlyph>
    <TTGlyph name="agrave" xMin="95" yMin="-14" xMax="602" yMax="789">
      <component glyphName="a" x="0" y="0" flags="0x204"/>
      <component glyphName="grave" x="175" y="0" flags="0x4"/>
    </TTGlyph>
    <TTGlyph name="alpha" xMin="95" yMin="-14" xMax="602" yMax="533">
      <contour>
        <pt x="544" y="-10" on="1"/>
        <pt x="496" y="-9" on="0"/>
        <pt x="437" y="16" on="0"/>
        <pt x="421" y="39" on="1"/>
        <pt x="410" y="31" on="0"/>
        <pt x="381" y="13" on="0"/>
        <pt x="343" y="-3" on="0"/>
        <pt x="298" y="-14" on="0"/>
        <pt x="272" y="-14" on="1"/>
        <pt x="224" y="-14" on="0"/>
        <pt x="157" y="18" on="0"/>
        <pt x="115" y="72" on="0"/>
        <pt x="95" y="144" on="0"/>
        <pt x="95" y="184" on="1"/>
        <pt x="95" y="251" on="0"/>
        <pt x="140" y="377" on="0"/>
        <pt x="227" y="475" on="0"/>
        <pt x="355" y="533" on="0"/>
        <pt x="438" y="533" on="1"/>
        <pt x="479" y="533" on="0"/>
        <pt x="562" y="520" on="0"/>
        <pt x="602" y="502" on="1"/>
        <pt x="531" y="217" on="1"/>
        <pt x="526" y="195" on="0"/>
        <pt x="520" y="159" on="0"/>
        <pt x="520" y="144" on="1"/>
        <pt x="520" y="119" on="0"/>
        <pt x="549" y="94" on="0"/>
        <pt x="579" y="89" on="1"/>
      </contour>
      <contour>
        <pt x="302" y="88" on="1"/>
        <pt x="331" y="88" on="0"/>
        <pt x="381" y="110" on="0"/>
        <pt x="402" y="128" on="1"/>
        <pt x="401" y="134" on="0"/>
        <pt x="401" y="144" on="0"/>
        <pt x="401" y="149" on="1"/>
        <pt x="401" y="183" on="0"/>
        <pt x="412" y="224" on="1"/>
        <pt x="464" y="429" on="1"/>
        <pt x="455" y="431" on="0"/>
        <pt x="432" y="433" on="0"/>
        <pt x="423" y="433" on="1"/>
        <pt x="375" y="433" on="0"/>
        <pt x="298" y="392" on="0"/>
        <pt x="244" y="326" on="0"/>
        <pt x="215" y="242" on="0"/>
        <pt x="215" y="198" on="1"/>
        <pt x="215" y="175" on="0"/>
        <pt x="224" y="135" on="0"/>
        <pt x="244" y="105" on="0"/>
        <pt x="277" y="88" on="0"/>
      </contour>
    </TTGlyph>
    <TTGlyph name="alphatonos" xMin="95" yMin="-14" xMax="602" yMax="799">
      <component glyphName="alpha" x="0" y="0" flags="0x204"/>
      <component glyphName="tonos" x="176" y="0" flags="0x4"/>
    </TTGlyph>
    <TTGlyph name="amacron" xMin="95" yMin="-14" xMax="613" yMax="718">
      <component glyphName="a" x="0" y="0" flags="0x204"/>
      <component glyphName="macron" x="123" y="0" flags="0x4"/>
    </TTGlyph>
    <TTGlyph name="ampersand" xMin="75" yMin="-9" xMax="679" yMax="709">
      <contour>
        <pt x="272" y="-9" on="1"/>
        <pt x="233" y="-9" on="0"/>
        <pt x="161" y="10" on="0"/>
        <pt x="107" y="50" on="0"/>
        <pt x="75" y="113" on="0"/>
        <pt x="75" y="157" on="1"/>
        <pt x="75" y="199" on="0"/>
        <pt x="101" y="266" on="0"/>
        <pt x="149" y="320" on="0"/>
        <pt x="218" y="365" on="0"/>
        <pt x="261" y="386" on="1"/>
        <pt x="242" y="416" on="0"/>
        <pt x="221" y="480" on="0"/>
        <pt x="221" y="515" on="1"/>
        <pt x="221" y="558" on="0"/>
        <pt x="252" y="629" on="0"/>
        <pt x="309" y="680" on="0"/>
        <pt x="390" y="709" on="0"/>
        <pt x="440" y="709" on="1"/>
        <pt x="512" y="709" on="0"/>
        <pt x="597" y="633" on="0"/>
        <pt x="597" y="572" on="1"/>
        <pt x="597" y="515" on="0"/>
        <pt x="524" y="415" on="0"/>
        <pt x="457" y="381" on="1"/>
        <pt x="446" y="375" on="0"/>
        <pt x="423" y="364" on="0"/>
        <pt x="412" y="359" on="1"/>
        <pt x="512" y="222" on="1"/>
        <pt x="530" y="248" on="0"/>
        <pt x="561" y="308" on="0"/>
        <pt x="573" y="343" on="1"/>
        <pt x="679" y="330" on="1"/>
        <pt x="661" y="281" on="0"/>
        <pt x="608" y="184" on="0"/>
        <pt x="573" y="141" on="1"/>
        <pt x="599" y="105" on="0"/>
        <pt x="641" y="34" on="0"/>
        <pt x="655" y="0" on="1"/>
        <pt x="532" y="0" on="1"/>
        <pt x="525" y="15" on="0"/>
        <pt x="506" y="48" on="0"/>
        <pt x="495" y="65" on="1"/>
        <pt x="448" y="30" on="0"/>
        <pt x="338" y="-9" on="0"/>
      </contour>
      <contour>
        <pt x="285" y="87" on="1"/>
        <pt x="322" y="87" on="0"/>
        <pt x="402" y="113" on="0"/>
        <pt x="439" y="143" on="1"/>
        <pt x="312" y="315" on="1"/>
        <pt x="261" y="294" on="0"/>
        <pt x="194" y="223" on="0"/>
        <pt x="194" y="174" on="1"/>
        <pt x="194" y="137" on="0"/>
        <pt x="237" y="87" on="0"/>
      </contour>
      <contour>
        <pt x="331" y="516" on="1"/>
        <pt x="331" y="496" on="0"/>
        <pt x="348" y="452" on="0"/>
        <pt x="362" y="428" on="1"/>
        <pt x="389" y="440" on="0"/>
        <pt x="436" y="467" on="0"/>
        <pt x="471" y="498" on="0"/>
        <pt x="491" y="536" on="0"/>
        <pt x="491" y="560" on="1"/>
        <pt x="491" y="586" on="0"/>
        <pt x="459" y="619" on="0"/>
        <pt x="427" y="619" on="1"/>
        <pt x="408" y="619" on="0"/>
        <pt x="374" y="606" on="0"/>
        <pt x="347" y="581" on="0"/>
        <pt x="331" y="542" on="0"/>
      </contour>
    </TTGlyph>
</ttFont>
